<?xml version="1.0" encoding="utf-8"?>
<!-- Generator: Adobe Illustrator 16.0.0, SVG Export Plug-In . SVG Version: 6.00 Build 0)  -->
<!DOCTYPE svg PUBLIC "-//W3C//DTD SVG 1.1//EN" "http://www.w3.org/Graphics/SVG/1.1/DTD/svg11.dtd">
<svg version="1.1" id="Layer_1" xmlns="http://www.w3.org/2000/svg" xmlns:xlink="http://www.w3.org/1999/xlink" x="0px" y="0px"
	 width="25px" height="25px" viewBox="0 0 25 25" enable-background="new 0 0 25 25" xml:space="preserve">
<g>
	<path fill-rule="evenodd" clip-rule="evenodd" fill="#00AA30" d="M14.399,17.855H0.531v-2.329h16.196v2.097l4.514-4.101
		L16.739,9.43v2.037l-0.514,0.046c-0.121,0.012-0.171,0.017-0.225,0.017l-3.856,0.001c-0.584-0.003-0.834-0.25-0.839-0.825V9.209
		h3.09V4.224l10.31,9.299l-10.306,9.364V17.855z"/>
	<g>
		<path fill="#00AA30" d="M5.403,14.666c-2.817,0-5.108-2.291-5.108-5.107S2.586,4.45,5.403,4.45c2.817,0,5.109,2.292,5.109,5.108
			S8.221,14.666,5.403,14.666z M5.403,5.577c-2.195,0-3.981,1.786-3.981,3.981s1.786,3.98,3.981,3.98
			c2.196,0,3.982-1.785,3.982-3.98S7.599,5.577,5.403,5.577z"/>
	</g>
	<g>
		<path fill="#00AA30" d="M4.68,12.621v-2.336H2.326V8.674H4.68V6.339h1.57v2.335h2.359v1.611H6.25v2.336H4.68z"/>
	</g>
</g>
</svg>
