<?xml version="1.0" encoding="utf-8"?>
<!-- Generator: Adobe Illustrator 16.0.0, SVG Export Plug-In . SVG Version: 6.00 Build 0)  -->
<!DOCTYPE svg PUBLIC "-//W3C//DTD SVG 1.1//EN" "http://www.w3.org/Graphics/SVG/1.1/DTD/svg11.dtd">
<svg version="1.1" id="Layer_1" xmlns="http://www.w3.org/2000/svg" xmlns:xlink="http://www.w3.org/1999/xlink" x="0px" y="0px"
	 width="25px" height="25px" viewBox="0 0 25 25" enable-background="new 0 0 25 25" xml:space="preserve">
<g>
	<path fill-rule="evenodd" clip-rule="evenodd" fill="#FE433E" d="M10.601,17.855h13.868v-2.329H8.272v2.097l-4.514-4.101
		L8.261,9.43v2.037l0.514,0.046c0.121,0.012,0.171,0.017,0.225,0.017l3.856,0.001c0.584-0.003,0.834-0.25,0.839-0.825V9.209h-3.09
		V4.224l-10.31,9.299l10.306,9.364V17.855z"/>
	<g>
		<path fill="#FE433E" d="M19.597,14.666c2.817,0,5.108-2.291,5.108-5.107S22.414,4.45,19.597,4.45
			c-2.817,0-5.109,2.292-5.109,5.108S16.779,14.666,19.597,14.666z M19.597,5.577c2.195,0,3.981,1.786,3.981,3.981
			s-1.786,3.98-3.981,3.98c-2.196,0-3.982-1.785-3.982-3.98S17.401,5.577,19.597,5.577z"/>
	</g>
</g>
<g>
	<path fill="#FE433E" d="M16.882,10.542V8.605h5.805v1.937H16.882z"/>
</g>
</svg>
