<?xml version="1.0" encoding="utf-8"?>
<!-- Generator: Adobe Illustrator 16.0.0, SVG Export Plug-In . SVG Version: 6.00 Build 0)  -->
<!DOCTYPE svg PUBLIC "-//W3C//DTD SVG 1.1//EN" "http://www.w3.org/Graphics/SVG/1.1/DTD/svg11.dtd">
<svg version="1.1" id="Layer_1" xmlns="http://www.w3.org/2000/svg" xmlns:xlink="http://www.w3.org/1999/xlink" x="0px" y="0px"
	 width="30px" height="30px" viewBox="0 0 30 30" enable-background="new 0 0 30 30" xml:space="preserve">
<path opacity="0.95" fill-rule="evenodd" clip-rule="evenodd" d="M20.309,17.603c-0.07,3.561-0.127,4.852-0.201,8.111
	c-0.065,2.853-0.945,3.684-3.823,3.643c-1.175-0.018-2.352-0.031-3.526-0.071c-2.495-0.084-3.384-0.972-3.374-3.513
	c0.013-2.939,0.109-3.908,0.16-6.847c0.007-0.442-0.033-0.886-0.059-1.538c-1.786-0.035-3.472-0.012-5.145-0.133
	c-0.593-0.042-1.449-0.291-1.658-0.711c-0.195-0.391,0.17-1.236,0.525-1.701c3.33-4.35,6.688-8.679,10.091-12.973
	c1.29-1.624,2.636-1.654,3.853,0.003c3.239,4.413,6.427,8.867,9.528,13.375c1.258,1.83,0.817,2.453-1.459,2.445
	C23.664,17.688,22.108,17.638,20.309,17.603z"/>
</svg>
