<?xml version="1.0" encoding="utf-8"?>
<!-- Generator: Adobe Illustrator 16.0.0, SVG Export Plug-In . SVG Version: 6.00 Build 0)  -->
<!DOCTYPE svg PUBLIC "-//W3C//DTD SVG 1.1//EN" "http://www.w3.org/Graphics/SVG/1.1/DTD/svg11.dtd">
<svg version="1.1" id="Layer_1" xmlns="http://www.w3.org/2000/svg" xmlns:xlink="http://www.w3.org/1999/xlink" x="0px" y="0px"
	 width="25px" height="25px" viewBox="0 0 25 25" enable-background="new 0 0 25 25" xml:space="preserve">
<g>
	<g>
		<path fill="#00AA30" d="M21.438,11.514c0.953,0.55,0.953,1.45,0,2l-7.206,4.161c-0.953,0.55-2.512,1.45-3.464,2l-7.207,4.159
			c-0.953,0.55-1.732,0.1-1.732-1v-8.32c0-1.1,0-2.9,0-4V2.192c0-1.1,0.779-1.55,1.732-1l7.207,4.16c0.953,0.55,2.511,1.45,3.464,2
			L21.438,11.514z"/>
	</g>
	<g>
		<circle fill="#FFFFFF" cx="8.367" cy="12.549" r="4.927"/>
		<g>
			<g>
				<path fill="#00AA30" d="M8.39,17.847c-2.941,0-5.334-2.393-5.334-5.333c0-2.941,2.393-5.332,5.334-5.332
					c2.942,0,5.334,2.391,5.334,5.332C13.724,15.454,11.332,17.847,8.39,17.847z M8.39,8.357c-2.292,0-4.157,1.864-4.157,4.156
					c0,2.293,1.865,4.157,4.157,4.157c2.293,0,4.158-1.864,4.158-4.157C12.548,10.222,10.683,8.357,8.39,8.357z"/>
			</g>
			<g>
				<path fill="#00AA30" d="M7.634,15.711v-2.438H5.176V11.59h2.458V9.153h1.639v2.437h2.463v1.683H9.273v2.438H7.634z"/>
			</g>
		</g>
	</g>
</g>
</svg>
