<?xml version="1.0" encoding="utf-8"?>
<!-- Generator: Adobe Illustrator 16.0.0, SVG Export Plug-In . SVG Version: 6.00 Build 0)  -->
<!DOCTYPE svg PUBLIC "-//W3C//DTD SVG 1.1//EN" "http://www.w3.org/Graphics/SVG/1.1/DTD/svg11.dtd">
<svg version="1.1" id="Layer_1" xmlns="http://www.w3.org/2000/svg" xmlns:xlink="http://www.w3.org/1999/xlink" x="0px" y="0px"
	 width="25px" height="25px" viewBox="0 0 25 25" enable-background="new 0 0 25 25" xml:space="preserve">
<g>
	<path d="M11.195,7.843c0.75,0,1.463,0,2.213,0c0.019-0.304,0.035-0.577,0.054-0.873c2.374,0,4.724,0,7.115,0
		c0.019,0.277,0.034,0.55,0.054,0.871c0.747,0,1.473,0,2.225,0c0,5.118,0,10.188,0,15.298c-3.866,0-7.746,0-11.661,0
		C11.195,18.07,11.195,12.99,11.195,7.843z M12.988,9.675c0,0.314,0,0.573,0,0.837c0.459,0,0.892,0,1.321,0c0-0.299,0-0.557,0-0.837
		C13.859,9.675,13.438,9.675,12.988,9.675z M16.551,9.688c-0.48,0-0.9,0-1.332,0c0,0.294,0,0.552,0,0.832c0.459,0,0.893,0,1.332,0
		C16.551,10.225,16.551,9.966,16.551,9.688z M17.494,9.677c0,0.309,0,0.568,0,0.838c0.457,0,0.89,0,1.326,0c0-0.297,0-0.555,0-0.838
		C18.372,9.677,17.949,9.677,17.494,9.677z M19.736,9.679c0,0.298,0,0.568,0,0.848c0.457,0,0.877,0,1.313,0c0-0.298,0-0.568,0-0.848
		C20.598,9.679,20.176,9.679,19.736,9.679z M14.305,12.34c0-0.311,0-0.581,0-0.857c-0.457,0-0.88,0-1.311,0c0,0.3,0,0.57,0,0.857
		C13.436,12.34,13.846,12.34,14.305,12.34z M15.232,11.47c0,0.321,0,0.591,0,0.856c0.461,0,0.883,0,1.304,0c0-0.303,0-0.573,0-0.856
		C16.091,11.47,15.682,11.47,15.232,11.47z M17.502,11.474c0,0.307,0,0.577,0,0.855c0.452,0,0.873,0,1.313,0
		c0-0.298,0-0.568,0-0.855C18.371,11.474,17.961,11.474,17.502,11.474z M21.059,11.491c-0.478,0-0.897,0-1.33,0
		c0,0.293,0,0.552,0,0.831c0.459,0,0.894,0,1.33,0C21.059,12.029,21.059,11.77,21.059,11.491z M14.325,13.299
		c-0.479,0-0.914,0-1.337,0c0,0.301,0,0.559,0,0.82c0.461,0,0.894,0,1.337,0C14.325,13.832,14.325,13.586,14.325,13.299z
		 M15.219,14.133c0.469,0,0.891,0,1.32,0c0-0.299,0-0.568,0-0.846c-0.453,0-0.874,0-1.32,0
		C15.219,13.573,15.219,13.831,15.219,14.133z M18.82,13.283c-0.461,0-0.881,0-1.32,0c0,0.297,0,0.566,0,0.853
		c0.45,0,0.873,0,1.32,0C18.82,13.852,18.82,13.594,18.82,13.283z M21.063,13.291c-0.476,0-0.896,0-1.319,0c0,0.305,0,0.574,0,0.838
		c0.462,0,0.885,0,1.319,0C21.063,13.838,21.063,13.579,21.063,13.291z M14.296,15.945c0-0.324,0-0.594,0-0.848
		c-0.466,0-0.888,0-1.294,0c0,0.307,0,0.575,0,0.848C13.45,15.945,13.861,15.945,14.296,15.945z M16.563,15.104
		c-0.453,0-0.896,0-1.338,0c0,0.301,0,0.559,0,0.818c0.465,0,0.896,0,1.338,0C16.563,15.636,16.563,15.389,16.563,15.104z
		 M18.805,15.945c0-0.324,0-0.594,0-0.848c-0.466,0-0.887,0-1.293,0c0,0.307,0,0.575,0,0.848
		C17.961,15.945,18.371,15.945,18.805,15.945z M21.055,15.105c-0.465,0-0.896,0-1.32,0c0,0.302,0,0.56,0,0.834
		c0.453,0,0.877,0,1.32,0C21.055,15.657,21.055,15.396,21.055,15.105z M12.981,17.732c0.479,0,0.899,0,1.317,0
		c0-0.307,0-0.574,0-0.834c-0.464,0-0.888,0-1.317,0C12.981,17.191,12.981,17.451,12.981,17.732z M16.543,17.742
		c0-0.295,0-0.566,0-0.852c-0.451,0-0.874,0-1.316,0c0,0.297,0,0.564,0,0.852C15.682,17.742,16.102,17.742,16.543,17.742z
		 M18.826,16.896c-0.48,0-0.902,0-1.318,0c0,0.306,0,0.574,0,0.838c0.458,0,0.881,0,1.318,0
		C18.826,17.443,18.826,17.188,18.826,16.896z M19.745,16.883c0,0.325,0,0.596,0,0.852c0.465,0,0.888,0,1.296,0
		c0-0.307,0-0.575,0-0.852C20.592,16.883,20.182,16.883,19.745,16.883z M14.301,19.559c0-0.322,0-0.593,0-0.855
		c-0.461,0-0.884,0-1.303,0c0,0.302,0,0.572,0,0.855C13.441,19.559,13.854,19.559,14.301,19.559z M17.512,18.697
		c0,0.313,0,0.585,0,0.838c0.461,0,0.883,0,1.313,0c0-0.295,0-0.553,0-0.838C18.375,18.697,17.954,18.697,17.512,18.697z
		 M19.73,19.546c0.459,0,0.881,0,1.318,0c0-0.296,0-0.565,0-0.851c-0.449,0-0.872,0-1.318,0C19.73,18.979,19.73,19.236,19.73,19.546
		z M14.296,21.357c0-0.325,0-0.597,0-0.852c-0.466,0-0.888,0-1.294,0c0,0.309,0,0.577,0,0.852
		C13.45,21.357,13.861,21.357,14.296,21.357z M15.209,21.334c0.48,0,0.913,0,1.335,0c0-0.301,0-0.561,0-0.818
		c-0.461,0-0.894,0-1.335,0C15.209,20.805,15.209,21.048,15.209,21.334z M18.809,21.357c0-0.289,0-0.571,0-0.855
		c-0.455,0-0.877,0-1.305,0c0,0.303,0,0.571,0,0.855C17.947,21.357,18.357,21.357,18.809,21.357z M19.717,21.334
		c0.481,0,0.915,0,1.336,0c0-0.301,0-0.561,0-0.818c-0.461,0-0.894,0-1.336,0C19.717,20.805,19.717,21.048,19.717,21.334z
		 M15.218,19.539c0.479,0,0.902,0,1.315,0c0-0.305,0-0.575,0-0.836c-0.458,0-0.881,0-1.315,0
		C15.218,18.995,15.218,19.253,15.218,19.539z"/>
	<path d="M10.275,18.645c-2.756,0-5.421,0-8.11,0c0-5.095,0-10.165,0-15.284c0.728,0,1.454,0,2.229,0
		C4.41,3.04,4.423,2.764,4.438,2.465c2.384,0,4.746,0,7.127,0c0.015,0.288,0.028,0.549,0.044,0.86c0.744,0,1.468,0,2.225,0
		c0,0.924,0,1.798,0,2.722c-0.443,0-0.869,0-1.32,0c-0.017,0.311-0.03,0.574-0.046,0.88c-0.715,0-1.427,0-2.193,0
		C10.275,10.851,10.275,14.73,10.275,18.645z M6.191,6.007c0.475,0,0.91,0,1.337,0c0-0.297,0-0.557,0-0.825c-0.457,0-0.89,0-1.337,0
		C6.191,5.467,6.191,5.713,6.191,6.007z M8.474,6.009c0.479,0,0.9,0,1.331,0c0-0.294,0-0.552,0-0.832c-0.458,0-0.893,0-1.331,0
		C8.474,5.471,8.474,5.73,8.474,6.009z M10.7,6.004c0.48,0,0.914,0,1.335,0c0-0.301,0-0.56,0-0.819c-0.461,0-0.894,0-1.335,0
		C10.7,5.473,10.7,5.718,10.7,6.004z M5.278,7.831c0-0.324,0-0.593,0-0.85c-0.464,0-0.887,0-1.295,0c0,0.307,0,0.577,0,0.85
		C4.432,7.831,4.842,7.831,5.278,7.831z M7.528,6.986c-0.458,0-0.892,0-1.323,0c0,0.299,0,0.557,0,0.823c0.464,0,0.898,0,1.323,0
		C7.528,7.512,7.528,7.252,7.528,6.986z M8.49,6.963c0,0.321,0,0.591,0,0.851c0.459,0,0.881,0,1.3,0c0-0.306,0-0.575,0-0.851
		C9.339,6.963,8.929,6.963,8.49,6.963z M5.293,8.775c-0.459,0-0.881,0-1.32,0c0,0.296,0,0.566,0,0.851c0.45,0,0.872,0,1.32,0
		C5.293,9.343,5.293,9.085,5.293,8.775z M7.531,8.787c-0.479,0-0.9,0-1.329,0c0,0.295,0,0.552,0,0.83c0.459,0,0.893,0,1.329,0
		C7.531,9.322,7.531,9.063,7.531,8.787z M9.805,8.777c-0.466,0-0.889,0-1.32,0c0,0.299,0,0.569,0,0.846c0.453,0,0.875,0,1.32,0
		C9.805,9.337,9.805,9.08,9.805,8.777z M5.281,11.439c0-0.29,0-0.572,0-0.857c-0.455,0-0.877,0-1.304,0c0,0.3,0,0.571,0,0.857
		C4.42,11.439,4.831,11.439,5.281,11.439z M7.522,11.437c0-0.307,0-0.578,0-0.856c-0.452,0-0.874,0-1.312,0c0,0.298,0,0.568,0,0.856
		C6.654,11.437,7.064,11.437,7.522,11.437z M9.815,10.591c-0.476,0-0.909,0-1.337,0c0,0.298,0,0.557,0,0.825
		c0.457,0,0.891,0,1.337,0C9.815,11.131,9.815,10.885,9.815,10.591z M5.283,13.244c0-0.32,0-0.591,0-0.855c-0.46,0-0.883,0-1.303,0
		c0,0.302,0,0.572,0,0.855C4.424,13.244,4.835,13.244,5.283,13.244z M6.204,12.381c0,0.313,0,0.57,0,0.84c0.462,0,0.897,0,1.324,0
		c0-0.297,0-0.557,0-0.84C7.083,12.381,6.661,12.381,6.204,12.381z M8.477,12.383c0,0.309,0,0.567,0,0.838c0.457,0,0.89,0,1.325,0
		c0-0.297,0-0.556,0-0.838C9.354,12.383,8.932,12.383,8.477,12.383z M5.281,15.046c0-0.289,0-0.571,0-0.856
		c-0.455,0-0.877,0-1.304,0c0,0.302,0,0.571,0,0.856C4.42,15.046,4.831,15.046,5.281,15.046z M7.532,14.195c-0.479,0-0.9,0-1.33,0
		c0,0.295,0,0.554,0,0.832c0.458,0,0.892,0,1.33,0C7.532,14.734,7.532,14.475,7.532,14.195z M9.798,15.038c0-0.32,0-0.579,0-0.854
		c-0.454,0-0.875,0-1.317,0c0,0.297,0,0.566,0,0.854C8.931,15.038,9.353,15.038,9.798,15.038z M3.962,16.836
		c0.472,0,0.894,0,1.321,0c0-0.303,0-0.572,0-0.842c-0.459,0-0.881,0-1.321,0C3.962,16.283,3.962,16.542,3.962,16.836z M5.293,5.168
		c-0.459,0-0.881,0-1.32,0c0,0.296,0,0.566,0,0.851c0.45,0,0.872,0,1.32,0C5.293,5.736,5.293,5.478,5.293,5.168z M9.803,15.989
		c-0.459,0-0.882,0-1.32,0c0,0.296,0,0.565,0,0.851c0.45,0,0.872,0,1.32,0C9.803,16.557,9.803,16.3,9.803,15.989z M7.535,15.997
		c-0.475,0-0.896,0-1.32,0c0,0.305,0,0.573,0,0.838c0.462,0,0.884,0,1.32,0C7.535,16.544,7.535,16.284,7.535,15.997z"/>
	<path fill="#D80117" d="M17.463,4.241c0,0.292,0,0.521,0,0.754c-0.404-0.432-0.797-0.847-1.199-1.275
		c0.334-0.306,0.758-0.694,1.19-1.09c0.009,0.167,0.019,0.4,0.034,0.71c0.521,0,1.048-0.001,1.572,0
		c1.021,0.003,1.535,0.514,1.543,1.53c0.004,0.366,0.002,0.732,0.002,1.137c-0.277,0-0.532,0-0.857,0c0-0.373,0-0.75,0-1.126
		c0-0.417-0.161-0.659-0.624-0.643C18.592,4.255,18.063,4.241,17.463,4.241z"/>
	<path fill="#D80117" d="M7.564,21.374c0-0.298,0-0.524,0-0.729c0.404,0.41,0.806,0.818,1.219,1.236
		c-0.353,0.329-0.774,0.723-1.207,1.125c-0.012-0.188-0.027-0.425-0.046-0.729c-0.539,0-1.082,0.004-1.626,0
		C4.95,22.27,4.428,21.748,4.42,20.792c-0.003-0.382,0-0.765,0-1.185c0.281,0,0.536,0,0.856,0c0,0.381,0,0.759,0,1.137
		c-0.001,0.422,0.172,0.652,0.631,0.636C6.437,21.359,6.968,21.374,7.564,21.374z"/>
</g>
</svg>
