<?xml version="1.0" encoding="utf-8"?>
<!-- Generator: Adobe Illustrator 16.0.0, SVG Export Plug-In . SVG Version: 6.00 Build 0)  -->
<!DOCTYPE svg PUBLIC "-//W3C//DTD SVG 1.1//EN" "http://www.w3.org/Graphics/SVG/1.1/DTD/svg11.dtd">
<svg version="1.1" id="Layer_1" xmlns="http://www.w3.org/2000/svg" xmlns:xlink="http://www.w3.org/1999/xlink" x="0px" y="0px"
	 width="25px" height="25px" viewBox="0 0 25 25" enable-background="new 0 0 25 25" xml:space="preserve">
<g>
	<path fill-rule="evenodd" clip-rule="evenodd" fill="#CF0005" d="M18.871,0.934c-0.152,0.426-0.293,0.856-0.454,1.279
		c-0.309,0.815-0.671,1.616-0.935,2.444c-0.265,0.82-0.694,1.566-0.958,2.382c-0.077,0.247-0.191,0.251-0.353,0.046
		c-0.296-0.381-0.594-0.762-0.866-1.16c-0.135-0.193-0.245-0.219-0.433-0.087c-0.602,0.425-1.201,0.856-1.818,1.258
		c-1.475,0.96-3.012,1.798-4.656,2.437c-1.089,0.422-2.208,0.713-3.348,0.941c-0.568,0.114-1.059-0.085-1.391-0.567
		C3.389,9.511,3.383,8.995,3.67,8.567c0.186-0.273,0.431-0.475,0.774-0.531c1.346-0.22,2.646-0.61,3.878-1.195
		c0.819-0.389,1.642-0.777,2.422-1.238c0.915-0.544,1.784-1.168,2.676-1.75c0.175-0.113,0.175-0.22,0.063-0.375
		c-0.302-0.408-0.602-0.818-0.889-1.237c-0.197-0.287-0.161-0.363,0.193-0.42c1.524-0.244,3.046-0.481,4.57-0.723
		c0.483-0.077,0.967-0.158,1.449-0.237C18.828,0.886,18.851,0.91,18.871,0.934z"/>
	<path fill-rule="evenodd" clip-rule="evenodd" d="M6.7,22.175c0,0.979-0.795,1.774-1.775,1.774H4.576
		c-0.98,0-1.775-0.795-1.775-1.774v-5.809c0-0.98,0.795-1.776,1.775-1.776h0.349c0.98,0,1.775,0.796,1.775,1.776V22.175z"/>
	<path fill-rule="evenodd" clip-rule="evenodd" d="M11.98,22.135c0,0.979-0.795,1.774-1.775,1.774H9.856
		c-0.98,0-1.776-0.796-1.776-1.774v-8.929c0-0.98,0.796-1.775,1.776-1.775h0.349c0.98,0,1.775,0.795,1.775,1.775V22.135z"/>
	<path fill-rule="evenodd" clip-rule="evenodd" d="M17.3,22.135c0,0.979-0.794,1.774-1.774,1.774h-0.35
		c-0.98,0-1.775-0.796-1.775-1.774V10.867c0-0.98,0.795-1.776,1.775-1.776h0.35c0.98,0,1.774,0.795,1.774,1.776V22.135z"/>
	<path fill-rule="evenodd" clip-rule="evenodd" d="M22.099,22.135c0,0.979-0.795,1.774-1.775,1.774h-0.35
		c-0.979,0-1.774-0.796-1.774-1.774V6.068c0-0.98,0.795-1.776,1.774-1.776h0.35c0.98,0,1.775,0.796,1.775,1.776V22.135z"/>
</g>
</svg>
