<?xml version="1.0" encoding="utf-8"?>
<!-- Generator: Adobe Illustrator 16.0.0, SVG Export Plug-In . SVG Version: 6.00 Build 0)  -->
<!DOCTYPE svg PUBLIC "-//W3C//DTD SVG 1.1//EN" "http://www.w3.org/Graphics/SVG/1.1/DTD/svg11.dtd">
<svg version="1.1" id="Layer_1" xmlns="http://www.w3.org/2000/svg" xmlns:xlink="http://www.w3.org/1999/xlink" x="0px" y="0px"
	 width="25px" height="25px" viewBox="0 0 25 25" enable-background="new 0 0 25 25" xml:space="preserve">
<g>
	<path fill-rule="evenodd" clip-rule="evenodd" fill="#00AA30" d="M15.433,21.035c0.551,0,1.235-0.563,1.521-0.861l0.009-0.008
		c1.391-1.496,2.798-3.021,4.159-4.496c0.868-0.941,1.767-1.914,2.651-2.871c0.044-0.047,0.097-0.111,0.152-0.179
		c0.014-0.017,0.027-0.032,0.042-0.05c-0.037-0.039-0.072-0.078-0.106-0.115c-0.03-0.033-0.059-0.064-0.086-0.095
		c-0.883-0.953-1.778-1.924-2.646-2.862c-1.377-1.493-2.801-3.036-4.208-4.547c-0.042-0.045-0.087-0.092-0.138-0.141l-0.025-0.026
		l-0.022-0.03c-0.265-0.367-0.542-0.619-0.802-0.728l-0.03-0.013l-0.03-0.01c-0.077-0.026-0.149-0.038-0.223-0.038
		c-0.05,0-0.1,0.006-0.149,0.018c-0.021,0.005-0.043,0.012-0.065,0.02l-0.07,0.024h-0.007c-0.002,0.002-0.013,0.009-0.013,0.009
		c-0.482,0.328-0.741,0.643-0.771,0.938c-0.03,0.315,0.187,0.714,0.648,1.183c0.569,0.58,1.14,1.159,1.71,1.739
		c0.761,0.773,1.521,1.546,2.281,2.32c0.096,0.097,0.187,0.193,0.313,0.327c0.067,0.071,0.145,0.152,0.237,0.249l0.717,0.75h-1.913
		c-1.323,0-2.669,0-3.97,0.001c-1.331,0.001-2.707,0.001-4.061,0.001c-3.237,0-5.713-0.003-8.03-0.014l-0.019,0
		c-0.758,0-1.176,0.193-1.456,0.682v0.624c0.155,0.293,0.35,0.489,0.607,0.614c0.263,0.129,0.599,0.189,1.057,0.189l0,0
		c0.013,0,0.025,0,0.037,0c2.243-0.016,4.631-0.021,7.745-0.021c1.357,0,2.736,0,4.072,0.002c1.335,0,2.715,0.002,4.072,0.002h1.844
		l-0.709,0.748c-0.099,0.105-0.181,0.193-0.253,0.27c-0.134,0.143-0.23,0.244-0.331,0.348c-0.454,0.463-0.917,0.932-1.363,1.387
		c-0.932,0.945-1.895,1.924-2.836,2.889c-0.455,0.467-0.518,1.035-0.159,1.447c0.007,0.006,0.012,0.012,0.019,0.02l0,0l0.118,0.109
		l0.002,0.002l0.007,0.006c0.042,0.039,0.086,0.072,0.131,0.098C15.195,21.006,15.307,21.035,15.433,21.035z"/>
	<g>
		<circle fill-rule="evenodd" clip-rule="evenodd" fill="#FFFFFF" cx="8.041" cy="12.705" r="5.549"/>
		<path fill="#00AA30" d="M8.041,18.752c-3.335,0-6.049-2.713-6.049-6.047c0-3.335,2.714-6.049,6.049-6.049s6.049,2.713,6.049,6.049
			C14.09,16.039,11.376,18.752,8.041,18.752z M8.041,7.656c-2.784,0-5.049,2.265-5.049,5.049c0,2.783,2.265,5.047,5.049,5.047
			s5.049-2.265,5.049-5.047C13.09,9.921,10.825,7.656,8.041,7.656z"/>
	</g>
</g>
<g>
	<path fill="#00AA30" d="M10.978,13.204H5.608c-0.276,0-0.5-0.224-0.5-0.5s0.224-0.5,0.5-0.5h5.369c0.276,0,0.5,0.224,0.5,0.5
		S11.254,13.204,10.978,13.204z"/>
</g>
<g>
	<path fill="#00AA30" d="M8.293,15.889c-0.276,0-0.5-0.224-0.5-0.5V10.02c0-0.276,0.224-0.5,0.5-0.5s0.5,0.224,0.5,0.5v5.369
		C8.793,15.665,8.569,15.889,8.293,15.889z"/>
</g>
</svg>
