<?xml version="1.0" encoding="utf-8"?>
<!-- Generator: Adobe Illustrator 16.0.0, SVG Export Plug-In . SVG Version: 6.00 Build 0)  -->
<!DOCTYPE svg PUBLIC "-//W3C//DTD SVG 1.1//EN" "http://www.w3.org/Graphics/SVG/1.1/DTD/svg11.dtd">
<svg version="1.1" id="Layer_1" xmlns="http://www.w3.org/2000/svg" xmlns:xlink="http://www.w3.org/1999/xlink" x="0px" y="0px"
	 width="315.346px" height="332.86px" viewBox="0 0 315.346 332.86" enable-background="new 0 0 315.346 332.86"
	 xml:space="preserve">
<g>
	<g id="Layer_1_1_">
		<g opacity="0.12">
			<path fill="none" d="M289.434,320.336c-85.119,0.289-170.229-0.295-255.344,0c-0.356-104.039,0.181-202.403-0.179-306.454
				c85.115-0.293,170.224-0.584,255.345-0.876C289.616,117.055,289.076,216.293,289.434,320.336z M186.208,169.983
				c0.29-5.372-0.962-11.015-5.131-15.493c-5.817-6.25-13.604-8.818-21.754-9.596c-7.686-0.722-14.311,2.37-18.749,8.813
				c-4.084,5.937-7.655,12.22-11.392,18.406c-4.422,7.332-8.44,14.943-13.257,22.012c-3.69,5.398-8.138,10.338-12.635,15.129
				c-7.449,7.936-16.582,13.76-25.698,19.576c-2.64,1.68-3.481,4.807-1.996,7.162c1.574,2.488,4.492,3.076,7.341,1.479
				c11.155-6.254,21.184-13.971,30.035-23.223c11.718-12.258,20.037-26.738,27.935-41.574c2.48-4.66,5.421-9.14,8.618-13.344
				c2.598-3.431,6.47-4.953,10.828-3.856c3.051,0.782,5.992,2.012,8.97,3.076c3.99,1.451,5.873,4.622,6.206,8.562
				c0.272,3.305,0.324,6.738-0.244,9.98c-2.477,14.17-9.042,26.764-16.301,38.883c-5.243,8.762-11.498,16.943-17.669,25.115
				c-7.682,10.162-16.389,19.426-26.703,27.041c-2.043,1.508-4.255,2.793-6.226,4.381c-2.182,1.768-2.618,4.303-1.359,6.361
				c1.372,2.271,4.106,3.145,6.676,1.986c1.44-0.654,2.798-1.525,4.11-2.41c7.554-5.064,14.493-10.936,20.503-17.713
				c6.27-7.051,12.229-14.418,17.777-22.049c5.361-7.367,10.426-15.016,14.876-22.951c4.007-7.17,7.182-14.84,10.403-22.424
				C184.447,186.112,186.368,178.567,186.208,169.983z M231.163,181.172c-0.16-16.786-2.479-29.456-7.816-41.45
				c-3.992-8.991-9.331-17.069-16.248-24.176c-5.779-5.968-12.409-10.646-19.767-14.326c-11.957-5.982-24.764-7.838-37.98-6.839
				c-7.343,0.545-14.378,2.563-20.917,6.017c-12.005,6.342-20.261,16.433-27.139,27.766c-5.558,9.169-10.65,18.616-16.316,27.715
				c-3.298,5.3-7.28,10.197-11.024,15.225c-1.41,1.898-1.931,3.895-0.879,6.01c1.044,2.078,3.125,2.967,5.217,2.451
				c1.566-0.389,3.134-1.541,4.26-2.756c6.457-6.988,11.227-15.145,16.021-23.288c5.02-8.551,9.818-17.255,15.303-25.493
				c7.929-11.901,18.288-20.754,33.091-22.815c16.286-2.27,31.359,1.128,44.758,10.692c13.562,9.686,21.709,23.168,25.986,39.082
				c3.233,12.056,3.7,24.296,1.934,36.632c-0.432,3.059-1.008,6.113-1.291,9.191c-0.207,2.385,1.542,4.596,3.87,5.064
				c2.248,0.438,4.121-0.391,5.236-2.41c0.64-1.158,1.209-2.459,1.387-3.748C229.836,192.323,230.7,184.932,231.163,181.172z
				 M158.233,80.779c7.396,0.253,18.229,1.796,28.679,5.925c14.805,5.846,26.341,15.599,34.903,28.779
				c9.444,14.548,13.99,30.866,16.077,47.944c0.459,3.784,0.902,7.569,1.41,11.344c0.334,2.461,1.91,3.811,4.264,4.164
				c2.349,0.361,4.162-0.674,4.909-2.861c0.531-1.602,0.795-3.412,0.653-5.084c-1.091-13.334-3.297-26.449-7.846-39.091
				c-4.535-12.609-10.878-24.162-20.089-34c-4.944-5.284-10.438-9.894-16.588-13.831c-6.916-4.437-14.338-7.624-22.108-9.839
				c-11.296-3.226-22.888-4.185-34.679-3.588c-15.321,0.787-28.812,6.136-40.696,15.583c-9.937,7.896-17.618,17.796-24.452,28.425
				c-3.91,6.078-7.925,12.081-11.957,18.084c-1.986,2.948-1.741,6.291,0.755,8.028c2.417,1.685,5.478,0.922,7.597-2.062
				c2.534-3.559,5.038-7.139,7.407-10.81c7.034-10.883,13.819-21.995,23.722-30.586c4.397-3.819,9.243-7.293,14.359-10.067
				C133.824,82.209,144.055,80.695,158.233,80.779z M209.986,174.592c-0.519-4.328-0.701-8.729-1.619-12.969
				c-1.767-8.145-4.964-15.726-10.102-22.399c-4.737-6.147-10.508-11.01-17.649-14.099c-4.76-2.068-9.766-3.21-14.964-3.581
				c-14.456-1.061-27.419,2.383-38.188,12.516c-6.824,6.417-11.342,14.459-15.823,22.521c-5.29,9.499-10.117,19.345-17.495,27.46
				c-3.76,4.123-8.198,7.68-12.559,11.205c-2.493,2.021-5.544,3.33-8.177,5.213c-2.67,1.922-3.309,4.656-1.959,6.842
				c1.466,2.385,4.208,3.201,7.125,1.813c6.199-2.959,11.874-6.756,16.919-11.4c10.474-9.617,17.438-21.762,24.129-34.073
				c3.561-6.553,7.003-13.191,11.928-18.86c9.424-10.854,21.574-14.266,35.467-12.732c8.008,0.884,14.762,4.404,20.232,10.168
				c6.777,7.146,10.563,15.928,11.649,25.604c1.83,16.408-2.588,31.166-12.995,44.057c-2.298,2.852-2.305,5.709,0.088,7.811
				c2.207,1.941,5.623,1.488,7.734-1.193C203.854,205.637,209.829,191.252,209.986,174.592z M157.684,47.263
				c-8.739-0.419-19,1.349-29.182,3.577c-9.704,2.128-18.771,5.993-27.032,11.516C90.053,69.989,81.598,80.291,75.343,92.45
				c-0.457,0.902-0.772,1.927-0.912,2.929c-0.419,2.972,0.737,4.846,3.406,5.77c1.995,0.69,4.371-0.437,5.748-2.701
				c1.236-2.043,2.472-4.078,3.732-6.106C92.456,84,98.742,76.749,106.916,71.191c9.541-6.476,20.229-9.941,31.414-11.811
				c12.813-2.144,25.745-2.967,38.651-0.571c11.668,2.164,22.622,6.296,32.659,12.69c8.447,5.375,15.951,11.799,21.642,20.183
				c0.693,1.017,1.653,2.115,2.748,2.528c1.364,0.535,3.155,0.899,4.446,0.433c1.67-0.604,3.232-2.16,2.784-4.248
				c-0.415-1.937-1.071-3.983-2.199-5.587c-9.349-13.328-22.22-22.312-36.799-28.984C188.694,49.618,174.39,46.764,157.684,47.263z
				 M237.949,214.922c-0.011-0.045-0.021-0.098-0.036-0.148c-3.535,0.504-7.088,0.904-10.597,1.52
				c-12.074,2.115-23.346,6.488-34.241,12.023c-12.262,6.209-23.487,13.957-33.87,22.875c-9.735,8.346-18.479,17.695-25.796,28.254
				c-2.532,3.643-4.929,7.416-6.983,11.332c-1.587,3.023-0.592,6.094,1.745,7.32c2.432,1.275,5.185,0.344,7.132-2.475
				c3.655-5.279,7.113-10.713,10.967-15.842c9.101-12.107,20.249-22.127,32.572-30.824c9.625-6.783,19.836-12.549,30.865-16.826
				c9.546-3.709,19.307-6.297,29.592-6.729c1.099-0.051,2.229-0.166,3.296-0.443c2.349-0.621,3.799-2.621,3.731-4.92
				c-0.077-2.553-1.561-4.391-4.104-4.83C240.826,214.956,239.377,215.008,237.949,214.922z M92.501,262.668
				c0.831-0.291,2.319-0.627,3.632-1.301c8.948-4.639,16.96-10.703,24.306-17.496c10.999-10.178,20.368-21.762,28.211-34.602
				c6.708-10.979,11.989-22.521,15.301-34.959c0.683-2.586-1.317-5.838-3.959-6.338c-3.208-0.602-5.188,0.938-6.356,4.242
				c-2.42,6.871-4.547,13.91-7.729,20.42c-5.264,10.791-11.908,20.756-19.688,29.969c-9.457,11.199-19.975,21.102-32.88,28.254
				c-1.453,0.805-2.997,1.529-4.266,2.574c-1.747,1.439-2.716,3.375-1.907,5.713C87.911,261.305,89.546,262.436,92.501,262.668z
				 M239.999,245.065c0.019-3.566-2.706-5.861-6.787-4.877c-7.535,1.811-15.131,3.627-22.404,6.279
				c-13.14,4.795-25.06,11.904-35.992,20.703c-10.626,8.525-18.933,18.725-23.574,31.662c-0.824,2.285-1.325,4.676,0.522,6.762
				c2.829,3.186,7.709,1.674,9.234-3.047c2.65-8.232,7.538-14.988,13.474-21.066c6.246-6.398,13.357-11.703,21.135-16.131
				c12.57-7.164,25.627-12.971,40.08-15.148C238.43,249.79,239.983,247.848,239.999,245.065z M159.928,25.115
				c-6.554,0.583-11.129,0.647-15.555,1.481c-5.507,1.029-11.256,1.544-16.147,4.641c-1.138,0.716-2.26,2.138-2.522,3.422
				c-0.887,4.34,2.397,6.919,6.659,5.631c4.095-1.234,8.199-2.687,12.403-3.284c10.687-1.512,21.381-1.277,31.989,0.899
				c0.746,0.156,1.608,0.173,2.328-0.042c2.101-0.622,3.359-1.975,3.409-4.313c0.057-2.872-0.925-4.89-3.641-5.401
				C171.943,26.85,164.955,25.902,159.928,25.115z M215.797,270.483c-0.372,0.064-1.325,0.172-2.253,0.371
				c-5.725,1.207-10.572,4.162-15.153,7.646c-6.244,4.779-10.813,10.91-14.116,17.984c-1.261,2.707-0.068,5.852,2.31,6.971
				c2.464,1.15,5.144,0.215,6.772-2.301c1.978-3.053,3.83-6.188,6.017-9.094c3.864-5.145,8.901-8.723,15.088-10.666
				c1.793-0.564,3.625-1.24,5.173-2.27c2.07-1.381,2.204-3.584,1.399-5.771C220.257,271.225,218.626,270.292,215.797,270.483z"/>
			<path d="M186.208,169.983c0.159,8.584-1.763,16.129-4.833,23.33c-3.225,7.586-6.396,15.254-10.404,22.422
				c-4.449,7.939-9.515,15.592-14.875,22.951c-5.55,7.635-11.51,15.002-17.776,22.053c-6.015,6.777-12.956,12.645-20.506,17.713
				c-1.313,0.885-2.669,1.754-4.109,2.41c-2.568,1.164-5.304,0.291-6.675-1.982c-1.262-2.059-0.825-4.594,1.36-6.361
				c1.966-1.594,4.182-2.875,6.227-4.387c10.313-7.617,19.02-16.871,26.7-27.043c6.174-8.164,12.425-16.354,17.671-25.115
				c7.261-12.121,13.822-24.711,16.303-38.881c0.565-3.244,0.513-6.676,0.243-9.977c-0.331-3.94-2.218-7.115-6.209-8.562
				c-2.973-1.063-5.916-2.294-8.966-3.078c-4.359-1.104-8.229,0.419-10.83,3.859c-3.195,4.204-6.133,8.683-8.617,13.341
				c-7.896,14.828-16.22,29.314-27.936,41.57c-8.85,9.264-18.878,16.971-30.035,23.227c-2.848,1.594-5.765,1.01-7.34-1.48
				c-1.486-2.359-0.645-5.48,1.997-7.16c9.12-5.816,18.25-11.641,25.697-19.578c4.497-4.787,8.948-9.729,12.635-15.127
				c4.813-7.064,8.836-14.684,13.258-22.014c3.732-6.182,7.309-12.473,11.393-18.407c4.438-6.443,11.066-9.532,18.748-8.813
				c8.151,0.78,15.937,3.346,21.752,9.599C185.246,158.968,186.498,164.611,186.208,169.983z"/>
			<path d="M231.163,181.172c-0.463,3.76-1.326,11.15-2.321,18.545c-0.175,1.289-0.747,2.594-1.385,3.75
				c-1.114,2.023-2.991,2.848-5.236,2.408c-2.326-0.469-4.077-2.684-3.868-5.063c0.284-3.078,0.858-6.135,1.289-9.193
				c1.771-12.34,1.304-24.576-1.938-36.631c-4.274-15.917-12.418-29.396-25.983-39.082c-13.399-9.564-28.468-12.962-44.757-10.692
				c-14.8,2.061-25.159,10.914-33.09,22.815c-5.486,8.244-10.284,16.942-15.305,25.493c-4.79,8.146-9.563,16.298-16.02,23.289
				c-1.128,1.215-2.699,2.365-4.259,2.756c-2.095,0.516-4.173-0.375-5.221-2.453c-1.051-2.115-0.527-4.109,0.883-6.01
				c3.745-5.027,7.725-9.926,11.023-15.224c5.668-9.099,10.761-18.545,16.317-27.715c6.88-11.333,15.134-21.424,27.14-27.766
				c6.539-3.454,13.573-5.472,20.916-6.017c13.22-1,26.021,0.856,37.979,6.839c7.354,3.679,13.983,8.358,19.768,14.326
				c6.919,7.112,12.253,15.186,16.248,24.176C228.688,151.716,231.002,164.383,231.163,181.172z"/>
			<path d="M158.233,80.779c-14.179-0.083-24.408,1.43-33.681,6.457c-5.116,2.77-9.961,6.248-14.359,10.067
				c-9.902,8.591-16.688,19.703-23.722,30.586c-2.369,3.671-4.874,7.251-7.407,10.81c-2.12,2.977-5.18,3.74-7.597,2.062
				c-2.5-1.738-2.741-5.08-0.755-8.028c4.029-6.003,8.047-12.006,11.957-18.084c6.833-10.617,14.515-20.526,24.452-28.424
				c11.885-9.446,25.375-14.792,40.696-15.583c11.794-0.596,23.383,0.363,34.677,3.588c7.772,2.217,15.195,5.406,22.11,9.839
				c6.149,3.936,11.639,8.546,16.588,13.831c9.211,9.838,15.554,21.391,20.088,34c4.55,12.643,6.761,25.757,7.847,39.092
				c0.142,1.67-0.122,3.49-0.653,5.082c-0.746,2.189-2.562,3.223-4.909,2.861c-2.354-0.359-3.93-1.703-4.264-4.164
				c-0.508-3.773-0.951-7.561-1.41-11.344c-2.087-17.078-6.632-33.396-16.077-47.943c-8.563-13.18-20.1-22.932-34.903-28.779
				C176.462,82.578,165.628,81.035,158.233,80.779z"/>
			<path d="M209.986,174.592c-0.156,16.664-6.133,31.045-16.266,43.904c-2.111,2.682-5.528,3.135-7.737,1.193
				c-2.39-2.109-2.384-4.957-0.086-7.813c10.411-12.891,14.829-27.646,12.996-44.057c-1.085-9.676-4.87-18.458-11.649-25.604
				c-5.469-5.765-12.223-9.285-20.23-10.168c-13.896-1.534-26.047,1.878-35.467,12.732c-4.922,5.666-8.368,12.308-11.931,18.861
				c-6.689,12.311-13.651,24.456-24.128,34.073c-5.044,4.637-10.72,8.441-16.92,11.398c-2.917,1.391-5.657,0.572-7.125-1.811
				c-1.347-2.188-0.708-4.924,1.96-6.844c2.632-1.883,5.686-3.189,8.18-5.211c4.362-3.525,8.798-7.082,12.558-11.207
				c7.378-8.113,12.204-17.956,17.498-27.459c4.479-8.062,8.998-16.104,15.819-22.521c10.769-10.133,23.734-13.577,38.19-12.516
				c5.198,0.371,10.2,1.513,14.962,3.581c7.145,3.089,12.912,7.951,17.649,14.099c5.14,6.678,8.335,14.254,10.103,22.398
				C209.284,165.862,209.47,170.26,209.986,174.592z"/>
			<path d="M157.684,47.263c16.704-0.499,31.005,2.355,44.578,8.56c14.583,6.672,27.455,15.656,36.805,28.984
				c1.126,1.604,1.779,3.648,2.199,5.587c0.442,2.088-1.117,3.643-2.79,4.248c-1.286,0.466-3.079,0.104-4.445-0.433
				c-1.093-0.413-2.056-1.511-2.746-2.528c-5.689-8.384-13.193-14.807-21.645-20.183c-10.033-6.394-20.99-10.526-32.655-12.69
				c-12.91-2.394-25.838-1.572-38.652,0.571c-11.187,1.867-21.872,5.336-31.415,11.811c-8.173,5.557-14.458,12.805-19.598,21.151
				c-1.263,2.029-2.495,4.063-3.731,6.106c-1.378,2.265-3.755,3.391-5.748,2.701c-2.672-0.924-3.828-2.798-3.408-5.77
				c0.142-1.002,0.456-2.027,0.915-2.929c6.255-12.16,14.714-22.461,26.125-30.094c8.26-5.523,17.327-9.387,27.033-11.516
				C138.685,48.611,148.945,46.841,157.684,47.263z"/>
			<path d="M237.949,214.922c1.428,0.084,2.876,0.037,4.274,0.275c2.543,0.441,4.026,2.277,4.104,4.832
				c0.067,2.299-1.383,4.297-3.731,4.918c-1.066,0.279-2.197,0.398-3.296,0.443c-10.285,0.434-20.045,3.021-29.592,6.732
				c-11.021,4.273-21.239,10.041-30.865,16.824c-12.324,8.697-23.468,18.717-32.575,30.822c-3.852,5.131-7.311,10.561-10.965,15.842
				c-1.945,2.816-4.697,3.752-7.132,2.473c-2.339-1.229-3.333-4.297-1.745-7.32c2.051-3.916,4.451-7.689,6.983-11.33
				c7.319-10.559,16.061-19.908,25.793-28.254c10.385-8.918,21.608-16.66,33.867-22.875c10.9-5.529,22.173-9.9,34.247-12.023
				c3.509-0.613,7.063-1.014,10.597-1.52C237.929,214.825,237.939,214.877,237.949,214.922z"/>
			<path d="M92.501,262.668c-2.952-0.234-4.59-1.365-5.343-3.527c-0.809-2.338,0.159-4.27,1.911-5.709
				c1.271-1.047,2.813-1.773,4.264-2.574c12.904-7.154,23.426-17.061,32.883-28.258c7.777-9.213,14.422-19.178,19.684-29.969
				c3.184-6.512,5.313-13.549,7.734-20.42c1.164-3.309,3.146-4.844,6.354-4.244c2.644,0.498,4.644,3.754,3.957,6.336
				c-3.307,12.445-8.589,23.984-15.299,34.967c-7.842,12.836-17.21,24.418-28.211,34.598c-7.345,6.791-15.356,12.85-24.302,17.49
				C94.821,262.042,93.332,262.377,92.501,262.668z"/>
			<path d="M239.999,245.065c-0.019,2.783-1.57,4.719-4.317,5.141c-14.446,2.178-27.507,7.984-40.08,15.145
				c-7.776,4.432-14.886,9.729-21.136,16.131c-5.933,6.082-10.825,12.836-13.473,21.068c-1.523,4.719-6.404,6.232-9.236,3.045
				c-1.845-2.086-1.342-4.477-0.521-6.762c4.642-12.938,12.947-23.135,23.573-31.658c10.934-8.801,22.854-15.908,35.992-20.707
				c7.272-2.65,14.87-4.469,22.406-6.279C237.296,239.204,240.018,241.502,239.999,245.065z"/>
			<path d="M159.928,25.115c5.034,0.788,12.015,1.735,18.924,3.036c2.716,0.511,3.698,2.53,3.641,5.401
				c-0.05,2.338-1.31,3.69-3.409,4.313c-0.72,0.215-1.583,0.198-2.328,0.042c-10.608-2.177-21.31-2.411-31.989-0.899
				c-4.204,0.597-8.309,2.047-12.403,3.284c-4.262,1.288-7.546-1.292-6.659-5.631c0.267-1.282,1.386-2.706,2.522-3.422
				c4.892-3.093,10.641-3.609,16.147-4.641C148.798,25.762,153.374,25.698,159.928,25.115z"/>
			<path d="M215.797,270.483c2.83-0.191,4.462,0.742,5.239,2.869c0.809,2.189,0.674,4.393-1.395,5.771
				c-1.549,1.029-3.388,1.709-5.176,2.271c-6.185,1.947-11.223,5.521-15.09,10.664c-2.185,2.908-4.037,6.049-6.017,9.094
				c-1.626,2.516-4.307,3.453-6.771,2.301c-2.383-1.117-3.568-4.262-2.309-6.971c3.301-7.074,7.868-13.205,14.114-17.982
				c4.581-3.49,9.434-6.439,15.154-7.648C214.472,270.653,215.425,270.547,215.797,270.483z"/>
		</g>
	</g>
</g>
</svg>
