<?xml version="1.0" encoding="utf-8"?>
<!-- Generator: Adobe Illustrator 16.0.0, SVG Export Plug-In . SVG Version: 6.00 Build 0)  -->
<!DOCTYPE svg PUBLIC "-//W3C//DTD SVG 1.1//EN" "http://www.w3.org/Graphics/SVG/1.1/DTD/svg11.dtd">
<svg version="1.1" id="Layer_1" xmlns="http://www.w3.org/2000/svg" xmlns:xlink="http://www.w3.org/1999/xlink" x="0px" y="0px"
	 width="30px" height="30px" viewBox="0 0 30 30" enable-background="new 0 0 30 30" xml:space="preserve">
<g>
	<path fill="none" stroke="#0071BC" stroke-width="0.5" stroke-miterlimit="10" d="M13.765,19.762
		c0.35-0.593,0.493-1.195,0.484-1.844c0.479,0,0.93,0,1.392,0c0.094,0.611,0.043,1.256,0.409,1.864
		c0.111-0.185,0.228-0.324,0.291-0.487c0.235-0.6,0.478-1.197,0.67-1.813c0.287-0.926,0.537-1.863,0.791-2.798
		c0.044-0.162,0.113-0.205,0.273-0.211c0.631-0.02,1.237,0.069,1.821,0.312c0.321,0.134,0.643,0.265,0.975,0.381
		c0.518,0.183,0.961,0.497,1.406,0.803c0.059,0.042,0.101,0.137,0.111,0.211c0.226,1.936,0.45,3.875,0.67,5.811
		c0.008,0.107,0.023,0.218,0.037,0.345c-0.466,0.083-0.923,0.164-1.379,0.241c-1.367,0.229-2.738,0.475-4.109,0.681
		c-1.728,0.259-3.466,0.324-5.215,0.152c-1.847-0.183-3.646-0.586-5.433-1.06c-0.118-0.033-0.151-0.091-0.141-0.207
		c0.138-1.375,0.259-2.752,0.414-4.125c0.078-0.66,0.219-1.311,0.332-1.965c0.029-0.162,0.109-0.283,0.263-0.361
		c1.012-0.521,2.06-0.961,3.194-1.141c0.284-0.044,0.568-0.059,0.848-0.096c0.148-0.015,0.19,0.046,0.232,0.184
		c0.4,1.362,0.799,2.727,1.218,4.082C13.435,19.078,13.616,19.414,13.765,19.762z"/>
	<path fill="none" stroke="#0071BC" stroke-width="0.5" stroke-miterlimit="10" d="M10.146,6.683
		c-0.004-0.874,0.135-1.678,0.383-2.464c0.454-1.396,1.388-2.282,2.782-2.704c1.671-0.505,3.228-0.236,4.69,0.697
		c0.472,0.305,0.806,0.734,0.999,1.25c0.503,1.292,0.831,2.625,0.759,4.022c-0.059,1.039-0.501,1.968-0.934,2.895
		c-0.386,0.82-0.943,1.492-1.642,2.06c-1.578,1.285-3.369,1.215-4.836-0.197c-0.979-0.948-1.567-2.122-1.918-3.421
		C10.235,8.104,10.14,7.375,10.146,6.683z"/>
	<path fill="none" stroke="#0071BC" stroke-width="0.5" stroke-miterlimit="10" d="M5.588,19.864
		c-0.053,0.461-0.099,0.905-0.34,1.28c-0.104,0.164-0.282,0.31-0.46,0.392c-0.351,0.155-0.535,0.415-0.605,0.772
		c-0.021,0.127-0.062,0.256-0.055,0.381c0.003,0.129,0.014,0.273,0.078,0.381c0.249,0.437,0.625,0.756,1.046,1.021
		c0.917,0.583,1.937,0.898,2.988,1.134c2.391,0.539,4.82,0.672,7.26,0.641c2.282-0.026,4.533-0.297,6.755-0.836
		c0.864-0.211,1.722-0.469,2.487-0.938c0.287-0.169,0.558-0.385,0.77-0.637c0.551-0.651,0.299-1.642-0.478-1.979
		c-0.245-0.109-0.431-0.273-0.497-0.531c-0.089-0.336-0.152-0.676-0.239-1.062c0.175,0.032,0.282,0.048,0.396,0.076
		c1.3,0.335,2.469,0.919,3.439,1.849c0.928,0.885,0.943,2.041,0.079,2.981c-0.569,0.628-1.286,1.053-2.05,1.397
		c-1.467,0.67-3.02,1.067-4.596,1.354c-2.946,0.535-5.912,0.673-8.898,0.521c-1.745-0.086-3.478-0.27-5.187-0.633
		c-1.489-0.318-2.943-0.744-4.28-1.492c-0.615-0.346-1.178-0.75-1.619-1.308c-0.734-0.935-0.693-1.951,0.11-2.823
		c0.586-0.638,1.326-1.048,2.118-1.365c0.524-0.211,1.075-0.367,1.612-0.549C5.465,19.877,5.508,19.875,5.588,19.864z"/>
</g>
</svg>
