<?xml version="1.0" encoding="utf-8"?>
<!-- Generator: Adobe Illustrator 16.0.0, SVG Export Plug-In . SVG Version: 6.00 Build 0)  -->
<!DOCTYPE svg PUBLIC "-//W3C//DTD SVG 1.1//EN" "http://www.w3.org/Graphics/SVG/1.1/DTD/svg11.dtd">
<svg version="1.1" id="Layer_1" xmlns="http://www.w3.org/2000/svg" xmlns:xlink="http://www.w3.org/1999/xlink" x="0px" y="0px"
	 width="30px" height="30px" viewBox="0 0 30 30" enable-background="new 0 0 30 30" xml:space="preserve">
<g id="Layer_2_4_">
	<g>
		<g>
			<g>
				<path fill="none" stroke="#0071BC" stroke-width="0.5" stroke-miterlimit="10" d="M12.333,12.367
					c0.042-0.009,0.072-0.019,0.105-0.024c-0.033-0.042-0.064-0.086-0.105-0.128C12.333,12.268,12.332,12.316,12.333,12.367z"/>
				<g>
					<path fill="none" stroke="#0071BC" stroke-width="0.5" stroke-miterlimit="10" d="M10.204,10.414
						c-0.29,0.607-0.505,1.282-0.663,2.012c-0.025,0.128-0.052,0.259-0.078,0.386c-0.055,0.291-0.102,0.589-0.141,0.893
						c0.175-0.099,0.345-0.198,0.52-0.302c0.175-0.1,0.346-0.2,0.521-0.301c0.379-0.199,0.775-0.383,1.229-0.508
						c0.082-0.302,0.18-0.592,0.291-0.87c0.132-0.329,0.284-0.636,0.478-0.909c0.044,0.525-0.034,0.917-0.028,1.399
						c0.042,0.042,0.072,0.087,0.105,0.128c0.485-0.12,0.982-0.228,1.602-0.222c0.208-1.51,0.303-3.131,0.5-4.653
						C12.294,7.677,10.981,8.785,10.204,10.414z"/>
					<path fill="none" stroke="#0071BC" stroke-width="0.5" stroke-miterlimit="10" d="M20.513,13.618
						c-0.025-0.187-0.055-0.365-0.087-0.541c-0.033-0.172-0.065-0.336-0.101-0.503c-0.161-0.729-0.373-1.4-0.654-2.004
						c-0.816-1.746-2.198-2.899-4.491-3.119c0.133,1.604,0.353,3.119,0.512,4.69c0.594,0.037,1.065,0.2,1.566,0.326
						c0.086,0.024,0.17,0.046,0.263,0.065c-0.006-0.099-0.015-0.2-0.021-0.295c-0.045-0.487-0.125-0.932-0.125-1.462
						c0.253,0.282,0.438,0.634,0.589,1.014c0.126,0.33,0.228,0.676,0.31,1.05c0.121,0.063,0.257,0.128,0.392,0.196
						c0.497,0.253,1.043,0.539,1.44,0.834c0.178,0.135,0.289,0.438,0.485,0.314C20.569,13.992,20.546,13.802,20.513,13.618z"/>
				</g>
				<path fill="none" stroke="#0071BC" stroke-width="0.5" stroke-miterlimit="10" d="M17.601,4.216
					c-0.031-1.563-1.321-2.806-2.883-2.776c-1.561,0.03-2.806,1.323-2.774,2.882c0.028,1.562,1.316,2.806,2.883,2.778
					C16.387,7.068,17.632,5.778,17.601,4.216z"/>
			</g>
			<g>
				<g>
					<path fill="none" stroke="#0071BC" stroke-width="0.5" stroke-miterlimit="10" d="M3.236,19.584
						c0.412-0.715,0.744-2.177,1.382-2.842c-0.188-0.662-0.3-1.313-0.253-1.919c0.341,0.468,0.45,0.881,0.775,1.34
						c0.387-0.375,0.761-0.755,1.338-1.083c-0.602-1.402-1.348-2.842-1.962-4.25C1.636,12.938,1.456,15.913,3.236,19.584z"/>
					<path fill="none" stroke="#0071BC" stroke-width="0.5" stroke-miterlimit="10" d="M9.054,12.803
						c-0.141-0.181-0.273-0.37-0.405-0.591c0.157,0.051,0.304,0.118,0.454,0.196c0.107-0.74,0.272-1.428,0.514-2.056
						c-1.359-0.628-2.857-0.677-4.56,0.134c0.939,1.313,1.904,2.499,2.845,3.764c0.617-0.314,1.255-0.54,1.089-0.431
						C9.01,13.515,9.02,13.099,9.054,12.803z"/>
				</g>
				<path fill="none" stroke="#0071BC" stroke-width="0.5" stroke-miterlimit="10" d="M3.253,5.491c1.442,0,2.61,1.168,2.61,2.61
					c0,1.444-1.168,2.615-2.61,2.615S0.638,9.546,0.638,8.102C0.638,6.659,1.812,5.491,3.253,5.491z"/>
			</g>
			<g>
				<g>
					<path fill="none" stroke="#0071BC" stroke-width="0.5" stroke-miterlimit="10" d="M26.807,19.274
						c-0.413-0.715-0.752-1.452-1.386-2.117c0.18-0.664,0.288-1.313,0.242-1.918c-0.338,0.47-0.451,0.879-0.769,1.345
						c-0.38-0.375-0.765-0.75-1.343-1.08c0.597-1.41,1.341-2.848,1.947-4.259C28.385,13.342,28.53,16.156,26.807,19.274z"/>
					<path fill="none" stroke="#0071BC" stroke-width="0.5" stroke-miterlimit="10" d="M20.969,13.235
						c0.138-0.183,0.271-0.374,0.401-0.593c-0.156,0.052-0.302,0.122-0.451,0.198c-0.109-0.738-0.277-1.429-0.529-2.052
						c1.363-0.636,2.861-0.687,4.56,0.118c-0.93,1.31-1.888,2.5-2.83,3.771c-0.614-0.313-1.255-0.533-1.08-0.422
						C21.014,13.948,21.002,13.528,20.969,13.235z"/>
				</g>
				<path fill="none" stroke="#0071BC" stroke-width="0.5" stroke-miterlimit="10" d="M26.752,5.901c1.442,0,2.61,1.17,2.61,2.609
					c0,1.448-1.168,2.615-2.61,2.615c-1.438,0-2.612-1.167-2.612-2.615C24.14,7.071,25.313,5.901,26.752,5.901z"/>
			</g>
		</g>
		<path fill="none" stroke="#0071BC" stroke-width="0.5" stroke-miterlimit="10" d="M15.141,21.013l-2.885-2.271h5.466
			L15.141,21.013z M13.729,20.742l-1.726,1.899v-3.257L13.729,20.742z M14.249,21.155l0.915,0.72l0.842-0.741l1.737,1.918h-5.216
			L14.249,21.155z M16.503,20.693l1.492-1.312v2.964L16.503,20.693z"/>
		<path fill="none" stroke="#0071BC" stroke-width="0.5" stroke-miterlimit="10" d="M23.413,20.531h-1.458
			c-0.185-3.474-2.964-6.262-6.429-6.466v-1.568c0-0.203-0.165-0.368-0.373-0.368c-0.203,0-0.371,0.165-0.371,0.368v1.565
			c-3.504,0.167-6.318,2.968-6.506,6.469H6.589c-0.205,0-0.366,0.166-0.366,0.372c0,0.202,0.161,0.368,0.366,0.368h1.687
			c0.187,3.501,3.002,6.308,6.506,6.474v1.645c0,0.206,0.168,0.369,0.371,0.369c0.208,0,0.373-0.163,0.373-0.369V27.74
			c3.465-0.201,6.244-2.992,6.429-6.469h1.458c0.202,0,0.369-0.166,0.369-0.368C23.782,20.697,23.615,20.531,23.413,20.531z
			 M15.526,27.003v-1.334c0-0.201-0.165-0.366-0.373-0.366c-0.203,0-0.371,0.165-0.371,0.366v1.338
			c-3.098-0.167-5.582-2.639-5.771-5.735h1.294c0.21,0,0.375-0.166,0.375-0.368c0-0.206-0.164-0.372-0.375-0.372H9.012
			c0.188-3.091,2.676-5.566,5.771-5.733v1.422c0,0.201,0.168,0.368,0.371,0.368c0.208,0,0.373-0.167,0.373-0.368v-1.413
			c3.061,0.198,5.509,2.659,5.689,5.724h-1.52c-0.208,0-0.37,0.166-0.37,0.372c0,0.202,0.162,0.368,0.37,0.368h1.52
			C21.035,24.341,18.587,26.803,15.526,27.003z"/>
	</g>
</g>
</svg>
