<?xml version="1.0" encoding="utf-8"?>
<!-- Generator: Adobe Illustrator 16.0.0, SVG Export Plug-In . SVG Version: 6.00 Build 0)  -->
<!DOCTYPE svg PUBLIC "-//W3C//DTD SVG 1.1//EN" "http://www.w3.org/Graphics/SVG/1.1/DTD/svg11.dtd">
<svg version="1.1" id="Layer_1" xmlns="http://www.w3.org/2000/svg" xmlns:xlink="http://www.w3.org/1999/xlink" x="0px" y="0px"
	 width="25px" height="25px" viewBox="0 0 25 25" enable-background="new 0 0 25 25" xml:space="preserve">
<polygon fill="#00AA30" points="0.219,7.352 12.037,7.352 6.751,0.217 15.661,0.217 24.781,12.591 15.764,24.854 6.337,24.854 
	11.83,17.831 0.219,17.831 "/>
<circle fill="#FFFFFF" cx="6.191" cy="12.569" r="4.719"/>
<g>
	<g>
		<path fill="#00AA30" d="M6.212,17.644c-2.817,0-5.108-2.291-5.108-5.107s2.292-5.108,5.108-5.108c2.817,0,5.108,2.292,5.108,5.108
			S9.03,17.644,6.212,17.644z M6.212,8.555c-2.195,0-3.981,1.786-3.981,3.981s1.786,3.98,3.981,3.98c2.196,0,3.982-1.785,3.982-3.98
			S8.408,8.555,6.212,8.555z"/>
	</g>
	<g>
		<path fill="#00AA30" d="M5.489,15.599v-2.336H3.135v-1.611h2.354V9.316h1.57v2.335h2.359v1.611H7.059v2.336H5.489z"/>
	</g>
</g>
</svg>
