<?xml version="1.0" encoding="utf-8"?>
<!-- Generator: Adobe Illustrator 16.0.0, SVG Export Plug-In . SVG Version: 6.00 Build 0)  -->
<!DOCTYPE svg PUBLIC "-//W3C//DTD SVG 1.1//EN" "http://www.w3.org/Graphics/SVG/1.1/DTD/svg11.dtd">
<svg version="1.1" id="Layer_1" xmlns="http://www.w3.org/2000/svg" xmlns:xlink="http://www.w3.org/1999/xlink" x="0px" y="0px"
	 width="25px" height="25px" viewBox="0 0 25 25" enable-background="new 0 0 25 25" xml:space="preserve">
<g>
	<path fill-rule="evenodd" clip-rule="evenodd" fill="#FE433E" d="M9.567,21.035c-0.551,0-1.235-0.563-1.521-0.861l-0.009-0.008
		C6.647,18.67,5.24,17.145,3.879,15.67c-0.868-0.941-1.767-1.914-2.651-2.871c-0.044-0.047-0.097-0.111-0.152-0.179
		c-0.014-0.017-0.027-0.032-0.042-0.05c0.037-0.039,0.072-0.078,0.106-0.115c0.03-0.033,0.059-0.064,0.086-0.095
		c0.883-0.953,1.778-1.924,2.646-2.862c1.377-1.493,2.801-3.036,4.208-4.547C8.121,4.907,8.166,4.86,8.217,4.811l0.025-0.026
		l0.022-0.03c0.265-0.367,0.542-0.619,0.802-0.728l0.03-0.013l0.03-0.01C9.204,3.978,9.276,3.965,9.35,3.965
		c0.05,0,0.1,0.006,0.149,0.018c0.021,0.005,0.043,0.012,0.065,0.02l0.07,0.024h0.007c0.002,0.002,0.013,0.009,0.013,0.009
		c0.482,0.328,0.741,0.643,0.771,0.938c0.03,0.315-0.187,0.714-0.648,1.183c-0.569,0.58-1.14,1.159-1.71,1.739
		c-0.761,0.773-1.521,1.546-2.281,2.32C5.69,10.313,5.6,10.409,5.473,10.542c-0.067,0.071-0.145,0.152-0.237,0.249l-0.717,0.75
		h1.913c1.323,0,2.669,0,3.97,0.001c1.331,0.001,2.707,0.001,4.061,0.001c3.237,0,5.713-0.003,8.03-0.014l0.019,0
		c0.758,0,1.176,0.193,1.456,0.682v0.624c-0.155,0.293-0.35,0.489-0.607,0.614c-0.263,0.129-0.599,0.189-1.057,0.189l0,0
		c-0.013,0-0.025,0-0.037,0c-2.243-0.016-4.631-0.021-7.745-0.021c-1.357,0-2.736,0-4.072,0.002c-1.335,0-2.715,0.002-4.072,0.002
		H4.532l0.709,0.748c0.099,0.105,0.181,0.193,0.253,0.27c0.134,0.143,0.23,0.244,0.331,0.348c0.454,0.463,0.917,0.932,1.363,1.387
		c0.932,0.945,1.895,1.924,2.836,2.889c0.455,0.467,0.518,1.035,0.159,1.447c-0.007,0.006-0.012,0.012-0.019,0.02l0,0l-0.118,0.109
		l-0.002,0.002l-0.007,0.006c-0.042,0.039-0.086,0.072-0.131,0.098C9.805,21.006,9.693,21.035,9.567,21.035z"/>
	<g>
		<circle fill-rule="evenodd" clip-rule="evenodd" fill="#FFFFFF" cx="16.959" cy="12.705" r="5.549"/>
		<path fill="#FE433E" d="M16.959,18.752c-3.335,0-6.049-2.713-6.049-6.047c0-3.335,2.714-6.049,6.049-6.049
			s6.049,2.713,6.049,6.049C23.008,16.039,20.294,18.752,16.959,18.752z M16.959,7.656c-2.784,0-5.049,2.265-5.049,5.049
			c0,2.783,2.265,5.047,5.049,5.047s5.049-2.265,5.049-5.047C22.008,9.921,19.743,7.656,16.959,7.656z"/>
	</g>
</g>
<g>
	<path fill="#FE433E" d="M19.688,13.204H14.23c-0.276,0-0.5-0.224-0.5-0.5s0.224-0.5,0.5-0.5h5.457c0.276,0,0.5,0.224,0.5,0.5
		S19.964,13.204,19.688,13.204z"/>
</g>
</svg>
