<?xml version="1.0" encoding="utf-8"?>
<!-- Generator: Adobe Illustrator 16.0.0, SVG Export Plug-In . SVG Version: 6.00 Build 0)  -->
<!DOCTYPE svg PUBLIC "-//W3C//DTD SVG 1.1//EN" "http://www.w3.org/Graphics/SVG/1.1/DTD/svg11.dtd">
<svg version="1.1" id="Layer_1" xmlns="http://www.w3.org/2000/svg" xmlns:xlink="http://www.w3.org/1999/xlink" x="0px" y="0px"
	 width="28.75px" height="27.75px" viewBox="0 0 28.75 27.75" enable-background="new 0 0 28.75 27.75" xml:space="preserve">
<g>
	<path fill-rule="evenodd" clip-rule="evenodd" fill="#27AAE1" d="M17.557,25.918c-0.461-0.191-0.957-0.324-1.376-0.583
		c-1.041-0.646-1.983-0.669-2.994,0.01c-1.443,0.968-3.199,0.401-3.799-1.226c-0.416-1.125-1.229-1.717-2.419-1.758
		c-1.722-0.059-2.825-1.57-2.355-3.229c0.332-1.172,0.039-2.087-0.91-2.846c-1.379-1.103-1.372-2.926,0.011-4.017
		c0.915-0.72,1.224-1.643,0.921-2.775C4.156,7.712,5.18,6.31,7.028,6.212C8.195,6.15,8.974,5.571,9.385,4.479
		c0.627-1.669,2.342-2.223,3.814-1.236c0.969,0.65,1.983,0.65,2.959,0.001c1.477-0.982,3.199-0.431,3.821,1.23
		c0.415,1.11,1.202,1.685,2.39,1.741c1.787,0.083,2.832,1.524,2.367,3.24c-0.319,1.177-0.016,2.095,0.938,2.837
		c1.342,1.047,1.35,2.911,0.018,3.97c-1.014,0.808-1.305,1.706-0.947,2.937c0.451,1.549-0.641,3.089-2.273,3.156
		c-1.27,0.051-2.1,0.639-2.528,1.839c-0.362,1.013-1.302,1.643-2.345,1.626C17.584,25.852,17.571,25.885,17.557,25.918z"/>
	<circle fill-rule="evenodd" clip-rule="evenodd" fill="#FFFFFF" cx="14.68" cy="14.336" r="7.119"/>
	<polygon fill-rule="evenodd" clip-rule="evenodd" fill="#FFFFFF" points="14.912,4.473 15.252,5.163 16.014,5.274 15.463,5.812 
		15.593,6.57 14.912,6.212 14.23,6.57 14.36,5.812 13.809,5.274 14.571,5.163 	"/>
	<polygon fill-rule="evenodd" clip-rule="evenodd" fill="#FFFFFF" points="14.912,22.09 15.252,22.78 16.014,22.891 15.463,23.429 
		15.593,24.188 14.912,23.83 14.23,24.188 14.36,23.429 13.809,22.891 14.571,22.78 	"/>
	<polygon fill-rule="evenodd" clip-rule="evenodd" fill="#FFFFFF" points="20.667,6.326 20.54,7.086 21.093,7.621 20.332,7.735 
		19.995,8.427 19.651,7.739 18.887,7.632 19.437,7.092 19.303,6.333 19.987,6.688 	"/>
	<polygon fill-rule="evenodd" clip-rule="evenodd" fill="#FFFFFF" points="10.382,20.631 10.255,21.39 10.809,21.924 10.048,22.04 
		9.71,22.731 9.367,22.043 8.604,21.936 9.153,21.396 9.019,20.637 9.702,20.993 	"/>
	<polygon fill-rule="evenodd" clip-rule="evenodd" fill="#FFFFFF" points="24.255,11.19 23.709,11.733 23.846,12.491 23.162,12.139 
		22.485,12.504 22.607,11.744 22.049,11.212 22.811,11.094 23.145,10.4 23.493,11.087 	"/>
	<polygon fill-rule="evenodd" clip-rule="evenodd" fill="#FFFFFF" points="7.556,16.801 7.01,17.344 7.147,18.102 6.462,17.75 
		5.785,18.116 5.907,17.356 5.351,16.824 6.111,16.706 6.445,16.012 6.793,16.699 	"/>
	<polygon fill-rule="evenodd" clip-rule="evenodd" fill="#FFFFFF" points="24.331,17.235 23.571,17.357 23.24,18.052 22.889,17.368 
		22.125,17.268 22.668,16.723 22.528,15.965 23.214,16.314 23.89,15.946 23.772,16.706 	"/>
	<polygon fill-rule="evenodd" clip-rule="evenodd" fill="#FFFFFF" points="7.497,12.043 6.736,12.165 6.406,12.861 6.055,12.176 
		5.291,12.076 5.834,11.531 5.693,10.774 6.379,11.122 7.056,10.753 6.937,11.515 	"/>
	<polygon fill-rule="evenodd" clip-rule="evenodd" fill="#FFFFFF" points="20.864,22.187 20.175,21.842 19.5,22.213 19.616,21.453 
		19.054,20.926 19.813,20.801 20.14,20.104 20.495,20.788 21.258,20.883 20.718,21.431 	"/>
	<polygon fill-rule="evenodd" clip-rule="evenodd" fill="#FFFFFF" points="10.226,8.146 9.537,7.8 8.863,8.172 8.978,7.411 
		8.417,6.885 9.176,6.759 9.503,6.062 9.856,6.745 10.621,6.841 10.081,7.389 	"/>
	<g>
		<path d="M16.747,18.494l-1.992-2.975h-1.607v2.975h-2.045V9.199h4.25c1.106,0,1.967,0.27,2.583,0.81s0.923,1.292,0.923,2.257
			v0.026c0,0.752-0.184,1.366-0.551,1.839c-0.368,0.474-0.848,0.821-1.441,1.042l2.271,3.32H16.747z M16.787,12.373
			c0-0.442-0.142-0.774-0.425-0.996c-0.284-0.221-0.677-0.332-1.182-0.332h-2.032v2.669h2.072c0.504,0,0.892-0.12,1.162-0.358
			c0.27-0.239,0.405-0.558,0.405-0.956V12.373z"/>
	</g>
</g>
</svg>
