<?xml version="1.0" encoding="utf-8"?>
<!-- Generator: Adobe Illustrator 16.0.0, SVG Export Plug-In . SVG Version: 6.00 Build 0)  -->
<!DOCTYPE svg PUBLIC "-//W3C//DTD SVG 1.1 Tiny//EN" "http://www.w3.org/Graphics/SVG/1.1/DTD/svg11-tiny.dtd">
<svg version="1.1" baseProfile="tiny" id="Layer_1" xmlns="http://www.w3.org/2000/svg" xmlns:xlink="http://www.w3.org/1999/xlink"
	 x="0px" y="0px" width="20px" height="20px" viewBox="0 0 20 20" xml:space="preserve">
<path d="M17.14,4.76l-6.28-3.71c-0.47-0.28-1.25-0.28-1.72,0l-6.28,3.7C2.39,5.03,2,5.71,2,6.26v7.44c0,0.55,0.39,1.229,0.86,1.51
	l6.28,3.71c0.47,0.271,1.25,0.271,1.72,0l6.28-3.71C17.61,14.93,18,14.25,18,13.7V6.26C18,5.71,17.61,5.04,17.14,4.76z M13.89,15.04
	c-0.27,0.53-0.729,0.95-1.359,1.229c-0.641,0.29-1.41,0.431-2.31,0.431c-0.99,0-1.85-0.15-2.55-0.46
	c-0.71-0.311-1.104-0.73-1.365-1.26C6.035,14.45,6,13.64,6,12.57V12h3v0.76c0,0.7,0.19,1.15,0.271,1.351
	c0.09,0.21,0.33,0.31,0.59,0.31c0.28,0,0.504-0.07,0.614-0.2c0.11-0.14,0.188-0.439,0.188-0.88c0-0.62-0.062-1-0.201-1.16
	c-0.15-0.149-0.906-0.609-2.276-1.38c-1.16-0.64-1.857-1.23-2.107-1.76c-0.25-0.52-0.379-1.15-0.379-1.87
	c0-1.03,0.14-1.79,0.41-2.28c0.27-0.49,0.73-0.87,1.38-1.13c0.65-0.27,1.41-0.4,2.27-0.4c0.85,0,1.58,0.11,2.181,0.33
	c0.59,0.21,1.05,0.5,1.369,0.85c0.32,0.36,0.521,0.69,0.58,1C13.96,5.84,14,6.31,14,6.96V8h-3V7.01c0-0.59-0.27-0.97-0.34-1.13
	c-0.07-0.16-0.36-0.24-0.63-0.24c-0.22,0-0.44,0.07-0.55,0.22s-0.2,0.36-0.2,0.66c0,0.39,0.015,0.68,0.065,0.86
	c0.06,0.19,0.212,0.39,0.492,0.61c0.27,0.22,0.836,0.54,1.686,0.96c1.141,0.56,1.889,1.08,2.238,1.57
	c0.36,0.49,0.539,1.21,0.539,2.15C14.301,13.72,14.16,14.51,13.89,15.04z"/>
</svg>
