<?xml version="1.0" encoding="utf-8"?>
<!-- Generator: Adobe Illustrator 16.0.0, SVG Export Plug-In . SVG Version: 6.00 Build 0)  -->
<!DOCTYPE svg PUBLIC "-//W3C//DTD SVG 1.1//EN" "http://www.w3.org/Graphics/SVG/1.1/DTD/svg11.dtd">
<svg version="1.1" id="Layer_1" xmlns="http://www.w3.org/2000/svg" xmlns:xlink="http://www.w3.org/1999/xlink" x="0px" y="0px"
	 width="25px" height="25px" viewBox="0 0 25 25" enable-background="new 0 0 25 25" xml:space="preserve">
<g>
	<polygon fill="#00AA30" points="3.928,0.817 22.75,12.62 3.928,24.183 8.076,12.501 	"/>
	<circle fill="#FFFFFF" cx="7.338" cy="12.534" r="4.719"/>
	<g>
		<g>
			<path fill="#00AA30" d="M7.359,17.608c-2.817,0-5.108-2.291-5.108-5.107s2.292-5.108,5.108-5.108
				c2.817,0,5.108,2.292,5.108,5.108S10.176,17.608,7.359,17.608z M7.359,8.52c-2.195,0-3.981,1.786-3.981,3.981
				s1.786,3.98,3.981,3.98c2.196,0,3.982-1.785,3.982-3.98S9.555,8.52,7.359,8.52z"/>
		</g>
		<g>
			<path fill="#00AA30" d="M6.635,15.563v-2.336H4.282v-1.611h2.354V9.281h1.57v2.335h2.359v1.611H8.205v2.336H6.635z"/>
		</g>
	</g>
</g>
</svg>
