<?xml version="1.0" encoding="utf-8"?>
<!-- Generator: Adobe Illustrator 16.0.0, SVG Export Plug-In . SVG Version: 6.00 Build 0)  -->
<!DOCTYPE svg PUBLIC "-//W3C//DTD SVG 1.1//EN" "http://www.w3.org/Graphics/SVG/1.1/DTD/svg11.dtd">
<svg version="1.1" id="Layer_1" xmlns="http://www.w3.org/2000/svg" xmlns:xlink="http://www.w3.org/1999/xlink" x="0px" y="0px"
	 width="25px" height="25px" viewBox="0 0 25 25" enable-background="new 0 0 25 25" xml:space="preserve">
<g>
	<polygon fill="#FE433E" points="21.062,24.183 2.24,12.38 21.062,0.817 16.914,12.499 	"/>
	<circle fill="#FFFFFF" cx="17.652" cy="12.466" r="4.719"/>
	<g>
		<g>
			<g>
				<path fill="#FE433E" d="M17.652,17.642c2.817,0,5.108-2.291,5.108-5.107s-2.292-5.108-5.108-5.108
					c-2.817,0-5.109,2.292-5.109,5.108S14.834,17.642,17.652,17.642z M17.652,8.553c2.195,0,3.981,1.786,3.981,3.981
					s-1.786,3.98-3.981,3.98c-2.196,0-3.982-1.785-3.982-3.98S15.456,8.553,17.652,8.553z"/>
			</g>
		</g>
		<g>
			<path fill="#FE433E" d="M14.937,13.518v-1.937h5.805v1.937H14.937z"/>
		</g>
	</g>
</g>
</svg>
