<?xml version="1.0" encoding="utf-8"?>
<!-- Generator: Adobe Illustrator 16.0.0, SVG Export Plug-In . SVG Version: 6.00 Build 0)  -->
<!DOCTYPE svg PUBLIC "-//W3C//DTD SVG 1.1//EN" "http://www.w3.org/Graphics/SVG/1.1/DTD/svg11.dtd">
<svg version="1.1" id="Layer_1" xmlns="http://www.w3.org/2000/svg" xmlns:xlink="http://www.w3.org/1999/xlink" x="0px" y="0px"
	 width="200px" height="39.604px" viewBox="0 0 200 39.604" enable-background="new 0 0 200 39.604" xml:space="preserve">
<rect y="-0.33" fill="#2D77B2" width="200" height="39.934"/>
<g>
	<g>
		<path fill-rule="evenodd" clip-rule="evenodd" fill="#FFFFFF" d="M20.923,16.042c1.331,0,2.613,0,3.953,0c0,0.503,0,0.981,0,1.642
			c0.71-0.946,1.448-1.58,2.459-1.811c2.851-0.652,5.34,0.847,5.621,3.769c0.266,2.77,0.058,5.584,0.058,8.422
			c-1.217,0-2.497,0-3.871,0c0-0.336,0-0.661,0-0.984c0-1.758,0.006-3.516-0.004-5.272c-0.003-0.375-0.039-0.755-0.106-1.125
			c-0.231-1.27-0.991-1.886-2.156-1.774c-1.124,0.107-1.981,1.045-1.986,2.205c-0.01,2.069-0.003,4.138-0.003,6.207
			c0,0.239,0,0.478,0,0.75c-1.349,0-2.631,0-3.964,0C20.923,24.069,20.923,20.081,20.923,16.042z"/>
		<path fill-rule="evenodd" clip-rule="evenodd" fill="#FFFFFF" d="M18.558,28.075c-1.305,0-2.586,0-3.912,0c0-4.013,0-8,0-12.026
			c1.292,0,2.575,0,3.912,0C18.558,20.021,18.558,24.009,18.558,28.075z"/>
		<path fill-rule="evenodd" clip-rule="evenodd" fill="#FFFFFF" d="M16.59,14.331c-1.299-0.008-2.208-0.847-2.224-2.052
			c-0.016-1.206,0.937-2.091,2.259-2.098c1.32-0.007,2.252,0.861,2.252,2.099C18.878,13.499,17.94,14.339,16.59,14.331z"/>
	</g>
	<line fill="none" stroke="#FFFFFF" stroke-width="0.5" stroke-miterlimit="10" x1="40.404" y1="29.128" x2="40.404" y2="13.128"/>
	<g>
		<path fill="#FFFFFF" d="M48.082,23.064l1.347-0.118c0.064,0.54,0.212,0.982,0.445,1.328s0.595,0.625,1.085,0.839
			c0.49,0.213,1.042,0.32,1.656,0.32c0.544,0,1.025-0.081,1.442-0.243c0.417-0.162,0.728-0.384,0.931-0.666
			c0.204-0.282,0.305-0.59,0.305-0.923c0-0.338-0.098-0.634-0.294-0.887c-0.196-0.252-0.52-0.465-0.971-0.636
			c-0.29-0.113-0.93-0.289-1.92-0.526c-0.991-0.238-1.685-0.462-2.083-0.673c-0.515-0.27-0.899-0.604-1.152-1.004
			c-0.252-0.4-0.379-0.847-0.379-1.343c0-0.544,0.155-1.054,0.464-1.527c0.309-0.474,0.76-0.833,1.354-1.078
			c0.593-0.245,1.253-0.368,1.979-0.368c0.799,0,1.504,0.129,2.115,0.387c0.611,0.257,1.081,0.636,1.409,1.137s0.505,1.067,0.53,1.7
			l-1.369,0.103c-0.073-0.682-0.323-1.197-0.747-1.545c-0.425-0.348-1.051-0.522-1.88-0.522c-0.863,0-1.493,0.158-1.887,0.475
			c-0.395,0.316-0.592,0.698-0.592,1.145c0,0.388,0.14,0.707,0.419,0.957c0.274,0.25,0.992,0.506,2.152,0.769
			c1.16,0.262,1.956,0.492,2.388,0.688c0.628,0.29,1.091,0.656,1.391,1.1s0.449,0.956,0.449,1.534c0,0.574-0.164,1.115-0.493,1.623
			c-0.329,0.508-0.801,0.903-1.417,1.185c-0.616,0.282-1.309,0.423-2.079,0.423c-0.976,0-1.794-0.143-2.454-0.427
			c-0.66-0.285-1.177-0.713-1.552-1.284C48.299,24.432,48.101,23.785,48.082,23.064z"/>
		<path fill="#FFFFFF" d="M58.458,17.266v-1.523h1.324v1.523H58.458z M58.458,26.53v-7.815h1.324v7.815H58.458z"/>
		<path fill="#FFFFFF" d="M61.555,27.177l1.288,0.191c0.054,0.397,0.204,0.687,0.449,0.868c0.329,0.246,0.777,0.368,1.347,0.368
			c0.613,0,1.086-0.123,1.42-0.368c0.333-0.245,0.559-0.588,0.677-1.03c0.068-0.27,0.1-0.836,0.095-1.7
			c-0.579,0.682-1.3,1.023-2.163,1.023c-1.074,0-1.906-0.388-2.495-1.163s-0.883-1.705-0.883-2.789c0-0.746,0.135-1.434,0.404-2.064
			c0.27-0.63,0.661-1.117,1.174-1.46s1.115-0.515,1.807-0.515c0.922,0,1.683,0.373,2.281,1.118v-0.942h1.221v6.755
			c0,1.216-0.124,2.079-0.372,2.586s-0.64,0.909-1.177,1.203s-1.198,0.441-1.983,0.441c-0.932,0-1.685-0.209-2.259-0.629
			C61.813,28.653,61.536,28.021,61.555,27.177z M62.652,22.482c0,1.025,0.203,1.773,0.61,2.245c0.407,0.471,0.917,0.707,1.531,0.707
			c0.608,0,1.119-0.234,1.531-0.703c0.412-0.468,0.618-1.203,0.618-2.204c0-0.957-0.212-1.678-0.637-2.164
			c-0.424-0.485-0.936-0.729-1.534-0.729c-0.589,0-1.089,0.239-1.501,0.718C62.858,20.831,62.652,21.541,62.652,22.482z"/>
		<path fill="#FFFFFF" d="M70.179,26.53v-7.815h1.192v1.111c0.574-0.858,1.403-1.288,2.487-1.288c0.471,0,0.904,0.084,1.298,0.254
			c0.395,0.169,0.69,0.391,0.887,0.666c0.196,0.274,0.334,0.601,0.412,0.979c0.049,0.245,0.074,0.674,0.074,1.288v4.805h-1.325
			v-4.753c0-0.54-0.051-0.943-0.154-1.21c-0.103-0.268-0.286-0.481-0.548-0.64c-0.262-0.16-0.57-0.239-0.923-0.239
			c-0.564,0-1.051,0.179-1.461,0.537s-0.614,1.038-0.614,2.038v4.268H70.179z"/>
		<path fill="#FFFFFF" d="M82.755,17.266v-1.523h1.324v1.523H82.755z M82.755,26.53v-7.815h1.324v7.815H82.755z"/>
		<path fill="#FFFFFF" d="M86.095,26.53v-7.815h1.192v1.111c0.574-0.858,1.403-1.288,2.487-1.288c0.471,0,0.904,0.084,1.298,0.254
			c0.395,0.169,0.69,0.391,0.887,0.666c0.196,0.274,0.334,0.601,0.412,0.979c0.049,0.245,0.074,0.674,0.074,1.288v4.805h-1.325
			v-4.753c0-0.54-0.051-0.943-0.154-1.21c-0.103-0.268-0.286-0.481-0.548-0.64c-0.262-0.16-0.57-0.239-0.923-0.239
			c-0.564,0-1.051,0.179-1.461,0.537s-0.614,1.038-0.614,2.038v4.268H86.095z"/>
		<path fill="#FFFFFF" d="M100.106,26.53l-2.392-7.815h1.369l1.244,4.511l0.464,1.678c0.02-0.083,0.154-0.62,0.405-1.611
			l1.243-4.577h1.361l1.17,4.533l0.39,1.494l0.449-1.508l1.339-4.519h1.288l-2.443,7.815h-1.376l-1.244-4.68l-0.301-1.332
			l-1.583,6.012H100.106z"/>
		<path fill="#FFFFFF" d="M109.555,17.266v-1.523h1.324v1.523H109.555z M109.555,26.53v-7.815h1.324v7.815H109.555z"/>
		<path fill="#FFFFFF" d="M115.787,25.345l0.191,1.17c-0.373,0.078-0.707,0.118-1.001,0.118c-0.48,0-0.854-0.076-1.118-0.228
			c-0.265-0.152-0.452-0.352-0.56-0.6c-0.108-0.248-0.162-0.769-0.162-1.564v-4.496h-0.971v-1.03h0.971V16.78l1.317-0.795v2.73
			h1.332v1.03h-1.332v4.57c0,0.378,0.023,0.621,0.07,0.729c0.046,0.108,0.123,0.194,0.228,0.257
			c0.105,0.064,0.256,0.096,0.453,0.096C115.353,25.396,115.547,25.379,115.787,25.345z"/>
		<path fill="#FFFFFF" d="M117.082,26.53V15.742h1.325v3.871c0.618-0.716,1.398-1.074,2.34-1.074c0.579,0,1.082,0.114,1.509,0.342
			c0.427,0.228,0.732,0.543,0.916,0.945s0.276,0.986,0.276,1.751v4.952h-1.324v-4.952c0-0.663-0.144-1.145-0.431-1.446
			c-0.287-0.301-0.693-0.452-1.218-0.452c-0.393,0-0.762,0.102-1.107,0.305c-0.346,0.204-0.592,0.479-0.74,0.828
			c-0.147,0.349-0.221,0.829-0.221,1.442v4.275H117.082z"/>
		<path fill="#FFFFFF" d="M129.761,26.53V15.742h1.427v9.515h5.313v1.273H129.761z"/>
		<path fill="#FFFFFF" d="M138.04,17.266v-1.523h1.324v1.523H138.04z M138.04,26.53v-7.815h1.324v7.815H138.04z"/>
		<path fill="#FFFFFF" d="M141.379,26.53v-7.815h1.192v1.111c0.574-0.858,1.403-1.288,2.487-1.288c0.471,0,0.904,0.084,1.298,0.254
			c0.395,0.169,0.69,0.391,0.887,0.666c0.196,0.274,0.334,0.601,0.412,0.979c0.049,0.245,0.074,0.674,0.074,1.288v4.805h-1.325
			v-4.753c0-0.54-0.051-0.943-0.154-1.21c-0.103-0.268-0.286-0.481-0.548-0.64c-0.262-0.16-0.57-0.239-0.923-0.239
			c-0.564,0-1.051,0.179-1.461,0.537s-0.614,1.038-0.614,2.038v4.268H141.379z"/>
		<path fill="#FFFFFF" d="M149.769,26.53V15.742h1.324v6.152l3.135-3.179h1.714l-2.987,2.899l3.289,4.916h-1.633l-2.583-3.996
			l-0.935,0.897v3.098H149.769z"/>
		<path fill="#FFFFFF" d="M162.646,24.013l1.369,0.169c-0.216,0.799-0.616,1.42-1.2,1.861c-0.584,0.442-1.33,0.663-2.237,0.663
			c-1.143,0-2.049-0.352-2.719-1.056c-0.669-0.704-1.004-1.691-1.004-2.962c0-1.314,0.338-2.335,1.016-3.061
			c0.677-0.726,1.555-1.089,2.634-1.089c1.045,0,1.898,0.355,2.561,1.067c0.663,0.711,0.994,1.712,0.994,3.002
			c0,0.078-0.002,0.196-0.007,0.353h-5.828c0.049,0.858,0.292,1.516,0.729,1.972c0.437,0.456,0.981,0.684,1.634,0.684
			c0.485,0,0.9-0.127,1.244-0.382C162.172,24.979,162.444,24.572,162.646,24.013z M158.297,21.872h4.364
			c-0.059-0.658-0.226-1.15-0.5-1.479c-0.422-0.51-0.969-0.765-1.641-0.765c-0.608,0-1.12,0.204-1.534,0.611
			S158.341,21.19,158.297,21.872z"/>
		<path fill="#FFFFFF" d="M170.748,26.53v-0.986c-0.496,0.775-1.224,1.163-2.186,1.163c-0.623,0-1.196-0.172-1.718-0.515
			s-0.927-0.823-1.214-1.438c-0.287-0.616-0.431-1.323-0.431-2.123c0-0.78,0.13-1.488,0.39-2.123c0.26-0.635,0.65-1.122,1.17-1.46
			c0.52-0.339,1.101-0.508,1.744-0.508c0.471,0,0.891,0.099,1.258,0.298c0.368,0.199,0.667,0.458,0.898,0.776v-3.871h1.317V26.53
			H170.748z M166.561,22.63c0,1,0.211,1.749,0.633,2.244c0.422,0.496,0.92,0.743,1.494,0.743c0.579,0,1.071-0.236,1.476-0.71
			c0.405-0.473,0.607-1.196,0.607-2.167c0-1.069-0.206-1.854-0.618-2.355c-0.412-0.5-0.92-0.75-1.523-0.75
			c-0.589,0-1.081,0.241-1.476,0.721C166.758,20.837,166.561,21.595,166.561,22.63z"/>
		<path fill="#FFFFFF" d="M174.471,26.53V15.742h1.428V26.53H174.471z"/>
		<path fill="#FFFFFF" d="M178.246,26.53v-7.815h1.192v1.111c0.574-0.858,1.403-1.288,2.487-1.288c0.471,0,0.904,0.084,1.298,0.254
			c0.395,0.169,0.69,0.391,0.887,0.666c0.196,0.274,0.334,0.601,0.412,0.979c0.049,0.245,0.074,0.674,0.074,1.288v4.805h-1.325
			v-4.753c0-0.54-0.051-0.943-0.154-1.21c-0.103-0.268-0.286-0.481-0.548-0.64c-0.262-0.16-0.57-0.239-0.923-0.239
			c-0.564,0-1.051,0.179-1.461,0.537s-0.614,1.038-0.614,2.038v4.268H178.246z"/>
	</g>
</g>
</svg>
