<?xml version="1.0" encoding="utf-8"?>
<!-- Generator: Adobe Illustrator 16.0.0, SVG Export Plug-In . SVG Version: 6.00 Build 0)  -->
<!DOCTYPE svg PUBLIC "-//W3C//DTD SVG 1.1//EN" "http://www.w3.org/Graphics/SVG/1.1/DTD/svg11.dtd">
<svg version="1.1" id="Layer_1" xmlns="http://www.w3.org/2000/svg" xmlns:xlink="http://www.w3.org/1999/xlink" x="0px" y="0px"
	 width="75px" height="75px" viewBox="0 0 75 75" enable-background="new 0 0 75 75" xml:space="preserve">
<g>
	<g>
		
			<linearGradient id="SVGID_1_" gradientUnits="userSpaceOnUse" x1="-11.6719" y1="-71.1108" x2="-4.5911" y2="-94.4358" gradientTransform="matrix(-0.2195 0.9756 -0.9756 -0.2195 -32.2597 25.3829)">
			<stop  offset="0" style="stop-color:#FF0406"/>
			<stop  offset="0.3294" style="stop-color:#FF0F11;stop-opacity:0.6706"/>
			<stop  offset="0.9156" style="stop-color:#FF2C30;stop-opacity:0.0844"/>
			<stop  offset="1" style="stop-color:#FF3135;stop-opacity:0"/>
		</linearGradient>
		<path fill="url(#SVGID_1_)" d="M48.665,8.27c12.26,2.71,21.218,12.118,23.788,23.42C70.556,19.481,61.271,9.076,48.275,6.2
			c-16.943-3.743-33.767,6.712-37.578,23.352c-1.054,4.601-1,9.188-0.016,13.505c-0.576-3.699-0.482-7.561,0.407-11.433
			C14.898,14.98,31.723,4.524,48.665,8.27z"/>
		<path opacity="0.45" fill="#FCEBEB" d="M56.799,10.351c-2.482-1.289-5.146-2.271-7.948-2.889
			c-5.1-1.127-10.437-1.021-15.448,0.302c-6.035,1.595-11.324,4.801-15.384,9.133c3.948-4.584,9.281-7.978,15.43-9.602
			c4.746-1.257,9.809-1.355,14.636-0.286C51.22,7.701,54.143,8.838,56.799,10.351z"/>
	</g>
	<g>
		
			<linearGradient id="SVGID_2_" gradientUnits="userSpaceOnUse" x1="114.0752" y1="-91.5239" x2="120.6693" y2="-113.2456" gradientTransform="matrix(0.1878 0.9822 -0.9822 0.1878 -72.5663 -64.4989)">
			<stop  offset="0" style="stop-color:#E50000"/>
			<stop  offset="1" style="stop-color:#FF3135;stop-opacity:0"/>
		</linearGradient>
		<path fill="url(#SVGID_2_)" d="M36.109,3.967c14.018-2.635,27.673,3.175,35.558,13.794C64.064,5.896,49.609-0.808,34.753,1.986
			C15.385,5.621,2.694,23.991,6.401,43.009c1.017,5.257,3.191,10.011,6.2,14.066c-2.304-3.598-3.983-7.659-4.844-12.082
			C4.051,25.973,16.75,7.603,36.109,3.967z"/>
		<path opacity="0.45" fill="#FCEBEB" d="M8.015,27.137c1.003-3.474,2.581-6.806,4.703-9.879C17.93,9.716,25.817,4.623,34.929,2.91
			c2.163-0.409,4.372-0.614,6.555-0.614c1.033,0,2.05,0.048,3.071,0.138c-0.565-0.027-1.133-0.04-1.699-0.04
			c-2.313,0-4.64,0.22-6.925,0.648C22.424,5.579,12.063,15.145,8.015,27.137z"/>
	</g>
	<g>
		
			<linearGradient id="SVGID_3_" gradientUnits="userSpaceOnUse" x1="377.541" y1="-335.1694" x2="387.4835" y2="-367.9212" gradientTransform="matrix(0.898 -0.4401 0.4401 0.898 -157.7118 512.1328)">
			<stop  offset="0" style="stop-color:#D40406"/>
			<stop  offset="1" style="stop-color:#D40406;stop-opacity:0"/>
		</linearGradient>
		<path fill="url(#SVGID_3_)" d="M8.239,52.325c-6.277-12.583-4.175-27.059,4.172-37.328C2.768,25.322-0.004,40.792,6.655,54.14
			c8.674,17.393,30.055,24.58,47.754,16.055c4.896-2.354,8.987-5.664,12.175-9.584c-2.923,3.13-6.471,5.791-10.583,7.775
			C38.296,76.906,16.917,69.719,8.239,52.325z"/>
		<path opacity="0.45" fill="#FCEBEB" d="M37.993,72.814c-12.614-0.296-24.629-7.354-30.477-19.089
			c-1.603-3.207-2.66-6.562-3.187-9.946c0.6,3.069,1.613,6.087,3.051,8.963C13.316,64.635,25.248,71.985,37.993,72.814z"/>
	</g>
	<g>
		<path d="M32.17,29.322c1.508-1.152,3.255-1.729,5.24-1.729c1.994,0,3.595,0.529,4.818,1.583c1.222,1.05,1.835,2.333,1.835,3.836
			c0,1.503-0.574,2.833-1.707,3.984c-1.132,1.153-2.556,1.947-4.26,2.386c1.679,0.291,3.057,0.992,4.132,2.105
			c1.072,1.118,1.604,2.563,1.604,4.333c0,2.23-0.946,4.125-2.847,5.69c-1.903,1.566-4.12,2.347-6.671,2.347
			c-2.763,0-4.958-0.802-6.59-2.402c-0.86-0.821-1.293-1.804-1.293-2.943c0-0.366,0.101-0.811,0.294-1.332
			c0.197-0.519,0.446-0.925,0.74-1.217c0.248-0.046,0.521-0.074,0.814-0.074c1.753,0,3.104,0.46,4.04,1.384L31.8,51.13
			c0.346,0.268,0.927,0.4,1.744,0.4c1.234,0,2.301-0.635,3.201-1.91c0.898-1.273,1.352-2.783,1.352-4.529
			c0-1.746-0.393-2.942-1.188-3.582c-0.785-0.645-2.099-0.963-3.924-0.963l-0.853,0.034l0.223-1.857
			c1.211-0.116,2.116-0.32,2.722-0.601c0.609-0.275,1.17-0.611,1.686-0.999c1.16-0.824,1.745-2.049,1.745-3.673
			c0-1.022-0.283-1.778-0.839-2.273c-0.556-0.5-1.213-0.751-1.978-0.751c-2.023,0-3.656,1.18-4.892,3.532l-1.624-0.691
			C29.663,31.788,30.665,30.473,32.17,29.322z"/>
		<path d="M44.389,46.966l0.127-0.663l0.133-0.677c1.94-3.237,3.706-5.979,5.295-8.231c1.587-2.266,3.968-6.016,6.434-8.999h4.164
			l0.469,0.393L58.28,44.174h1.294c0.644,0,1.229-0.009,1.751-0.026c0.522-0.016,0.844-0.046,0.975-0.083l0.122,0.109l-0.659,2.792
			h-2.688h-1.29l-0.283,1.591c-0.279,1.561-0.33,2.544-0.147,2.949c0.181,0.408,0.767,0.627,1.746,0.665l2.225,0.087l-0.221,1.273
			c-2.477-0.074-4.62-0.11-6.425-0.11c-1.821,0-3.988,0.036-6.502,0.11l0.216-1.273l2.153-0.087
			c0.932-0.038,1.557-0.257,1.869-0.665c0.322-0.405,0.618-1.389,0.896-2.949l0.283-1.591H44.389z M54.093,44.174l2.225-12.523
			c-1.672,2.099-3.115,4-4.32,5.705c-1.343,1.9-2.83,4.171-4.445,6.819H54.093z"/>
	</g>
	<g>
		<g>
			<path d="M18.001,35.063l0.283,0.249c0.093,0.434,0.121,0.896,0.093,1.391c-0.029,0.495-0.118,0.922-0.263,1.27
				c-0.317,0.781-0.759,1.311-1.318,1.59c-0.565,0.283-1.19,0.283-1.89,0.005c-1.039-0.406-1.778-1.132-2.216-2.183
				c-0.438-1.046-0.451-2.088-0.024-3.127c0.125-0.318,0.274-0.595,0.443-0.837c0.16-0.239,0.368-0.48,0.611-0.715
				c0.244,0.188,0.451,0.344,0.628,0.472c0.178,0.126,0.391,0.274,0.652,0.434l-0.129,0.303l-0.633-0.296
				c-0.1-0.05-0.185-0.069-0.249-0.06c-0.065,0.009-0.132,0.048-0.203,0.118c-0.126,0.127-0.252,0.272-0.361,0.424
				c-0.174,0.233-0.309,0.467-0.406,0.692c-0.295,0.722-0.241,1.385,0.153,1.988c0.388,0.61,1.093,1.115,2.117,1.515
				c0.574,0.228,1.065,0.25,1.489,0.08c0.422-0.174,0.749-0.537,0.974-1.093c0.121-0.288,0.19-0.624,0.216-1.008
				c0.017-0.384-0.006-0.766-0.081-1.146L18.001,35.063z"/>
			<path d="M20.393,33.377c-0.196,0.323-0.436,0.517-0.714,0.59c-0.272,0.074-0.569,0.02-0.884-0.172
				c-0.14-0.084-0.291-0.201-0.455-0.344c-0.164-0.151-0.321-0.32-0.484-0.511c-0.251-0.298-0.429-0.561-0.534-0.793
				c-0.098-0.23-0.152-0.488-0.157-0.779c0-0.133,0.002-0.261,0.006-0.385c0.009-0.125,0.019-0.257,0.035-0.383
				c0.026-0.185,0.065-0.345,0.101-0.471c0.039-0.127,0.1-0.254,0.181-0.377c0.159-0.266,0.341-0.426,0.532-0.494
				c0.197-0.069,0.405-0.034,0.62,0.096c0.354,0.209,0.536,0.589,0.552,1.13c0.004,0.518-0.146,1.161-0.448,1.938
				c0.148,0.133,0.283,0.24,0.412,0.314c0.235,0.148,0.445,0.196,0.63,0.159c0.18-0.04,0.336-0.172,0.474-0.389
				c0.088-0.143,0.163-0.37,0.208-0.682c0.057-0.311,0.071-0.607,0.057-0.881l0.255,0.04c0.034,0.515,0.012,0.979-0.053,1.398
				C20.657,32.797,20.546,33.128,20.393,33.377z M17.615,30.338c-0.098,0.161-0.125,0.347-0.079,0.55
				c0.044,0.209,0.158,0.422,0.341,0.635c0.251,0.296,0.477,0.542,0.684,0.729c0.175-0.451,0.232-0.857,0.194-1.232
				c-0.048-0.395-0.201-0.675-0.471-0.833c-0.133-0.079-0.259-0.103-0.373-0.077C17.794,30.139,17.694,30.215,17.615,30.338z"/>
			<path d="M21.599,29.14l-2.65-3.302c-0.136-0.165-0.243-0.251-0.33-0.256c-0.083-0.005-0.178,0.058-0.296,0.205l-0.234,0.292
				l-0.158-0.203c0.192-0.304,0.347-0.58,0.464-0.815c0.121-0.239,0.245-0.536,0.378-0.885l0.127-0.027
				c0.094,0.147,0.195,0.287,0.304,0.427c0.101,0.138,0.32,0.416,0.652,0.833l2.242,2.784c0.203,0.253,0.352,0.414,0.448,0.485
				c0.104,0.073,0.176,0.077,0.227,0.014c0.056-0.074,0.105-0.18,0.129-0.331c0.032-0.151,0.048-0.339,0.046-0.572l0.272,0.062
				c-0.021,0.542-0.064,0.973-0.131,1.281c-0.064,0.311-0.155,0.543-0.287,0.701c-0.116,0.149-0.265,0.17-0.445,0.073
				C22.176,29.803,21.927,29.548,21.599,29.14z"/>
			<path d="M25.602,26.65c-0.274,0.262-0.553,0.393-0.841,0.394c-0.288,0.004-0.559-0.122-0.814-0.379
				c-0.117-0.116-0.233-0.267-0.35-0.448c-0.125-0.182-0.241-0.388-0.347-0.607c-0.164-0.353-0.27-0.653-0.309-0.901
				c-0.044-0.247-0.03-0.509,0.041-0.792c0.026-0.128,0.069-0.252,0.105-0.369c0.037-0.122,0.082-0.242,0.125-0.364
				c0.073-0.174,0.143-0.32,0.215-0.433c0.073-0.113,0.169-0.223,0.274-0.326c0.217-0.213,0.431-0.328,0.638-0.344
				c0.206-0.019,0.396,0.063,0.577,0.241c0.29,0.294,0.37,0.704,0.246,1.23c-0.122,0.5-0.432,1.09-0.927,1.769
				c0.117,0.169,0.22,0.305,0.321,0.406c0.198,0.198,0.384,0.299,0.572,0.304c0.184,0.008,0.368-0.076,0.557-0.262
				c0.125-0.114,0.251-0.319,0.378-0.606c0.13-0.291,0.223-0.569,0.272-0.841l0.238,0.104c-0.1,0.508-0.229,0.951-0.401,1.336
				C26.007,26.149,25.812,26.444,25.602,26.65z M23.681,23.029c-0.142,0.131-0.209,0.301-0.219,0.515
				c-0.009,0.21,0.048,0.443,0.172,0.697c0.167,0.347,0.322,0.639,0.473,0.874c0.276-0.397,0.442-0.777,0.499-1.15
				c0.054-0.392-0.022-0.7-0.247-0.922c-0.104-0.107-0.223-0.161-0.342-0.165C23.896,22.878,23.787,22.925,23.681,23.029z"/>
			<path d="M25.829,19.203c-0.096-0.186-0.182-0.293-0.265-0.32c-0.081-0.025-0.206,0.013-0.361,0.12l-0.313,0.213l-0.104-0.229
				c0.29-0.252,0.54-0.479,0.735-0.68c0.198-0.203,0.424-0.457,0.672-0.765l0.132,0.008c0.063,0.201,0.128,0.384,0.188,0.546
				c0.061,0.157,0.187,0.464,0.375,0.916c0.229,0.557,0.45,1.067,0.667,1.53l0.183,0.413c0.02-0.416,0.082-0.801,0.198-1.146
				c0.192-0.573,0.516-1.012,0.961-1.311c0.2-0.137,0.401-0.167,0.604-0.099c0.207,0.07,0.397,0.237,0.585,0.504
				c0.052,0.08,0.117,0.177,0.169,0.286c0.061,0.108,0.116,0.225,0.18,0.35c0.312,0.693,0.364,1.41,0.162,2.159
				c-0.211,0.74-0.626,1.325-1.25,1.746c-0.414,0.28-0.779,0.369-1.098,0.268c-0.313-0.101-0.568-0.384-0.762-0.853
				c-0.281-0.651-0.529-1.237-0.762-1.749C26.461,20.535,26.16,19.899,25.829,19.203z M29.583,22.784
				c0.279-0.187,0.424-0.501,0.434-0.944c0.014-0.44-0.107-0.946-0.364-1.51c-0.06-0.132-0.112-0.246-0.165-0.348
				c-0.055-0.099-0.11-0.19-0.165-0.266c-0.128-0.185-0.253-0.296-0.375-0.339c-0.123-0.047-0.248-0.032-0.379,0.056
				c-0.231,0.156-0.39,0.435-0.485,0.838c-0.031,0.155-0.053,0.321-0.066,0.499c-0.011,0.222,0.006,0.454,0.058,0.692
				c0.052,0.235,0.128,0.467,0.233,0.688l0.156,0.307c0.113,0.247,0.265,0.403,0.453,0.481c0.184,0.071,0.368,0.046,0.558-0.078
				L29.583,22.784z"/>
			<path d="M33.046,21.007c0.005-0.056-0.008-0.186-0.04-0.392c-0.025-0.205-0.068-0.426-0.116-0.668
				c-0.076-0.396-0.148-0.758-0.222-1.085L32.586,18.5c-0.071-0.323-0.134-0.54-0.19-0.652c-0.059-0.112-0.119-0.152-0.188-0.125
				c-0.077,0.037-0.153,0.108-0.235,0.22c-0.081,0.107-0.161,0.259-0.245,0.451l-0.226-0.152c0.257-0.526,0.484-0.924,0.669-1.19
				c0.196-0.27,0.376-0.439,0.542-0.514c0.123-0.056,0.221-0.023,0.294,0.086c0.08,0.114,0.141,0.341,0.204,0.679l0.197,1.076
				c0.014,0.057,0.024,0.073,0.043,0.045c0.011-0.029,0.02-0.087,0.027-0.178c0.026-0.667,0.069-1.152,0.138-1.464
				c0.103-0.476,0.312-0.788,0.626-0.925c0.047-0.024,0.096-0.042,0.159-0.053c0.057-0.014,0.099-0.016,0.111-0.008
				c0.061,0.231,0.105,0.43,0.149,0.595c0.046,0.169,0.111,0.362,0.189,0.586l-0.081,0.103c-0.102-0.022-0.191-0.034-0.271-0.03
				c-0.083,0.007-0.164,0.029-0.243,0.066c-0.235,0.107-0.397,0.352-0.484,0.738c-0.038,0.183-0.054,0.397-0.055,0.648
				c0,0.187,0.008,0.391,0.035,0.603c0.031,0.217,0.067,0.429,0.119,0.634l0.048,0.214c0.035,0.121,0.068,0.235,0.102,0.335
				c0.039,0.098,0.063,0.159,0.076,0.184l-0.905,0.565L33.046,21.007z"/>
			<path d="M37.447,19.317c-0.153,0.037-0.288,0.004-0.404-0.11c-0.115-0.107-0.207-0.284-0.271-0.527
				c-0.029-0.123-0.055-0.267-0.081-0.437c-0.019-0.167-0.029-0.344-0.036-0.533c-0.012-0.378,0.018-0.722,0.091-1.03
				c0.072-0.304,0.188-0.566,0.347-0.794c0.071-0.099,0.221-0.275,0.438-0.534c0.224-0.258,0.359-0.409,0.414-0.455
				c0.105-0.096,0.211-0.167,0.31-0.215c0.103-0.048,0.239-0.094,0.425-0.137c0.157-0.042,0.317-0.063,0.49-0.066
				c0.164-0.003,0.32,0.016,0.478,0.053l0.359-0.34l0.205,0.049c-0.02,0.031-0.027,0.135-0.034,0.318
				c-0.012,0.184-0.012,0.434-0.004,0.752l0.019,1.019l0.03,0.683c0.015,0.361,0.039,0.587,0.064,0.682
				c0.024,0.096,0.073,0.135,0.145,0.118c0.085-0.022,0.175-0.078,0.273-0.168c0.098-0.087,0.206-0.214,0.324-0.379l0.197,0.199
				c-0.315,0.396-0.582,0.693-0.805,0.891c-0.225,0.196-0.423,0.32-0.603,0.365c-0.191,0.045-0.332-0.021-0.402-0.214
				c-0.076-0.183-0.107-0.54-0.104-1.063l0.016-0.874c-0.197,0.638-0.42,1.184-0.681,1.63
				C38.283,18.833,37.879,19.207,37.447,19.317z M38.017,18.421c0.189-0.045,0.403-0.338,0.651-0.867
				c0.142-0.309,0.268-0.643,0.388-1.008c0.049-0.156,0.084-0.357,0.112-0.602c0.034-0.239,0.04-0.456,0.03-0.648l-0.012-0.204
				c-0.155-0.03-0.28-0.049-0.381-0.052c-0.143-0.007-0.284,0.005-0.421,0.04c-0.279,0.069-0.477,0.256-0.585,0.556
				c-0.11,0.3-0.158,0.768-0.134,1.406c0.011,0.313,0.021,0.561,0.032,0.729c0.021,0.17,0.036,0.307,0.067,0.412
				c0.029,0.104,0.06,0.173,0.103,0.21C37.899,18.428,37.949,18.438,38.017,18.421z"/>
			<path d="M43.049,16.799l0.387-2.411l-1.068,0.082l0.041-0.233l1.077-0.315l0.048-0.474c0.042-0.415,0.042-0.686,0.025-0.814
				l1.135-0.447l0.112,0.1c0.012-0.01-0.058,0.348-0.197,1.066l-0.093,0.484l0.562-0.042c0.171-0.015,0.324-0.031,0.474-0.05
				c0.146-0.021,0.246-0.041,0.299-0.058l0.057,0.048l-0.148,0.524c-0.047-0.016-0.145-0.019-0.286-0.016
				c-0.146,0.003-0.3,0.011-0.467,0.025l-0.571,0.044l-0.137,0.81l-0.199,1.389c-0.049,0.315-0.057,0.533-0.025,0.654
				c0.032,0.123,0.104,0.175,0.23,0.167c0.136-0.011,0.291-0.067,0.463-0.167c0.174-0.101,0.364-0.252,0.567-0.447l0.147,0.233
				c-0.458,0.398-0.836,0.69-1.143,0.873c-0.303,0.183-0.567,0.282-0.805,0.299c-0.257,0.024-0.42-0.066-0.497-0.259
				C42.967,17.665,42.974,17.312,43.049,16.799z"/>
			<path d="M47.487,16.624l0.293-0.871l0.219-0.664c0.055-0.196,0.085-0.336,0.08-0.414c-0.003-0.083-0.044-0.123-0.112-0.127
				c-0.102-0.004-0.226,0.025-0.369,0.1c-0.139,0.069-0.304,0.18-0.5,0.325l-0.12-0.24c0.518-0.365,0.949-0.627,1.28-0.785
				c0.341-0.16,0.611-0.234,0.833-0.221c0.151,0.008,0.221,0.098,0.221,0.275s-0.076,0.488-0.229,0.929l-0.302,0.87l-0.262,0.786
				c-0.092,0.265-0.141,0.45-0.145,0.548c-0.012,0.108,0.009,0.161,0.071,0.166c0.085,0.001,0.201-0.025,0.355-0.089
				c0.146-0.063,0.328-0.159,0.546-0.292l0.103,0.248c-0.461,0.299-0.844,0.516-1.142,0.643c-0.297,0.129-0.543,0.189-0.748,0.18
				c-0.201-0.008-0.307-0.116-0.323-0.316v-0.076C47.252,17.394,47.336,17.069,47.487,16.624z M49.459,11.722
				c0.172,0.006,0.289,0.069,0.365,0.188c0.077,0.115,0.094,0.254,0.036,0.416c-0.055,0.157-0.159,0.291-0.306,0.398
				c-0.152,0.107-0.308,0.154-0.475,0.147c-0.172-0.007-0.291-0.069-0.364-0.185c-0.077-0.12-0.088-0.258-0.033-0.417
				c0.052-0.16,0.153-0.295,0.302-0.399C49.135,11.764,49.296,11.715,49.459,11.722z"/>
			<path d="M50.602,18.014c0.036-0.042,0.106-0.158,0.215-0.338c0.109-0.18,0.229-0.381,0.344-0.6
				c0.194-0.363,0.36-0.699,0.505-1.001c0.09-0.207,0.189-0.43,0.289-0.668c0.068-0.184,0.106-0.313,0.106-0.39
				c0.01-0.078-0.024-0.122-0.074-0.131c-0.098-0.02-0.207-0.008-0.334,0.029c-0.122,0.037-0.27,0.102-0.433,0.193l-0.095-0.251
				c0.513-0.267,0.917-0.45,1.225-0.55c0.31-0.104,0.552-0.14,0.728-0.109c0.167,0.029,0.235,0.136,0.217,0.313
				c-0.023,0.174-0.142,0.471-0.355,0.89l-0.468,0.905c0.209-0.276,0.518-0.567,0.934-0.866c0.861-0.624,1.573-0.884,2.125-0.78
				c0.193,0.034,0.292,0.132,0.301,0.288c0.007,0.154-0.065,0.396-0.231,0.725l-0.558,1.096l-0.277,0.556
				c-0.135,0.293-0.222,0.5-0.248,0.619c-0.029,0.119-0.011,0.185,0.057,0.198c0.073,0.016,0.177,0.002,0.307-0.038
				c0.135-0.042,0.297-0.111,0.495-0.208l0.058,0.264c-0.477,0.222-0.864,0.374-1.17,0.46c-0.294,0.083-0.541,0.106-0.729,0.069
				c-0.18-0.032-0.254-0.146-0.235-0.349c0.026-0.198,0.154-0.534,0.387-1.003l0.763-1.533c0.074-0.149,0.108-0.258,0.104-0.33
				c-0.01-0.073-0.062-0.116-0.148-0.135c-0.241-0.046-0.585,0.106-1.022,0.46c-0.298,0.23-0.57,0.505-0.821,0.813
				c-0.089,0.108-0.184,0.235-0.262,0.378c-0.091,0.14-0.167,0.287-0.231,0.43l-0.069,0.142c-0.063,0.143-0.115,0.276-0.166,0.393
				c-0.047,0.119-0.076,0.19-0.081,0.212l-1.055-0.047L50.602,18.014z"/>
			<path d="M58.542,18.9c-0.039,0.057-0.04,0.128-0.004,0.22c0.039,0.091,0.119,0.218,0.246,0.383l0.471,0.605
				c0.22,0.283,0.351,0.541,0.391,0.775c0.042,0.235-0.006,0.442-0.146,0.629c-0.208,0.291-0.572,0.471-1.088,0.54
				c-0.521,0.073-1.058,0.013-1.604-0.176c-0.636-0.218-1.098-0.512-1.382-0.879s-0.308-0.709-0.085-1.021
				c0.154-0.214,0.405-0.359,0.747-0.444c0.343-0.085,0.825-0.116,1.437-0.093l-0.099-0.167c-0.072-0.158-0.08-0.275-0.027-0.352
				c0.054-0.077,0.132-0.13,0.224-0.156c0.09-0.029,0.386-0.081,0.88-0.159l-0.149-0.05c-0.414-0.143-0.701-0.338-0.864-0.59
				c-0.156-0.251-0.186-0.534-0.073-0.852c0.035-0.089,0.077-0.186,0.131-0.283c0.059-0.098,0.12-0.196,0.192-0.295
				c0.188-0.261,0.542-0.441,1.062-0.538c0.521-0.098,0.991-0.077,1.412,0.068c0.338,0.119,0.597,0.278,0.774,0.483l0.495,0.17
				c0.124,0.045,0.264,0.089,0.418,0.135c0.156,0.048,0.28,0.085,0.378,0.109l0.028,0.096l-0.244,0.391
				c-0.098-0.045-0.218-0.096-0.365-0.156c-0.153-0.058-0.285-0.108-0.404-0.151l-0.037-0.011c0.029,0.164,0.009,0.341-0.059,0.524
				c-0.028,0.072-0.068,0.154-0.112,0.239c-0.044,0.089-0.098,0.166-0.149,0.24c-0.205,0.291-0.566,0.479-1.066,0.558
				c-0.285,0.047-0.577,0.047-0.866,0.013c-0.092,0.008-0.182,0.029-0.271,0.065C58.641,18.806,58.579,18.852,58.542,18.9z
				 M56.223,20.145c-0.199,0.27-0.211,0.542-0.05,0.826c0.164,0.283,0.462,0.5,0.882,0.646c0.339,0.118,0.633,0.162,0.861,0.128
				c0.232-0.034,0.418-0.138,0.551-0.321c0.075-0.104,0.104-0.236,0.09-0.398c-0.022-0.165-0.084-0.311-0.18-0.443l-0.47-0.606
				l-0.249-0.338c-0.359,0.012-0.664,0.058-0.904,0.14C56.514,19.862,56.337,19.983,56.223,20.145z M59.865,16.356
				c-0.214-0.074-0.414-0.07-0.61,0.008c-0.198,0.071-0.371,0.214-0.52,0.426c-0.089,0.117-0.163,0.234-0.227,0.344
				c-0.062,0.111-0.112,0.214-0.142,0.31c-0.086,0.221-0.09,0.413-0.019,0.57c0.067,0.16,0.211,0.276,0.419,0.351
				c0.208,0.071,0.411,0.071,0.607-0.005c0.199-0.073,0.374-0.214,0.524-0.423c0.088-0.118,0.164-0.233,0.228-0.349
				c0.059-0.11,0.113-0.213,0.147-0.306c0.081-0.226,0.082-0.417,0.009-0.575C60.216,16.544,60.078,16.428,59.865,16.356z"/>
		</g>
	</g>
	<g>
		<g>
			<path d="M26.617,59.007l0.444-2.49l-1.036,0.435l-0.051-0.051l0.099-0.361c0.33-0.083,0.612-0.167,0.849-0.245
				c0.237-0.082,0.514-0.199,0.837-0.341l0.087,0.053l-0.531,3c-0.039,0.235-0.04,0.386-0.006,0.449
				c0.038,0.063,0.142,0.1,0.319,0.104l0.402,0.013l-0.032,0.199c-0.421-0.015-0.791-0.019-1.099-0.019
				c-0.311,0-0.682,0.004-1.107,0.019l0.029-0.199l0.353-0.013c0.152-0.004,0.259-0.04,0.312-0.104
				C26.535,59.397,26.575,59.245,26.617,59.007z"/>
			<path d="M30.397,59.849c-0.081,0-0.162-0.011-0.251-0.024c-0.079-0.019-0.163-0.038-0.24-0.067l-0.142-0.58l0.128-0.05
				c0.065,0.147,0.154,0.26,0.271,0.329c0.109,0.076,0.245,0.113,0.401,0.113c0.302,0,0.537-0.179,0.72-0.546
				c0.112-0.238,0.225-0.601,0.341-1.093l-0.094,0.082c-0.276,0.246-0.535,0.365-0.768,0.365c-0.261,0-0.453-0.084-0.601-0.246
				c-0.146-0.169-0.224-0.396-0.224-0.685c0-0.056,0.006-0.125,0.013-0.188c0.006-0.068,0.013-0.132,0.025-0.195
				c0.053-0.285,0.227-0.545,0.525-0.785c0.3-0.242,0.599-0.364,0.896-0.364c0.411,0,0.697,0.167,0.864,0.491
				c0.105,0.208,0.158,0.463,0.158,0.763c0,0.18-0.017,0.384-0.056,0.6c-0.103,0.58-0.344,1.073-0.727,1.474
				C31.259,59.647,30.845,59.849,30.397,59.849z M31.657,57.38c0.016-0.097,0.029-0.19,0.04-0.278
				c0.013-0.087,0.013-0.164,0.013-0.234c0-0.221-0.041-0.388-0.124-0.504c-0.082-0.114-0.196-0.172-0.358-0.172
				c-0.134,0-0.25,0.055-0.351,0.166c-0.102,0.107-0.169,0.25-0.201,0.427c-0.013,0.084-0.024,0.171-0.035,0.256
				c-0.004,0.085-0.01,0.153-0.01,0.22c0,0.222,0.037,0.399,0.122,0.525c0.083,0.125,0.189,0.189,0.333,0.189
				c0.142,0,0.267-0.053,0.371-0.16C31.553,57.705,31.625,57.56,31.657,57.38z"/>
			<path d="M34.228,57.023c0.028-0.27,0.184-0.523,0.462-0.758c0.279-0.23,0.566-0.351,0.87-0.351c0.288,0,0.516,0.079,0.677,0.23
				c0.138,0.132,0.2,0.294,0.2,0.496l-0.005,0.11c-0.024,0.193-0.14,0.387-0.359,0.58c-0.131,0.119-0.289,0.224-0.473,0.32
				c0.236,0.142,0.401,0.275,0.51,0.399c0.112,0.137,0.17,0.299,0.17,0.495l-0.007,0.119c-0.036,0.299-0.208,0.571-0.511,0.817
				c-0.298,0.243-0.611,0.368-0.951,0.368c-0.325,0-0.582-0.09-0.762-0.265c-0.149-0.143-0.229-0.336-0.231-0.566l0.013-0.121
				c0.019-0.221,0.152-0.433,0.389-0.639c0.147-0.127,0.321-0.246,0.523-0.341c-0.156-0.103-0.275-0.214-0.357-0.327
				c-0.111-0.144-0.161-0.302-0.164-0.475L34.228,57.023z M34.295,58.851c-0.002,0.04-0.004,0.074-0.002,0.109
				c-0.002,0.168,0.044,0.311,0.142,0.421c0.122,0.139,0.283,0.205,0.494,0.205c0.202,0,0.362-0.063,0.501-0.188
				c0.135-0.119,0.214-0.288,0.237-0.489v-0.066c0-0.138-0.044-0.265-0.143-0.384c-0.115-0.144-0.294-0.277-0.53-0.398l-0.087-0.049
				c-0.129,0.085-0.236,0.169-0.325,0.266C34.416,58.449,34.324,58.637,34.295,58.851z M35.978,56.843l0.006-0.093
				c-0.004-0.151-0.049-0.283-0.133-0.386c-0.097-0.125-0.241-0.189-0.428-0.189c-0.175,0-0.32,0.055-0.438,0.155
				c-0.118,0.106-0.185,0.247-0.202,0.418l-0.005,0.066c0,0.127,0.036,0.244,0.114,0.354c0.093,0.127,0.238,0.24,0.438,0.336
				l0.105,0.055c0.088-0.055,0.176-0.122,0.255-0.195C35.862,57.199,35.954,57.023,35.978,56.843z"/>
			<path d="M38.122,59.713c0.445-0.689,0.84-1.28,1.177-1.769c0.258-0.386,0.571-0.821,0.925-1.317l-0.748-0.004l-0.507,0.004
				c-0.189,0-0.352,0.007-0.495,0.013c-0.141,0.007-0.233,0.017-0.285,0.025l-0.039-0.035l0.12-0.612l0.038-0.043
				C38.794,55.994,39.216,56,39.571,56c0.354,0,0.776-0.007,1.27-0.025v0.23c-0.459,0.663-0.836,1.241-1.111,1.739
				c-0.284,0.501-0.585,1.104-0.905,1.827h-0.67L38.122,59.713z"/>
			<path d="M42.188,58.081c0.324,0.016,0.604,0.027,0.834,0.027c0.237,0,0.526-0.011,0.854-0.027l-0.19,0.556
				c-0.325-0.013-0.604-0.016-0.835-0.016c-0.237,0-0.522,0.003-0.852,0.016L42.188,58.081z"/>
			<path d="M47.791,56.909c0,0.235-0.114,0.495-0.343,0.783c-0.224,0.282-0.716,0.785-1.478,1.514h1.227
				c0.109,0,0.218-0.005,0.32-0.019c0.107-0.011,0.191-0.024,0.236-0.037l0.056,0.037l-0.181,0.585
				c-0.014-0.011-0.077-0.015-0.191-0.016c-0.116-0.003-0.247-0.003-0.396-0.003l-0.608-0.009c-0.345,0-0.745,0.009-1.217,0.028
				v-0.145l0.566-0.551c0.397-0.388,0.706-0.765,0.939-1.131c0.225-0.369,0.343-0.668,0.337-0.903c0-0.198-0.058-0.348-0.156-0.455
				c-0.104-0.111-0.247-0.164-0.429-0.164c-0.164,0-0.286,0.04-0.383,0.116c-0.089,0.074-0.203,0.233-0.342,0.476l-0.167-0.053
				l0.321-0.756c0.12-0.093,0.249-0.167,0.389-0.217c0.145-0.05,0.286-0.074,0.43-0.074c0.322,0,0.584,0.094,0.773,0.275
				C47.695,56.37,47.791,56.613,47.791,56.909z"/>
			<path d="M49.777,59.507c-0.182-0.227-0.269-0.553-0.269-0.965v-0.017c0-0.102,0.004-0.221,0.021-0.349
				c0.011-0.126,0.027-0.258,0.05-0.388c0.104-0.581,0.284-1.042,0.548-1.375c0.258-0.331,0.564-0.499,0.921-0.499
				c0.331,0,0.582,0.118,0.765,0.351c0.177,0.229,0.262,0.554,0.262,0.975c0,0.105-0.004,0.222-0.019,0.354
				c-0.007,0.127-0.025,0.257-0.054,0.383c-0.102,0.585-0.285,1.045-0.545,1.375c-0.258,0.329-0.563,0.496-0.92,0.496
				C50.212,59.849,49.958,59.737,49.777,59.507z M50.941,59.24c0.107-0.266,0.224-0.708,0.341-1.326
				c0.044-0.262,0.079-0.489,0.101-0.669c0.021-0.182,0.029-0.344,0.035-0.495c0-0.22-0.035-0.383-0.087-0.481
				c-0.061-0.096-0.158-0.143-0.286-0.143c-0.162,0-0.29,0.132-0.407,0.402c-0.111,0.263-0.227,0.708-0.331,1.327
				c-0.049,0.263-0.082,0.492-0.102,0.676c-0.024,0.176-0.035,0.342-0.035,0.487c0,0.221,0.032,0.38,0.088,0.477
				c0.056,0.096,0.153,0.142,0.281,0.142C50.695,59.636,50.827,59.507,50.941,59.24z"/>
			<path d="M55.91,56.909c0,0.235-0.116,0.495-0.346,0.783c-0.223,0.282-0.718,0.785-1.475,1.514h1.225
				c0.108,0,0.215-0.005,0.324-0.019c0.107-0.011,0.183-0.024,0.231-0.037l0.053,0.037l-0.176,0.585
				c-0.015-0.011-0.082-0.015-0.19-0.016c-0.119-0.003-0.252-0.003-0.397-0.003l-0.617-0.009c-0.337,0-0.735,0.009-1.209,0.028
				v-0.145l0.564-0.551c0.396-0.388,0.708-0.765,0.94-1.131c0.228-0.369,0.338-0.668,0.332-0.903c0-0.198-0.05-0.348-0.154-0.455
				c-0.097-0.111-0.241-0.164-0.427-0.164c-0.16,0-0.288,0.04-0.379,0.116c-0.09,0.074-0.209,0.233-0.345,0.476l-0.17-0.053
				l0.324-0.756c0.118-0.093,0.249-0.167,0.39-0.217c0.146-0.05,0.285-0.074,0.429-0.074c0.321,0,0.579,0.094,0.779,0.275
				C55.813,56.37,55.91,56.613,55.91,56.909z"/>
			<path d="M58.452,59.007l0.442-2.49l-1.032,0.435l-0.056-0.051l0.093-0.361c0.333-0.083,0.619-0.167,0.853-0.245
				c0.234-0.082,0.518-0.199,0.834-0.341l0.097,0.053l-0.532,3c-0.037,0.235-0.05,0.386-0.016,0.449
				c0.037,0.063,0.145,0.1,0.323,0.104l0.403,0.013l-0.029,0.199c-0.425-0.015-0.792-0.019-1.104-0.019
				c-0.306,0-0.678,0.004-1.105,0.019l0.029-0.199l0.352-0.013c0.154-0.004,0.257-0.04,0.307-0.104
				C58.36,59.397,58.412,59.244,58.452,59.007z"/>
		</g>
	</g>
</g>
</svg>
