<?xml version="1.0" encoding="utf-8"?>
<!-- Generator: Adobe Illustrator 16.0.0, SVG Export Plug-In . SVG Version: 6.00 Build 0)  -->
<!DOCTYPE svg PUBLIC "-//W3C//DTD SVG 1.1//EN" "http://www.w3.org/Graphics/SVG/1.1/DTD/svg11.dtd">
<svg version="1.1" id="Layer_1" xmlns="http://www.w3.org/2000/svg" xmlns:xlink="http://www.w3.org/1999/xlink" x="0px" y="0px"
	 width="259.292px" height="98.312px" viewBox="0 0 259.292 98.312" enable-background="new 0 0 259.292 98.312"
	 xml:space="preserve">
<path fill="#08BCA2" d="M130.479,94.312c-45.042,0-81.723-36.494-82.022-81.467H7.413v-1.111H49.57v0.556
	c0,44.613,36.295,80.908,80.908,80.908s80.91-36.295,80.91-80.908v-0.556h40.49v1.111h-39.384
	C212.197,57.817,175.518,94.312,130.479,94.312z"/>
<circle fill="#08BCA2" cx="251.669" cy="12.29" r="4.185"/>
<path fill="#08BCA2" d="M7.62,8.104c-2.311,0-4.183,1.874-4.183,4.185c0,2.312,1.872,4.186,4.183,4.186
	c2.313,0,4.188-1.874,4.188-4.186C11.808,9.979,9.934,8.104,7.62,8.104z"/>
</svg>
