<?xml version="1.0" encoding="utf-8"?>
<!-- Generator: Adobe Illustrator 16.0.0, SVG Export Plug-In . SVG Version: 6.00 Build 0)  -->
<!DOCTYPE svg PUBLIC "-//W3C//DTD SVG 1.1//EN" "http://www.w3.org/Graphics/SVG/1.1/DTD/svg11.dtd">
<svg version="1.1" id="Layer_1" xmlns="http://www.w3.org/2000/svg" xmlns:xlink="http://www.w3.org/1999/xlink" x="0px" y="0px"
	 width="259.292px" height="98.312px" viewBox="0 0 259.292 98.312" enable-background="new 0 0 259.292 98.312"
	 xml:space="preserve">
<g>
	<path fill="#023351" d="M130.477,96.312c-45.038,0-81.719-36.494-82.018-81.467H7.412v-1.112h42.156v0.557
		c0,44.613,36.295,80.908,80.908,80.908c44.617,0,80.91-36.295,80.91-80.908v-0.556h40.493v1.111h-39.382
		C212.201,59.817,175.519,96.312,130.477,96.312z"/>
	<circle fill="#023351" cx="251.671" cy="14.29" r="4.185"/>
	<path fill="#023351" d="M7.621,10.104c-2.311,0-4.184,1.874-4.184,4.188c0,2.309,1.873,4.183,4.184,4.183
		c2.313,0,4.186-1.874,4.186-4.183C11.807,11.979,9.935,10.104,7.621,10.104z"/>
</g>
</svg>
