<?xml version="1.0" encoding="utf-8"?>
<!-- Generator: Adobe Illustrator 16.0.0, SVG Export Plug-In . SVG Version: 6.00 Build 0)  -->
<!DOCTYPE svg PUBLIC "-//W3C//DTD SVG 1.1//EN" "http://www.w3.org/Graphics/SVG/1.1/DTD/svg11.dtd">
<svg version="1.1" id="Layer_1" xmlns="http://www.w3.org/2000/svg" xmlns:xlink="http://www.w3.org/1999/xlink" x="0px" y="0px"
	 width="30px" height="30px" viewBox="0 0 30 30" enable-background="new 0 0 30 30" xml:space="preserve">
<g>
	<g>
		<path fill="#FFFFFF" d="M20.534,23.169c0.791,0,1.54,0,2.319,0c0-0.774,0-1.54,0-2.317c0.114-0.016,0.194-0.021,0.275-0.021
			c1.098,0,2.189,0.004,3.287-0.006c0.18,0,0.287,0.066,0.413,0.182c0.503,0.467,0.665,1.014,0.631,1.696
			c-0.056,1.196-0.013,2.401-0.013,3.601c0,0.113,0,0.223,0,0.359c-4.198,0-8.377,0-12.576,0c0-1.836,0-3.676,0-5.555
			c1.869-0.406,3.75-0.818,5.656-1.24C20.534,20.977,20.534,22.057,20.534,23.169z M23.695,21.896c0,0.646,0,1.229,0,1.826
			c0.824,0,1.605,0,2.416,0c0-0.621,0-1.212,0-1.826C25.296,21.896,24.512,21.896,23.695,21.896z M16.363,21.896
			c0,0.646,0,1.229,0,1.826c0.826,0,1.607,0,2.42,0c0-0.621,0-1.212,0-1.826C17.961,21.896,17.182,21.896,16.363,21.896z"/>
		<path fill="#FFFFFF" d="M18.671,19.814c-0.739,0.164-1.468,0.318-2.239,0.486c0.164-1.712,0.336-3.394,0.5-5.093
			c0.412,0,0.813,0,1.241,0C18.337,16.739,18.505,18.262,18.671,19.814z"/>
		<path fill="#FFFFFF" d="M20.771,14.358c-0.358,0.295-0.703,0.314-1.084,0.067c-0.332,0.339-0.697,0.403-1.041,0.151
			c-0.293,0.088-0.537,0.194-0.787,0.225c-0.408,0.049-0.52-0.109-0.408-0.516c0.039-0.136,0.042-0.299,0.117-0.418
			c0.08-0.126,0.224-0.213,0.343-0.316c0.024,0.021,0.046,0.043,0.067,0.064c0.027-0.087,0.045-0.175,0.078-0.261
			c0.106-0.299,0.438-0.477,0.741-0.422c0.226,0.04,0.474,0.153,0.666,0.089c0.341-0.111,0.651-0.223,1-0.053
			c0.021,0.011,0.077-0.075,0.132-0.094c0.133-0.056,0.305-0.168,0.407-0.127c0.407,0.147,0.796,0.014,1.188,0
			c0.336-0.015,0.613,0.25,0.596,0.534c-0.014,0.185-0.432,0.677-0.611,0.748c-0.104,0.04-0.209,0.101-0.302,0.173
			c-0.119,0.089-0.899,0.224-1.051,0.171C20.809,14.365,20.792,14.365,20.771,14.358z"/>
		<path fill="#FFFFFF" d="M26.169,20.4c-0.667,0-1.31,0-1.994,0c0.147-1.519,0.3-3.021,0.445-4.525c0.373,0,0.72,0,1.104,0
			C25.874,17.376,26.021,18.879,26.169,20.4z"/>
		<path fill="#FFFFFF" d="M25.467,14.391c0.18-0.476,0.416-0.593,0.938-0.492c0.199,0.036,0.429,0.076,0.66-0.042
			c0.17-0.085,0.418-0.015,0.699-0.015c0.172-0.166,0.418-0.198,0.733-0.091c0.192,0.066,0.446-0.038,0.668-0.061
			c0.333-0.04,0.67,0.168,0.59,0.423c-0.083,0.259-0.307,0.476-0.493,0.689c-0.078,0.089-0.205,0.136-0.318,0.191
			c-0.075,0.039-0.152,0.059-0.234,0.082c-0.113,0.03-0.234,0.084-0.343,0.069c-0.371-0.054-0.681,0.25-1.046,0.167
			c-0.1-0.024-0.191-0.07-0.305-0.119c-0.254,0.233-0.543,0.344-0.896,0.137c-0.042-0.027-0.136,0.012-0.197,0.027
			c-0.157,0.05-0.31,0.133-0.472,0.158c-0.4,0.062-0.526-0.097-0.407-0.479c0.034-0.122,0.037-0.265,0.104-0.366
			C25.223,14.556,25.355,14.484,25.467,14.391z"/>
	</g>
</g>
<g>
	<g>
		<path fill="#FFFFFF" d="M6.67,11.94c0.792,0,1.536,0,2.319,0c0-0.776,0-1.54,0-2.322C9.102,9.61,9.18,9.602,9.265,9.602
			c1.095,0,2.191,0.002,3.286-0.007c0.181,0,0.29,0.072,0.413,0.187c0.506,0.461,0.665,1.006,0.634,1.695
			c-0.051,1.197-0.013,2.403-0.013,3.6c0,0.113,0,0.223,0,0.357c-4.198,0-8.376,0-12.574,0c0-1.836,0-3.677,0-5.551
			c1.868-0.41,3.75-0.822,5.655-1.244C6.67,9.748,6.67,10.832,6.67,11.94z M9.832,10.668c0,0.644,0,1.231,0,1.825
			c0.825,0,1.603,0,2.416,0c0-0.621,0-1.208,0-1.825C11.432,10.668,10.645,10.668,9.832,10.668z M2.498,10.668
			c0,0.644,0,1.231,0,1.825c0.827,0,1.609,0,2.417,0c0-0.621,0-1.208,0-1.825C4.097,10.668,3.317,10.668,2.498,10.668z"/>
		<path fill="#FFFFFF" d="M4.806,8.588C4.067,8.75,3.336,8.906,2.567,9.074c0.164-1.709,0.334-3.394,0.496-5.09
			c0.417,0,0.814,0,1.241,0C4.472,5.511,4.639,7.032,4.806,8.588z"/>
		<path fill="#FFFFFF" d="M6.908,3.133c-0.36,0.291-0.703,0.313-1.086,0.063C5.49,3.535,5.124,3.603,4.786,3.351
			c-0.298,0.088-0.54,0.193-0.791,0.223c-0.409,0.047-0.517-0.11-0.409-0.515c0.039-0.139,0.04-0.301,0.116-0.416
			c0.078-0.129,0.224-0.217,0.346-0.32C4.069,2.34,4.092,2.366,4.113,2.388C4.14,2.302,4.157,2.212,4.187,2.126
			c0.112-0.298,0.44-0.476,0.747-0.422C5.158,1.745,5.41,1.858,5.597,1.792C5.942,1.684,6.25,1.569,6.601,1.744
			c0.018,0.01,0.077-0.076,0.13-0.097c0.135-0.053,0.304-0.167,0.41-0.128c0.409,0.149,0.791,0.012,1.188,0
			c0.333-0.015,0.616,0.248,0.595,0.534C8.909,2.239,8.49,2.729,8.313,2.799C8.206,2.842,8.104,2.902,8.01,2.969
			c-0.117,0.095-0.903,0.23-1.05,0.173C6.944,3.137,6.924,3.137,6.908,3.133z"/>
		<path fill="#FFFFFF" d="M12.303,9.175c-0.669,0-1.309,0-1.996,0c0.152-1.521,0.301-3.02,0.448-4.529c0.374,0,0.718,0,1.1,0
			C12.007,6.149,12.155,7.652,12.303,9.175z"/>
		<path fill="#FFFFFF" d="M11.601,3.162c0.178-0.476,0.418-0.593,0.938-0.491c0.196,0.038,0.424,0.075,0.66-0.042
			c0.169-0.084,0.419-0.016,0.702-0.016c0.169-0.164,0.417-0.2,0.729-0.091c0.192,0.068,0.449-0.033,0.671-0.059
			c0.331-0.04,0.668,0.168,0.59,0.42c-0.084,0.258-0.31,0.478-0.494,0.694c-0.081,0.09-0.213,0.13-0.321,0.188
			C15,3.802,14.921,3.823,14.84,3.845c-0.112,0.031-0.237,0.087-0.341,0.069c-0.369-0.054-0.679,0.25-1.047,0.17
			c-0.097-0.021-0.188-0.073-0.302-0.118c-0.252,0.232-0.54,0.346-0.895,0.132c-0.042-0.025-0.134,0.01-0.198,0.031
			c-0.158,0.049-0.312,0.131-0.473,0.157C11.188,4.35,11.06,4.19,11.177,3.808c0.035-0.124,0.039-0.264,0.105-0.365
			C11.356,3.326,11.492,3.256,11.601,3.162z"/>
	</g>
</g>
<g>
	<polyline fill="none" stroke="#FFFFFF" stroke-miterlimit="10" points="5,18.5 5,25 8.5,25 	"/>
	<g>
		<circle fill="#FFFFFF" cx="5.281" cy="18.38" r="1.128"/>
		<path fill="#FFFFFF" d="M4.003,18.38c0,0.704,0.573,1.277,1.278,1.277c0.705,0,1.278-0.573,1.278-1.277
			c0-0.705-0.573-1.278-1.278-1.278C4.576,17.102,4.003,17.675,4.003,18.38C4.003,19.084,4.003,17.675,4.003,18.38z M6.259,18.38
			c0,0.539-0.438,0.978-0.978,0.978c-0.54,0-0.978-0.438-0.978-0.978S4.741,17.4,5.281,17.4C5.821,17.4,6.259,17.84,6.259,18.38
			C6.259,18.919,6.259,17.84,6.259,18.38z"/>
	</g>
	<g>
		<polygon fill="#FFFFFF" points="8.5,26.988 11.954,24.994 8.5,23 		"/>
	</g>
</g>
<g>
	<polyline fill="none" stroke="#FFFFFF" stroke-miterlimit="10" points="25,10.5 25,4 21.5,4 	"/>
	<g>
		<circle fill="#FFFFFF" cx="24.752" cy="10.735" r="1.128"/>
		<path fill="#FFFFFF" d="M26.029,10.735c0-0.705-0.572-1.278-1.277-1.278s-1.277,0.573-1.277,1.278
			c0,0.705,0.572,1.278,1.277,1.278S26.029,11.44,26.029,10.735C26.029,10.03,26.029,11.44,26.029,10.735z M23.773,10.735
			c0-0.54,0.438-0.978,0.979-0.978s0.979,0.438,0.979,0.978c0,0.539-0.438,0.978-0.979,0.978S23.773,11.274,23.773,10.735
			S23.773,11.274,23.773,10.735z"/>
	</g>
	<g>
		<polygon fill="#FFFFFF" points="21.5,2.126 18.046,4.121 21.5,6.116 		"/>
	</g>
</g>
</svg>
