<?xml version="1.0" encoding="utf-8"?>
<!-- Generator: Adobe Illustrator 16.0.0, SVG Export Plug-In . SVG Version: 6.00 Build 0)  -->
<!DOCTYPE svg PUBLIC "-//W3C//DTD SVG 1.1//EN" "http://www.w3.org/Graphics/SVG/1.1/DTD/svg11.dtd">
<svg version="1.1" id="Layer_1" xmlns="http://www.w3.org/2000/svg" xmlns:xlink="http://www.w3.org/1999/xlink" x="0px" y="0px"
	 width="30px" height="30px" viewBox="0 0 30 30" enable-background="new 0 0 30 30" xml:space="preserve">
<g id="Layer_2_4_">
	<g>
		<g>
			<g>
				<path fill="#FFFFFF" d="M12.333,12.367c0.042-0.009,0.072-0.019,0.105-0.024c-0.033-0.042-0.064-0.086-0.105-0.128
					C12.333,12.268,12.332,12.316,12.333,12.367z"/>
				<g>
					<path fill="#FFFFFF" d="M10.204,10.414c-0.29,0.607-0.505,1.282-0.663,2.012c-0.025,0.128-0.052,0.259-0.078,0.386
						c-0.055,0.291-0.102,0.589-0.141,0.893c0.175-0.099,0.345-0.198,0.52-0.302c0.175-0.1,0.346-0.2,0.521-0.301
						c0.379-0.199,0.775-0.383,1.229-0.508c0.082-0.302,0.18-0.592,0.291-0.87c0.132-0.329,0.284-0.636,0.478-0.909
						c0.044,0.525-0.034,0.917-0.028,1.399c0.042,0.042,0.072,0.087,0.105,0.128c0.485-0.12,0.982-0.228,1.602-0.222
						c0.208-1.51,0.303-3.131,0.5-4.653C12.294,7.677,10.981,8.785,10.204,10.414z"/>
					<path fill="#FFFFFF" d="M20.514,13.618c-0.025-0.187-0.056-0.365-0.088-0.541c-0.033-0.172-0.064-0.336-0.101-0.503
						c-0.161-0.729-0.373-1.4-0.654-2.004c-0.815-1.746-2.198-2.899-4.491-3.119c0.133,1.604,0.353,3.119,0.511,4.69
						c0.595,0.037,1.065,0.2,1.566,0.326c0.086,0.024,0.17,0.046,0.264,0.065c-0.006-0.099-0.016-0.2-0.021-0.295
						c-0.045-0.487-0.125-0.932-0.125-1.462c0.253,0.282,0.438,0.634,0.589,1.014c0.126,0.33,0.228,0.676,0.31,1.05
						c0.121,0.063,0.258,0.128,0.393,0.196c0.497,0.253,1.043,0.539,1.439,0.834c0.179,0.135,0.289,0.438,0.485,0.314
						C20.568,13.992,20.546,13.802,20.514,13.618z"/>
				</g>
				<path fill="#FFFFFF" d="M17.602,4.216C17.57,2.653,16.279,1.41,14.718,1.44c-1.561,0.03-2.806,1.323-2.774,2.882
					c0.028,1.562,1.316,2.806,2.883,2.778C16.387,7.068,17.632,5.778,17.602,4.216z"/>
			</g>
			<g>
				<g>
					<path fill="#FFFFFF" d="M3.236,19.584c0.412-0.715,0.744-2.177,1.382-2.842c-0.188-0.662-0.3-1.313-0.253-1.919
						c0.341,0.468,0.45,0.881,0.775,1.34c0.387-0.375,0.761-0.755,1.338-1.083c-0.602-1.402-1.348-2.842-1.962-4.25
						C1.636,12.938,1.456,15.913,3.236,19.584z"/>
					<path fill="#FFFFFF" d="M9.054,12.803c-0.141-0.181-0.273-0.37-0.405-0.591c0.157,0.051,0.304,0.118,0.454,0.196
						c0.107-0.74,0.272-1.428,0.514-2.056c-1.359-0.628-2.857-0.677-4.56,0.134c0.939,1.313,1.904,2.499,2.845,3.764
						c0.617-0.314,1.255-0.54,1.089-0.431C9.01,13.515,9.02,13.099,9.054,12.803z"/>
				</g>
				<path fill="#FFFFFF" d="M3.253,5.491c1.442,0,2.61,1.168,2.61,2.61c0,1.444-1.168,2.615-2.61,2.615s-2.615-1.17-2.615-2.614
					C0.638,6.659,1.812,5.491,3.253,5.491z"/>
			</g>
			<g>
				<g>
					<path fill="#FFFFFF" d="M26.807,19.273c-0.412-0.715-0.752-1.451-1.386-2.116c0.181-0.664,0.288-1.313,0.242-1.918
						c-0.338,0.47-0.451,0.879-0.769,1.345c-0.381-0.375-0.766-0.75-1.344-1.08c0.598-1.41,1.342-2.848,1.947-4.259
						C28.385,13.342,28.529,16.156,26.807,19.273z"/>
					<path fill="#FFFFFF" d="M20.969,13.235c0.139-0.183,0.271-0.374,0.401-0.593c-0.156,0.052-0.302,0.122-0.451,0.198
						c-0.108-0.738-0.276-1.429-0.528-2.052c1.362-0.636,2.86-0.687,4.56,0.118c-0.931,1.31-1.888,2.5-2.83,3.771
						c-0.614-0.313-1.255-0.533-1.08-0.422C21.014,13.948,21.002,13.528,20.969,13.235z"/>
				</g>
				<path fill="#FFFFFF" d="M26.752,5.901c1.441,0,2.609,1.17,2.609,2.609c0,1.448-1.168,2.615-2.609,2.615
					c-1.438,0-2.611-1.167-2.611-2.615C24.141,7.071,25.313,5.901,26.752,5.901z"/>
			</g>
		</g>
		<path fill="#FFFFFF" d="M15.141,21.014l-2.885-2.271h5.467L15.141,21.014z M13.729,20.742l-1.726,1.898v-3.257L13.729,20.742z
			 M14.249,21.155l0.915,0.72l0.842-0.741l1.737,1.918h-5.216L14.249,21.155z M16.503,20.693l1.492-1.313v2.964L16.503,20.693z"/>
		<path fill="#FFFFFF" d="M23.413,20.531h-1.458c-0.186-3.475-2.964-6.262-6.43-6.466v-1.568c0-0.203-0.165-0.368-0.373-0.368
			c-0.203,0-0.371,0.165-0.371,0.368v1.565c-3.504,0.167-6.318,2.968-6.506,6.469H6.589c-0.205,0-0.366,0.166-0.366,0.371
			c0,0.203,0.161,0.369,0.366,0.369h1.687c0.187,3.5,3.002,6.308,6.506,6.474v1.646c0,0.205,0.168,0.368,0.371,0.368
			c0.208,0,0.373-0.163,0.373-0.368v-1.65c3.466-0.201,6.244-2.992,6.43-6.469h1.458c0.202,0,0.369-0.166,0.369-0.369
			C23.782,20.697,23.615,20.531,23.413,20.531z M15.525,27.003v-1.334c0-0.201-0.165-0.366-0.373-0.366
			c-0.203,0-0.371,0.165-0.371,0.366v1.338c-3.098-0.167-5.582-2.639-5.771-5.735h1.294c0.21,0,0.375-0.166,0.375-0.367
			c0-0.206-0.164-0.372-0.375-0.372H9.012c0.188-3.091,2.676-5.566,5.771-5.733v1.422c0,0.201,0.168,0.368,0.371,0.368
			c0.208,0,0.374-0.167,0.374-0.368v-1.413c3.061,0.198,5.509,2.659,5.688,5.724h-1.521c-0.207,0-0.369,0.166-0.369,0.372
			c0,0.201,0.162,0.367,0.369,0.367h1.521C21.035,24.341,18.587,26.803,15.525,27.003z"/>
	</g>
</g>
</svg>
