<?xml version="1.0" encoding="utf-8"?>
<!-- Generator: Adobe Illustrator 16.0.0, SVG Export Plug-In . SVG Version: 6.00 Build 0)  -->
<!DOCTYPE svg PUBLIC "-//W3C//DTD SVG 1.1//EN" "http://www.w3.org/Graphics/SVG/1.1/DTD/svg11.dtd">
<svg version="1.1" id="Layer_1" xmlns="http://www.w3.org/2000/svg" xmlns:xlink="http://www.w3.org/1999/xlink" x="0px" y="0px"
	 width="145px" height="100.334px" viewBox="0 0 145 100.334" enable-background="new 0 0 145 100.334" xml:space="preserve">
<g>
	<g>
		<path fill="#C9C9C9" d="M70.886,5.01c0.245,0,0.494,0,0.747,0c0.345,0.017,0.686,0.065,0.998,0.121
			c2.227,0.398,3.816,1.385,5.23,2.619c1.597,1.401,2.845,3.13,3.904,5.048c0.008,0.023,0.034,0.085,0.049,0.107
			c0.046,0.033,0.036,0.02,0.089,0.027c0.291,0.046,0.588,0.046,0.873,0.076c0.886,0.092,1.699,0.211,2.483,0.39
			c3.113,0.707,5.636,2.036,7.296,4.226c1.104,1.471,1.845,3.352,1.728,5.923c-0.052,1.183-0.313,2.249-0.642,3.205
			c-0.32,0.969-0.708,1.831-1.161,2.67c-0.006,0.029-0.028,0.052-0.036,0.074c-0.025,0.074,0.054,0.149,0.094,0.24
			c0.823,1.581,1.558,3.366,1.724,5.534c0.211,2.666-0.572,4.6-1.64,6.055c-1.902,2.608-5.025,4.061-8.921,4.626
			c-0.565,0.082-1.15,0.105-1.768,0.179c-0.064,0.009-0.066,0-0.104,0.031c-0.022,0.023-0.024,0.051-0.051,0.085
			c-1.072,1.972-2.371,3.713-4.027,5.162c-0.797,0.706-1.721,1.337-2.787,1.812c-1.059,0.484-2.316,0.836-3.756,0.836
			c-0.757,0-1.404-0.112-2.026-0.268c-1.827-0.449-3.272-1.371-4.473-2.434c-1.556-1.388-2.735-2.965-3.808-4.816
			c-0.05-0.093-0.139-0.301-0.204-0.37c-0.057-0.041-0.075-0.029-0.161-0.038c-2.348-0.138-4.492-0.637-6.259-1.419
			c-1.79-0.793-3.25-1.872-4.348-3.326c-0.551-0.731-1.003-1.549-1.298-2.542c-0.294-0.972-0.482-2.135-0.388-3.413
			c0.168-2.271,0.826-3.956,1.654-5.542c0.054-0.105,0.195-0.316,0.171-0.392c-0.032-0.1-0.117-0.2-0.171-0.296
			c-0.167-0.327-0.319-0.665-0.46-0.99c-0.604-1.351-1.059-2.771-1.194-4.588c-0.095-1.277,0.094-2.453,0.388-3.421
			c0.304-0.995,0.766-1.8,1.313-2.538c1.09-1.469,2.579-2.541,4.383-3.329c1.673-0.729,3.641-1.19,5.849-1.373
			c0.147-0.012,0.325,0.009,0.453-0.028c0.069-0.019,0.069-0.049,0.105-0.111c1.044-1.914,2.333-3.672,3.91-5.064
			C66.278,6.325,68.074,5.252,70.886,5.01z M81.168,12.731c-1.021-1.915-2.232-3.659-3.754-5.059
			c-0.778-0.711-1.659-1.368-2.69-1.861c-1.02-0.478-2.281-0.854-3.767-0.785c-0.349,0.018-0.71,0.056-1.026,0.104
			c-0.305,0.053-0.597,0.125-0.885,0.21c-1.681,0.495-2.971,1.407-4.108,2.482c-1.45,1.38-2.62,3.07-3.59,4.909
			c-0.029,0.054-0.07,0.108-0.068,0.171c3.812-0.124,7.049,0.49,9.984,1.309c2.924-0.824,6.155-1.433,9.971-1.309
			C81.234,12.84,81.187,12.786,81.168,12.731z M58.635,20.279c0.048,0.006,0.096-0.051,0.137-0.085
			C62.026,17.855,65.758,16,69.925,14.6c-2.677-0.686-5.529-1.201-8.92-1.175C59.985,15.483,59.222,17.789,58.635,20.279z
			 M72.588,14.608c2.136,0.677,4.124,1.551,6.01,2.485c1.413,0.702,2.748,1.519,4.022,2.342c0.405,0.259,0.798,0.556,1.178,0.814
			c0.02,0.011,0.051,0.038,0.074,0.03c-0.591-2.49-1.35-4.81-2.373-6.854C78.113,13.405,75.246,13.905,72.588,14.608z
			 M57.507,21.149c0.083-0.069,0.24-0.169,0.268-0.227c0.024-0.062,0.034-0.166,0.055-0.258c0.556-2.333,1.253-4.436,2.171-6.387
			c0.107-0.232,0.25-0.507,0.358-0.748c0.059-0.125,0.012-0.077-0.073-0.074c-1.153,0.024-2.282,0.176-3.314,0.387
			c-3.088,0.621-5.577,1.888-7.142,4c-1.027,1.39-1.737,3.34-1.475,5.815c0.245,2.195,1.075,3.896,1.965,5.471
			C52.176,25.928,54.676,23.373,57.507,21.149z M82.116,13.474c1.104,2.145,1.95,4.545,2.565,7.182
			c0.016,0.092,0.025,0.204,0.06,0.266c0.028,0.06,0.171,0.148,0.265,0.218c2.848,2.219,5.339,4.829,7.201,7.989
			c0.871-1.578,1.7-3.298,1.949-5.49c0.139-1.192,0.028-2.389-0.266-3.346c-0.86-2.854-2.893-4.546-5.539-5.629
			c-1.789-0.724-3.881-1.122-6.235-1.225C82.103,13.443,82.116,13.464,82.116,13.474z M70.722,14.099
			c-0.237,0.384-0.465,0.864-0.703,1.279c-4.378,1.48-8.205,3.516-11.613,5.97c-0.108,0.612-0.218,1.217-0.313,1.847
			c-0.089,0.624-0.169,1.253-0.24,1.906c-0.347,3.213-0.257,7.028,0.151,10.084c0.075,0.627,0.197,1.239,0.283,1.86
			c0.002,0.058-0.102,0.207-0.149,0.27c-0.152,0.266-0.298,0.493-0.455,0.744c-2.912-2.255-5.468-4.865-7.381-8.125
			c-0.88,1.58-1.696,3.305-1.951,5.497c-0.285,2.483,0.482,4.472,1.509,5.831c2.12,2.821,5.847,4.123,10.536,4.361
			c-0.973-1.941-1.795-4.088-2.354-6.411c0.225,0.01,0.491-0.009,0.694,0.01c0.581,2.32,1.308,4.493,2.279,6.415
			c3.381,0.025,6.249-0.479,8.91-1.182c-3.985-1.306-7.545-3.08-10.64-5.243c0.312,0,0.672,0,0.981,0c0.099,0,0.303-0.026,0.354,0
			c0.199,0.106,0.395,0.25,0.59,0.369c3.031,1.828,6.314,3.362,10.029,4.501c0.014,0,0.024,0,0.024,0
			c3.828-1.194,7.231-2.74,10.316-4.672c0.138-0.085,0.233-0.18,0.37-0.188c0.422-0.026,0.927-0.02,1.335-0.05
			c-3.138,2.19-6.699,3.96-10.703,5.292c2.685,0.687,5.535,1.2,8.935,1.173c0.949-1.966,1.695-4.135,2.272-6.481
			c0.23,0,0.501-0.024,0.712-0.015c-0.563,2.287-1.366,4.405-2.303,6.298c-0.03,0.056-0.082,0.113-0.069,0.179
			c2.346-0.1,4.439-0.5,6.223-1.219c1.765-0.717,3.266-1.729,4.309-3.138c1.017-1.382,1.783-3.363,1.496-5.838
			c-0.249-2.189-1.064-3.924-1.958-5.492c-1.9,3.263-4.448,5.856-7.354,8.104c-0.205-0.331-0.424-0.647-0.631-0.973
			c0.462-2.38,0.663-5.089,0.663-7.906c0-2.809-0.333-5.434-0.775-7.792c-3.702-2.713-7.979-4.912-12.888-6.385
			C71.05,14.685,70.886,14.392,70.722,14.099z M57.549,22.02c0-0.006-0.01-0.008-0.012-0.006c-2.715,2.125-5.145,4.529-6.99,7.522
			c1.385,2.241,3.123,4.155,5.019,5.876c0.588,0.538,1.226,1.066,1.858,1.553c0.033,0.026,0.074,0.072,0.125,0.065
			C56.637,32.588,56.637,26.459,57.549,22.02z M84.977,22.02c-0.006-0.008-0.011-0.006-0.011,0.01
			c0.426,2.242,0.689,4.849,0.689,7.51c0,2.653-0.264,5.263-0.689,7.504c2.709-2.091,5.154-4.532,6.99-7.517
			C90.107,26.554,87.693,24.131,84.977,22.02z M71.818,45.015c-0.186-0.053-0.374-0.122-0.555-0.156
			c-0.067-0.006-0.214,0.053-0.307,0.081c-2.883,0.789-5.98,1.333-9.68,1.223c0,0.06,0.037,0.118,0.07,0.17
			c0.482,0.914,1.01,1.789,1.599,2.599c1.235,1.73,2.716,3.247,4.696,4.241c0.995,0.509,2.16,0.866,3.61,0.866
			c1.447,0,2.601-0.363,3.607-0.866c1.001-0.49,1.88-1.131,2.626-1.847c1.486-1.406,2.675-3.106,3.682-4.985
			c0.035-0.058,0.071-0.135,0.066-0.179C77.654,46.253,74.599,45.775,71.818,45.015z"/>
		<path fill="#CC0917" d="M73.693,19.873c-1.972,0-3.955,0-5.928,0c-0.006-0.063,0.044-0.11,0.062-0.16
			c0.447-0.835,0.906-1.686,1.353-2.531c0.49-0.915,0.993-1.833,1.474-2.733C71.67,16.244,72.707,18.084,73.693,19.873z"/>
		<path fill="#1C75BC" d="M72.6,30.985c-1.134,0.017-2.273,0.038-3.419,0.051c0.01-3.44,0.036-6.873,0.05-10.304
			c0.815-0.016,1.566-0.045,2.384-0.045c0.259,0,0.566-0.005,0.826-0.022c0.075-0.008,0.045,0.014,0.052,0.129
			c0.039,0.825,0,1.621,0.037,2.421c0.03,0.897,0.016,1.749,0.016,2.591C72.545,27.552,72.606,29.263,72.6,30.985z"/>
		
			<linearGradient id="SVGID_1_" gradientUnits="userSpaceOnUse" x1="24.9287" y1="575.6904" x2="24.9287" y2="540.2583" gradientTransform="matrix(1 0 0 1 54.771 -514.0469)">
			<stop  offset="0" style="stop-color:#1C5FBC"/>
			<stop  offset="1" style="stop-color:#1C75BC"/>
		</linearGradient>
		<path fill="url(#SVGID_1_)" d="M74.06,22.068c4.177,6.437,8.39,12.89,12.524,19.329c-1.377,0.043-2.795,0.121-4.226,0.157
			c-0.103,0.004-0.223,0.028-0.276,0.013c-0.081-0.025-0.195-0.275-0.269-0.385c-1.274-1.965-2.586-4.004-3.848-5.946
			c-1.723-0.009-3.438-0.035-5.151-0.053c0-0.945,0-1.888,0-2.829c1.094-0.011,2.185-0.031,3.29-0.031
			c-0.569-1.097-1.244-2.253-1.876-3.39c-0.041-0.072-0.103-0.167-0.119-0.222c-0.056-0.215-0.008-0.546-0.008-0.826
			c0-0.851-0.025-1.624-0.025-2.484c0-1.123-0.056-2.201-0.027-3.301C74.049,22.086,74.04,22.073,74.06,22.068z"/>
		
			<linearGradient id="SVGID_2_" gradientUnits="userSpaceOnUse" x1="9.4888" y1="575.6924" x2="9.4888" y2="540.2596" gradientTransform="matrix(1 0 0 1 54.771 -514.0469)">
			<stop  offset="0" style="stop-color:#1C5FBC"/>
			<stop  offset="1" style="stop-color:#1C75BC"/>
		</linearGradient>
		<path fill="url(#SVGID_2_)" d="M67.583,22.144c0.06,1.849,0.021,3.784,0.071,5.677c0.003,0.275,0.035,0.595,0,0.817
			c-0.023,0.082-0.117,0.192-0.177,0.297c-1.701,3.105-3.459,6.154-5.168,9.243c2.023-0.057,4.048-0.102,6.076-0.147
			c0.039-0.701,0.041-1.435,0.066-2.135c1.365-0.015,2.727-0.037,4.094-0.054c0.019,1.87,0.046,3.733,0.054,5.617
			c-5.57,0.007-11.12,0.033-16.675,0.054c-0.019-0.054,0.034-0.108,0.062-0.151c2.869-4.771,5.804-9.553,8.663-14.354
			c0.486-0.812,0.966-1.621,1.466-2.421C66.604,23.775,67.096,22.963,67.583,22.144z"/>
	</g>
	<g>
		<path d="M2.921,95.721V84.879h1.436v10.842H2.921z"/>
		<path d="M8.229,95.721v-7.853H9.43v1.115c0.571-0.865,1.404-1.295,2.493-1.295c0.473,0,0.905,0.09,1.309,0.258
			c0.396,0.172,0.688,0.389,0.89,0.668c0.192,0.276,0.333,0.598,0.409,0.983c0.053,0.246,0.08,0.679,0.08,1.293v4.83h-1.334v-4.776
			c0-0.544-0.051-0.946-0.158-1.22c-0.102-0.267-0.285-0.481-0.549-0.64c-0.265-0.162-0.571-0.243-0.929-0.243
			c-0.567,0-1.05,0.181-1.469,0.539c-0.405,0.359-0.615,1.042-0.615,2.046v4.294H8.229L8.229,95.721z"/>
		<path d="M18.484,95.721v-6.818h-1.182v-1.034h1.182v-0.839c0-0.523,0.042-0.915,0.131-1.173c0.131-0.343,0.358-0.626,0.682-0.84
			c0.33-0.21,0.771-0.32,1.351-0.32c0.381,0,0.788,0.043,1.249,0.133l-0.198,1.16c-0.28-0.052-0.539-0.07-0.783-0.07
			c-0.409,0-0.694,0.084-0.859,0.257c-0.172,0.173-0.252,0.496-0.252,0.968v0.725h1.529v1.034h-1.529v6.818H18.484L18.484,95.721z"
			/>
		<path d="M23.854,95.721V84.879h1.334v10.842H23.854z"/>
		<path d="M33.903,95.721v-1.153c-0.612,0.885-1.44,1.331-2.497,1.331c-0.456,0-0.889-0.093-1.286-0.269
			c-0.402-0.178-0.708-0.397-0.895-0.666c-0.202-0.268-0.334-0.602-0.417-0.989c-0.054-0.262-0.076-0.674-0.076-1.243v-4.863h1.328
			v4.354c0,0.693,0.03,1.162,0.081,1.404c0.089,0.349,0.26,0.632,0.535,0.823c0.271,0.202,0.607,0.305,1.007,0.305
			c0.396,0,0.769-0.103,1.123-0.311c0.352-0.204,0.595-0.478,0.741-0.834c0.144-0.352,0.216-0.865,0.216-1.533v-4.208h1.332v7.853
			H33.903L33.903,95.721z"/>
		<path d="M44.074,93.19l1.367,0.167c-0.214,0.81-0.613,1.432-1.204,1.875c-0.587,0.449-1.332,0.666-2.246,0.666
			c-1.146,0-2.061-0.359-2.731-1.065c-0.674-0.704-1.009-1.697-1.009-2.973c0-1.323,0.343-2.35,1.022-3.076
			c0.68-0.734,1.56-1.096,2.64-1.096c1.054,0,1.913,0.359,2.577,1.073c0.662,0.715,1.005,1.724,1.005,3.02
			c0,0.079-0.009,0.196-0.015,0.354h-5.86c0.054,0.859,0.299,1.524,0.731,1.977c0.443,0.463,0.991,0.692,1.646,0.692
			c0.487,0,0.908-0.129,1.252-0.389C43.588,94.162,43.865,93.75,44.074,93.19z M39.699,91.044h4.387
			c-0.057-0.667-0.232-1.161-0.503-1.489c-0.433-0.513-0.972-0.771-1.653-0.771c-0.61,0-1.123,0.203-1.537,0.611
			C39.979,89.803,39.738,90.359,39.699,91.044z"/>
		<path d="M48.629,95.721v-7.853h1.197v1.115c0.576-0.865,1.411-1.295,2.498-1.295c0.476,0,0.912,0.09,1.304,0.258
			c0.4,0.172,0.697,0.39,0.89,0.668c0.198,0.276,0.333,0.598,0.416,0.983c0.052,0.247,0.082,0.679,0.082,1.293v4.83h-1.343v-4.776
			c0-0.544-0.044-0.946-0.149-1.219c-0.104-0.268-0.287-0.482-0.553-0.641c-0.262-0.162-0.567-0.242-0.927-0.242
			c-0.564,0-1.054,0.18-1.469,0.538c-0.414,0.359-0.612,1.042-0.612,2.046v4.294H48.629L48.629,95.721z"/>
		<path d="M63.69,92.844l1.306,0.167c-0.142,0.904-0.502,1.607-1.094,2.118c-0.596,0.513-1.313,0.77-2.166,0.77
			c-1.087,0-1.95-0.358-2.603-1.061c-0.654-0.693-0.976-1.704-0.976-3.018c0-0.845,0.141-1.588,0.42-2.223
			c0.284-0.637,0.707-1.111,1.286-1.43c0.565-0.321,1.193-0.479,1.877-0.479c0.847,0,1.548,0.22,2.086,0.647
			c0.543,0.434,0.89,1.045,1.046,1.84l-1.3,0.195c-0.125-0.523-0.337-0.92-0.65-1.188c-0.312-0.266-0.693-0.398-1.139-0.398
			c-0.668,0-1.209,0.244-1.634,0.724c-0.414,0.479-0.626,1.236-0.626,2.278c0,1.058,0.2,1.821,0.612,2.295
			c0.403,0.486,0.926,0.723,1.576,0.723c0.521,0,0.957-0.16,1.309-0.479C63.37,94.001,63.597,93.508,63.69,92.844z"/>
		<path d="M73.019,93.19l1.379,0.167c-0.22,0.81-0.62,1.432-1.199,1.876c-0.592,0.448-1.343,0.665-2.25,0.665
			c-1.155,0-2.062-0.359-2.736-1.065c-0.667-0.704-1.014-1.697-1.014-2.973c0-1.323,0.347-2.35,1.025-3.076
			c0.68-0.734,1.562-1.096,2.653-1.096c1.043,0,1.896,0.359,2.563,1.073c0.67,0.715,1.001,1.724,1.001,3.02c0,0.079,0,0.196,0,0.354
			h-5.858c0.043,0.859,0.292,1.524,0.726,1.977c0.44,0.463,0.992,0.692,1.649,0.692c0.478,0,0.898-0.129,1.247-0.389
			C72.553,94.162,72.815,93.75,73.019,93.19z M68.654,91.044h4.386c-0.063-0.667-0.233-1.161-0.506-1.489
			c-0.424-0.513-0.979-0.771-1.648-0.771c-0.613,0-1.125,0.203-1.543,0.611C68.935,89.803,68.697,90.359,68.654,91.044z"/>
		<path d="M77.567,95.721v-7.853h1.193v1.188c0.311-0.553,0.59-0.921,0.85-1.102c0.262-0.177,0.542-0.267,0.854-0.267
			c0.45,0,0.91,0.146,1.373,0.43l-0.458,1.231c-0.324-0.186-0.651-0.286-0.979-0.286c-0.295,0-0.554,0.089-0.778,0.264
			c-0.228,0.179-0.4,0.418-0.497,0.728c-0.151,0.476-0.227,0.995-0.227,1.553v4.113H77.567L77.567,95.721z"/>
		<path d="M90.026,95.721V84.879h3.743c0.837,0,1.478,0.054,1.927,0.161c0.616,0.145,1.145,0.393,1.584,0.77
			c0.574,0.483,1,1.102,1.279,1.858c0.285,0.752,0.429,1.605,0.429,2.574c0,0.825-0.087,1.55-0.293,2.185
			c-0.191,0.639-0.435,1.165-0.737,1.583c-0.296,0.414-0.622,0.744-0.99,0.979c-0.354,0.245-0.782,0.427-1.285,0.54
			c-0.508,0.132-1.092,0.192-1.744,0.192H90.026L90.026,95.721z M91.466,94.438h2.31c0.721,0,1.274-0.065,1.681-0.198
			c0.408-0.135,0.729-0.318,0.98-0.561c0.336-0.34,0.599-0.799,0.79-1.371c0.19-0.578,0.288-1.272,0.288-2.089
			c0-1.135-0.192-2.006-0.561-2.612c-0.374-0.609-0.827-1.017-1.357-1.225c-0.383-0.148-1.006-0.223-1.854-0.223h-2.276V94.438
			L91.466,94.438z"/>
		<path d="M102.29,95.721v-7.853h1.202v1.188c0.305-0.553,0.584-0.921,0.85-1.102c0.256-0.177,0.54-0.267,0.851-0.267
			c0.447,0,0.899,0.146,1.366,0.43l-0.457,1.231c-0.324-0.186-0.653-0.286-0.979-0.286c-0.291,0-0.542,0.089-0.778,0.264
			c-0.23,0.179-0.399,0.418-0.5,0.728c-0.147,0.476-0.217,0.995-0.217,1.553v4.113H102.29L102.29,95.721z"/>
		<path d="M108.874,86.411v-1.532h1.325v1.532H108.874z M108.874,95.721v-7.853h1.325v7.853H108.874z"/>
		<path d="M115.92,95.721l-2.983-7.853h1.404l1.687,4.702c0.177,0.508,0.349,1.037,0.499,1.578c0.125-0.409,0.282-0.906,0.5-1.487
			l1.742-4.793h1.369l-2.978,7.853H115.92L115.92,95.721L115.92,95.721z"/>
		<path d="M128.197,93.19l1.38,0.167c-0.22,0.81-0.616,1.432-1.209,1.876c-0.585,0.448-1.333,0.665-2.245,0.665
			c-1.14,0-2.058-0.359-2.738-1.065c-0.67-0.704-1.003-1.697-1.003-2.973c0-1.323,0.337-2.35,1.02-3.076
			c0.684-0.734,1.563-1.096,2.645-1.096c1.048,0,1.912,0.359,2.576,1.073c0.667,0.715,0.989,1.724,0.989,3.02
			c0,0.079,0,0.196,0,0.354h-5.853c0.044,0.859,0.291,1.524,0.727,1.977c0.444,0.463,0.988,0.692,1.646,0.692
			c0.483,0,0.904-0.129,1.251-0.389C127.722,94.162,127.996,93.75,128.197,93.19z M123.834,91.044h4.376
			c-0.057-0.667-0.221-1.161-0.497-1.489c-0.429-0.513-0.981-0.771-1.651-0.771c-0.611,0-1.123,0.203-1.542,0.611
			C124.111,89.803,123.873,90.359,123.834,91.044z"/>
		<path d="M132.764,95.721v-7.853h1.19v1.115c0.584-0.864,1.411-1.295,2.501-1.295c0.473,0,0.907,0.09,1.306,0.258
			c0.395,0.172,0.693,0.39,0.893,0.668c0.197,0.276,0.336,0.598,0.407,0.983c0.053,0.247,0.074,0.678,0.074,1.293v4.83h-1.328
			v-4.776c0-0.544-0.055-0.946-0.156-1.219c-0.101-0.268-0.288-0.482-0.547-0.641c-0.265-0.162-0.578-0.242-0.93-0.242
			c-0.566,0-1.054,0.18-1.469,0.538c-0.411,0.359-0.616,1.043-0.616,2.047v4.293H132.764L132.764,95.721z"/>
	</g>
	<g>
		
			<linearGradient id="SVGID_3_" gradientUnits="userSpaceOnUse" x1="-44.6587" y1="628.7373" x2="-44.6587" y2="564.6819" gradientTransform="matrix(1 0 0 1 54.771 -514.0469)">
			<stop  offset="0" style="stop-color:#1C5FBC"/>
			<stop  offset="1" style="stop-color:#1C75BC"/>
		</linearGradient>
		<path fill="url(#SVGID_3_)" d="M6.825,71.199c0.109,2.216,1.48,2.929,3.569,2.929c1.467,0,3.001-0.524,3.001-1.922
			c0-1.666-2.688-1.979-5.413-2.746c-2.681-0.764-5.506-1.978-5.506-5.431c0-4.115,4.142-5.725,7.678-5.725
			c3.745,0,7.512,1.822,7.544,6.067h-4.913c0.085-1.714-1.525-2.268-3.026-2.268c-1.056,0-2.382,0.366-2.382,1.608
			c0,1.449,2.724,1.711,5.467,2.479c2.715,0.768,5.454,2.032,5.454,5.434c0,4.771-4.057,6.303-8.197,6.303
			c-4.327,0-8.156-1.9-8.176-6.727H6.825L6.825,71.199z"/>
		
			<linearGradient id="SVGID_4_" gradientUnits="userSpaceOnUse" x1="-29.8091" y1="628.7432" x2="-29.8091" y2="564.6793" gradientTransform="matrix(1 0 0 1 54.771 -514.0469)">
			<stop  offset="0" style="stop-color:#1C5FBC"/>
			<stop  offset="1" style="stop-color:#1C75BC"/>
		</linearGradient>
		<path fill="url(#SVGID_4_)" d="M29.719,66.742h-2.762v6.225c0,1.084,0.636,1.322,1.608,1.322c0.375,0,0.762-0.057,1.154-0.057
			v3.299c-0.813,0.028-1.628,0.132-2.444,0.132c-3.831,0-4.811-1.106-4.811-4.826v-6.095h-2.26v-2.9h2.26v-4.141h4.492v4.141h2.762
			V66.742L29.719,66.742z"/>
		
			<linearGradient id="SVGID_5_" gradientUnits="userSpaceOnUse" x1="-17.042" y1="628.7383" x2="-17.042" y2="564.6824" gradientTransform="matrix(1 0 0 1 54.771 -514.0469)">
			<stop  offset="0" style="stop-color:#1C5FBC"/>
			<stop  offset="1" style="stop-color:#1C75BC"/>
		</linearGradient>
		<path fill="url(#SVGID_5_)" d="M32.941,63.842h4.348v2.396h0.062c0.656-1.734,2.182-2.658,4.113-2.658
			c0.341,0,0.706,0.024,1.052,0.106v4.09c-0.577-0.165-1.105-0.266-1.72-0.266c-2.211,0-3.372,1.527-3.372,3.244v6.778h-4.483
			V63.842z"/>
		
			<linearGradient id="SVGID_6_" gradientUnits="userSpaceOnUse" x1="-3.46" y1="628.7314" x2="-3.46" y2="564.6855" gradientTransform="matrix(1 0 0 1 54.771 -514.0469)">
			<stop  offset="0" style="stop-color:#1C5FBC"/>
			<stop  offset="1" style="stop-color:#1C75BC"/>
		</linearGradient>
		<path fill="url(#SVGID_6_)" d="M44.892,68.063c0.079-1.793,0.921-2.954,2.136-3.666c1.213-0.687,2.793-0.949,4.347-0.949
			c3.246,0,6.388,0.714,6.388,4.586v5.988c0,1.158,0,2.427,0.526,3.509h-4.51c-0.158-0.425-0.212-0.846-0.26-1.29
			c-1.165,1.21-2.876,1.685-4.51,1.685c-2.611,0-4.677-1.318-4.677-4.138c0-4.462,4.86-4.113,7.971-4.751
			c0.764-0.152,1.187-0.422,1.187-1.261c0-1.033-1.247-1.427-2.166-1.427c-1.235,0-2.03,0.554-2.244,1.715H44.892L44.892,68.063z
			 M50.692,75.158c2.14,0,2.848-1.21,2.744-4.038c-0.636,0.398-1.793,0.476-2.762,0.743c-1.004,0.237-1.857,0.659-1.857,1.741
			C48.817,74.707,49.688,75.158,50.692,75.158z"/>
		
			<linearGradient id="SVGID_7_" gradientUnits="userSpaceOnUse" x1="10.5015" y1="628.7461" x2="10.5015" y2="564.6788" gradientTransform="matrix(1 0 0 1 54.771 -514.0469)">
			<stop  offset="0" style="stop-color:#1C5FBC"/>
			<stop  offset="1" style="stop-color:#1C75BC"/>
		</linearGradient>
		<path fill="url(#SVGID_7_)" d="M70.034,66.742h-2.775v6.225c0,1.084,0.63,1.322,1.611,1.322c0.37,0,0.767-0.057,1.164-0.057v3.299
			c-0.817,0.028-1.642,0.133-2.454,0.133c-3.83,0-4.806-1.107-4.806-4.827v-6.095h-2.263v-2.9h2.263v-4.141h4.484v4.141h2.775
			V66.742L70.034,66.742z"/>
		
			<linearGradient id="SVGID_8_" gradientUnits="userSpaceOnUse" x1="24.9321" y1="628.7324" x2="24.9321" y2="564.6845" gradientTransform="matrix(1 0 0 1 54.771 -514.0469)">
			<stop  offset="0" style="stop-color:#1C5FBC"/>
			<stop  offset="1" style="stop-color:#1C75BC"/>
		</linearGradient>
		<path fill="url(#SVGID_8_)" d="M76.913,71.785c0.081,1.865,1.161,3.109,3.057,3.109c1.085,0,2.138-0.501,2.558-1.501h4.195
			c-0.822,3.165-3.743,4.534-6.802,4.534c-4.461,0-7.492-2.692-7.492-7.277c0-4.192,3.348-7.2,7.389-7.2
			c4.906,0,7.357,3.69,7.147,8.336H76.913L76.913,71.785z M82.478,69.276c-0.076-1.528-1.158-2.797-2.66-2.797
			c-1.589,0-2.637,1.135-2.904,2.797H82.478z"/>
		
			<linearGradient id="SVGID_9_" gradientUnits="userSpaceOnUse" x1="41.7139" y1="628.7305" x2="41.7139" y2="564.6846" gradientTransform="matrix(1 0 0 1 54.771 -514.0469)">
			<stop  offset="0" style="stop-color:#1C5FBC"/>
			<stop  offset="1" style="stop-color:#1C75BC"/>
		</linearGradient>
		<path fill="url(#SVGID_9_)" d="M103.5,75.867c0,2.244-0.419,6.461-6.831,6.461c-3.19,0-6.194-0.707-6.726-4.377h4.485
			c0.108,0.606,0.347,0.977,0.767,1.186c0.387,0.215,0.943,0.291,1.635,0.291c2.131,0,2.35-1.502,2.35-3.186v-1.301h-0.058
			c-0.817,1.271-2.188,2.009-3.642,2.009c-4.139,0-6.012-2.953-6.012-6.804c0-3.636,2.135-6.697,6.012-6.697
			c1.642,0,2.882,0.715,3.67,2.105h0.051v-1.708h4.294L103.5,75.867L103.5,75.867z M96.567,66.872c-1.977,0-2.614,1.745-2.614,3.433
			c0,1.611,0.743,3.218,2.581,3.218c1.899,0,2.72-1.478,2.72-3.191C99.254,68.586,98.565,66.872,96.567,66.872z"/>
		
			<linearGradient id="SVGID_10_" gradientUnits="userSpaceOnUse" x1="58.2524" y1="628.7402" x2="58.2524" y2="564.6809" gradientTransform="matrix(1 0 0 1 54.771 -514.0469)">
			<stop  offset="0" style="stop-color:#1C5FBC"/>
			<stop  offset="1" style="stop-color:#1C75BC"/>
		</linearGradient>
		<path fill="url(#SVGID_10_)" d="M114.894,78.744c-1.076,3.006-2.684,3.377-5.72,3.377h-2.114V78.48h1.556
			c1.037,0,1.795-0.579,1.795-1.53c0-0.737-0.869-2.847-1.128-3.584l-3.537-9.523h4.755l2.578,8.917h0.048l2.595-8.917h4.58
			L114.894,78.744z"/>
		
			<linearGradient id="SVGID_11_" gradientUnits="userSpaceOnUse" x1="76.4531" y1="628.7383" x2="76.4531" y2="564.6818" gradientTransform="matrix(1 0 0 1 54.771 -514.0469)">
			<stop  offset="0" style="stop-color:#1C5FBC"/>
			<stop  offset="1" style="stop-color:#1C75BC"/>
		</linearGradient>
		<path fill="url(#SVGID_11_)" d="M122.837,58.701h9.6c3.32,0,6.593,1.502,6.593,5.303c0,2.027-0.978,3.954-2.951,4.718v0.051
			c2.007,0.474,2.584,2.722,2.744,4.51c0.047,0.791,0.132,3.564,0.788,4.248h-4.857c-0.419-0.635-0.495-2.482-0.548-3.007
			c-0.132-1.901-0.452-3.853-2.744-3.853h-3.716v6.86h-4.908V58.701z M127.745,66.872h4.114c1.472,0,2.265-0.788,2.265-2.208
			c0-1.4-1.106-2.036-2.482-2.036h-3.896V66.872L127.745,66.872z"/>
	</g>
	<g>
		
			<linearGradient id="SVGID_12_" gradientUnits="userSpaceOnUse" x1="-68.0479" y1="209.5469" x2="-63.5977" y2="209.5469" gradientTransform="matrix(1 0 0 -1 200.7744 263.6035)">
			<stop  offset="0" style="stop-color:#1C5FBC"/>
			<stop  offset="1" style="stop-color:#1C75BC"/>
		</linearGradient>
		<path fill="url(#SVGID_12_)" d="M134.575,56.863v-4.951h-1.849V51.25h4.45v0.662h-1.86v4.951H134.575z"/>
		
			<linearGradient id="SVGID_13_" gradientUnits="userSpaceOnUse" x1="-62.8584" y1="209.5469" x2="-57.501" y2="209.5469" gradientTransform="matrix(1 0 0 -1 200.7744 263.6035)">
			<stop  offset="0" style="stop-color:#1C5FBC"/>
			<stop  offset="1" style="stop-color:#1C75BC"/>
		</linearGradient>
		<path fill="url(#SVGID_13_)" d="M137.916,56.863V51.25h1.115l1.323,3.975c0.127,0.371,0.214,0.646,0.278,0.829
			c0.063-0.204,0.159-0.502,0.297-0.897l1.341-3.907h1.003v5.613h-0.722v-4.698l-1.627,4.698h-0.668l-1.628-4.777v4.777H137.916z"/>
	</g>
</g>
</svg>
