<?xml version="1.0" encoding="utf-8"?>
<!-- Generator: Adobe Illustrator 16.0.0, SVG Export Plug-In . SVG Version: 6.00 Build 0)  -->
<!DOCTYPE svg PUBLIC "-//W3C//DTD SVG 1.1//EN" "http://www.w3.org/Graphics/SVG/1.1/DTD/svg11.dtd">
<svg version="1.1" id="Layer_1" xmlns="http://www.w3.org/2000/svg" xmlns:xlink="http://www.w3.org/1999/xlink" x="0px" y="0px"
	 width="448.666px" height="129.333px" viewBox="0 0 448.666 129.333" enable-background="new 0 0 448.666 129.333"
	 xml:space="preserve">
<g>
	<path fill="#C9C9C9" d="M60.973,9.301c0.589,0,1.178,0,1.768,0c0.82,0.049,1.624,0.159,2.373,0.289
		c5.245,0.937,9.009,3.27,12.338,6.179c3.782,3.313,6.732,7.403,9.223,11.935c0.024,0.045,0.082,0.198,0.135,0.246
		c0.092,0.081,0.075,0.05,0.179,0.066c0.702,0.106,1.407,0.108,2.081,0.18c2.098,0.222,4.005,0.495,5.867,0.918
		c7.364,1.669,13.306,4.805,17.218,9.986c2.623,3.474,4.371,7.918,4.096,13.992c-0.125,2.794-0.744,5.313-1.5,7.566
		c-0.769,2.292-1.691,4.329-2.752,6.315c-0.031,0.059-0.075,0.127-0.092,0.176c-0.054,0.172,0.113,0.346,0.225,0.563
		c1.94,3.733,3.666,7.951,4.076,13.074c0.501,6.301-1.355,10.858-3.873,14.307c-4.495,6.152-11.895,9.588-21.09,10.926
		c-1.323,0.191-2.709,0.249-4.165,0.423c-0.149,0.021-0.16-0.001-0.247,0.071c-0.053,0.045-0.061,0.111-0.111,0.199
		c-2.553,4.65-5.615,8.781-9.512,12.203c-1.896,1.662-4.079,3.145-6.585,4.274c-2.514,1.14-5.48,1.972-8.886,1.972
		c-1.785,0-3.314-0.265-4.792-0.629c-4.321-1.068-7.729-3.246-10.546-5.752c-3.678-3.277-6.472-7.008-8.999-11.377
		c-0.131-0.223-0.333-0.713-0.494-0.871c-0.113-0.109-0.183-0.074-0.381-0.091c-5.557-0.328-10.595-1.503-14.775-3.356
		c-4.226-1.873-7.684-4.422-10.277-7.858c-1.3-1.724-2.371-3.659-3.068-6.003c-0.685-2.297-1.141-5.043-0.917-8.059
		c0.398-5.371,1.961-9.347,3.917-13.092c0.127-0.252,0.459-0.746,0.404-0.923c-0.077-0.237-0.276-0.476-0.404-0.713
		c-0.402-0.761-0.754-1.559-1.097-2.329c-1.416-3.192-2.511-6.542-2.821-10.837c-0.22-3.022,0.224-5.794,0.917-8.082
		c0.713-2.352,1.815-4.253,3.112-6c2.574-3.467,6.086-6.001,10.342-7.861c3.961-1.726,8.594-2.812,13.815-3.245
		c0.354-0.029,0.77,0.018,1.074-0.067c0.167-0.046,0.163-0.113,0.247-0.269c2.478-4.512,5.506-8.671,9.247-11.953
		C50.093,12.409,54.345,9.875,60.973,9.301z M85.264,27.548c-2.4-4.531-5.271-8.652-8.866-11.957
		c-1.83-1.682-3.909-3.24-6.358-4.389c-2.405-1.131-5.368-2.025-8.888-1.859c-0.836,0.04-1.665,0.127-2.417,0.245
		c-0.736,0.12-1.42,0.294-2.105,0.496c-3.967,1.167-7.018,3.322-9.693,5.863c-3.434,3.26-6.182,7.249-8.486,11.597
		c-0.064,0.124-0.163,0.254-0.156,0.404c9-0.294,16.648,1.155,23.573,3.089c6.91-1.944,14.562-3.379,23.554-3.089
		C85.425,27.799,85.329,27.67,85.264,27.548z M32.045,45.369c0.111,0.01,0.225-0.122,0.338-0.202
		c7.666-5.526,16.481-9.906,26.327-13.21c-6.327-1.622-13.054-2.839-21.068-2.775C35.243,34.039,33.428,39.49,32.045,45.369z
		 M65.003,31.979c5.046,1.592,9.732,3.659,14.195,5.866c3.347,1.658,6.488,3.587,9.514,5.53c0.952,0.614,1.877,1.313,2.774,1.925
		c0.041,0.03,0.119,0.088,0.179,0.07c-1.394-5.878-3.178-11.358-5.618-16.189C78.051,29.129,71.287,30.315,65.003,31.979z
		 M29.383,47.427c0.205-0.161,0.56-0.402,0.627-0.537c0.072-0.145,0.083-0.394,0.134-0.606c1.31-5.519,2.958-10.492,5.127-15.089
		c0.262-0.552,0.605-1.203,0.85-1.766c0.131-0.297,0.026-0.183-0.178-0.181c-2.713,0.056-5.377,0.424-7.836,0.919
		c-7.291,1.465-13.154,4.46-16.857,9.447c-2.436,3.28-4.107,7.89-3.471,13.746c0.562,5.178,2.519,9.197,4.612,12.917
		C16.778,58.714,22.68,52.675,29.383,47.427z M87.525,29.292c2.599,5.069,4.584,10.739,6.044,16.971
		c0.05,0.22,0.061,0.479,0.135,0.627c0.073,0.147,0.411,0.349,0.626,0.516c6.732,5.242,12.626,11.41,17.017,18.871
		c2.072-3.728,4.018-7.793,4.611-12.963c0.323-2.823,0.056-5.646-0.628-7.904c-2.037-6.744-6.837-10.749-13.097-13.298
		c-4.199-1.711-9.166-2.652-14.709-2.89C87.491,29.23,87.51,29.273,87.525,29.292z M60.593,30.77
		c-0.562,0.907-1.092,2.042-1.657,3.021c-10.347,3.497-19.386,8.303-27.427,14.104c-0.263,1.448-0.52,2.874-0.738,4.367
		c-0.212,1.465-0.391,2.962-0.562,4.499c-0.837,7.593-0.61,16.605,0.336,23.82c0.195,1.483,0.473,2.932,0.671,4.387
		c0.021,0.144-0.246,0.504-0.334,0.654c-0.373,0.623-0.729,1.16-1.075,1.744c-6.886-5.322-12.929-11.49-17.439-19.188
		c-2.082,3.73-4.02,7.799-4.613,12.984c-0.669,5.861,1.148,10.563,3.56,13.767c5.021,6.673,13.824,9.741,24.896,10.301
		c-2.306-4.58-4.244-9.647-5.575-15.134c0.546,0.016,1.147-0.029,1.656,0.021c1.363,5.48,3.073,10.612,5.373,15.157
		c7.998,0.05,14.76-1.135,21.044-2.798c-9.396-3.081-17.816-7.277-25.12-12.383c0.721,0,1.573,0,2.306,0
		c0.243,0,0.712-0.061,0.831,0c0.481,0.251,0.94,0.587,1.409,0.873c7.143,4.32,14.908,7.945,23.687,10.632c0.021,0,0.043,0,0.067,0
		c9.027-2.819,17.065-6.474,24.358-11.034c0.318-0.201,0.55-0.427,0.873-0.447c0.996-0.061,2.187-0.049,3.156-0.115
		C82.86,95.176,74.448,99.353,65,102.497c6.331,1.625,13.067,2.842,21.089,2.776c2.248-4.647,4.018-9.772,5.373-15.313
		c0.556-0.004,1.177-0.063,1.68-0.041c-1.326,5.408-3.226,10.408-5.44,14.883c-0.062,0.129-0.181,0.27-0.155,0.428
		c5.531-0.243,10.493-1.182,14.686-2.889c4.16-1.69,7.733-4.078,10.188-7.412c2.398-3.256,4.209-7.936,3.538-13.788
		c-0.594-5.171-2.531-9.263-4.635-12.966c-4.47,7.699-10.509,13.834-17.374,19.144c-0.477-0.786-0.998-1.526-1.479-2.306
		c1.082-5.618,1.568-12.014,1.568-18.674c0-6.638-0.788-12.837-1.834-18.401c-8.758-6.41-18.85-11.6-30.449-15.089
		C61.373,32.153,60.978,31.465,60.593,30.77z M29.472,49.488c-0.002-0.014-0.005-0.026-0.022-0.021
		c-6.398,5.021-12.14,10.708-16.5,17.774c3.265,5.291,7.378,9.813,11.844,13.881c1.395,1.271,2.91,2.521,4.389,3.67
		c0.076,0.062,0.175,0.17,0.291,0.156C27.317,74.444,27.33,59.968,29.472,49.488z M94.263,49.488
		c-0.002-0.024-0.027-0.021-0.022,0.021c1.015,5.292,1.637,11.455,1.634,17.734c0,6.271-0.625,12.434-1.634,17.729
		c6.403-4.932,12.162-10.705,16.523-17.752C106.38,60.193,100.69,54.473,94.263,49.488z M63.189,103.801
		c-0.44-0.121-0.887-0.287-1.322-0.361c-0.148-0.021-0.495,0.119-0.717,0.184c-6.803,1.862-14.128,3.146-22.857,2.887
		c-0.005,0.148,0.091,0.275,0.158,0.404c1.146,2.164,2.388,4.223,3.761,6.133c2.935,4.093,6.422,7.677,11.104,10.029
		c2.36,1.188,5.116,2.041,8.53,2.037c3.421,0,6.146-0.854,8.531-2.037c2.365-1.164,4.42-2.673,6.203-4.363
		c3.503-3.324,6.316-7.348,8.686-11.779c0.078-0.143,0.171-0.318,0.158-0.424C76.972,106.733,69.752,105.598,63.189,103.801z"/>
	<path fill="#CC0917" d="M67.614,44.411c-4.664,0-9.33,0-13.996,0c-0.027-0.148,0.091-0.261,0.154-0.38
		c1.04-1.966,2.129-3.972,3.187-5.972c1.148-2.166,2.327-4.332,3.468-6.455C62.835,35.847,65.283,40.18,67.614,44.411z"/>
	<path fill="#1C75BC" d="M65.031,70.654c-2.686,0.046-5.364,0.103-8.073,0.126c0.024-8.13,0.081-16.234,0.127-24.342
		c1.921-0.032,3.689-0.103,5.616-0.103c0.622,0,1.345-0.006,1.951-0.052c0.171-0.015,0.111,0.033,0.125,0.305
		c0.096,1.94,0.005,3.83,0.076,5.72c0.083,2.12,0.051,4.129,0.051,6.123C64.905,62.544,65.049,66.6,65.031,70.654z"/>
	
		<linearGradient id="SVGID_1_" gradientUnits="userSpaceOnUse" x1="111.8125" y1="392.2476" x2="111.8125" y2="308.5525" gradientTransform="matrix(1 0 0 1 -30 -249.167)">
		<stop  offset="0" style="stop-color:#1C5FBC"/>
		<stop  offset="1" style="stop-color:#1C75BC"/>
	</linearGradient>
	<path fill="url(#SVGID_1_)" d="M68.475,49.599c9.866,15.206,19.827,30.444,29.609,45.655c-3.271,0.107-6.617,0.293-9.995,0.373
		c-0.236,0.008-0.524,0.066-0.66,0.026c-0.187-0.055-0.458-0.642-0.631-0.905c-3.012-4.645-6.119-9.455-9.085-14.045
		c-4.076-0.025-8.121-0.082-12.172-0.131c0-2.229,0-4.457,0-6.681c2.588-0.024,5.158-0.072,7.769-0.076
		c-1.351-2.585-2.942-5.317-4.43-7.998c-0.098-0.177-0.242-0.396-0.278-0.534c-0.132-0.506-0.025-1.28-0.025-1.945
		c0-2.013-0.052-3.838-0.052-5.871c0-2.649-0.146-5.204-0.075-7.795C68.449,49.641,68.442,49.602,68.475,49.599z"/>
	
		<linearGradient id="SVGID_2_" gradientUnits="userSpaceOnUse" x1="75.3364" y1="392.2466" x2="75.3364" y2="308.5541" gradientTransform="matrix(1 0 0 1 -30 -249.167)">
		<stop  offset="0" style="stop-color:#1C5FBC"/>
		<stop  offset="1" style="stop-color:#1C75BC"/>
	</linearGradient>
	<path fill="url(#SVGID_2_)" d="M53.188,49.777c0.133,4.36,0.044,8.94,0.152,13.411c0.014,0.651,0.101,1.405,0,1.923
		c-0.039,0.196-0.264,0.455-0.405,0.709c-4.022,7.334-8.16,14.54-12.199,21.839c4.765-0.136,9.554-0.248,14.35-0.353
		c0.075-1.657,0.079-3.384,0.151-5.041c3.231-0.033,6.436-0.093,9.667-0.126c0.053,4.415,0.108,8.82,0.126,13.263
		c-13.147,0.024-26.259,0.072-39.378,0.125c-0.043-0.127,0.071-0.258,0.128-0.354C32.565,83.9,39.501,72.61,46.256,61.265
		c1.137-1.913,2.278-3.822,3.439-5.719C50.871,53.627,52.047,51.716,53.188,49.777z"/>
</g>
<g>
	<path d="M127.868,105.127V82.293h3.021v22.834H127.868z"/>
	<path d="M139.049,105.127V88.586h2.524v2.352c1.215-1.816,2.969-2.727,5.265-2.727c0.998,0,1.914,0.181,2.75,0.539
		c0.835,0.356,1.462,0.828,1.877,1.408c0.416,0.584,0.706,1.272,0.872,2.07c0.103,0.521,0.155,1.43,0.155,2.729v10.17h-2.804V95.066
		c0-1.142-0.108-1.995-0.327-2.562c-0.219-0.566-0.605-1.021-1.161-1.356c-0.556-0.337-1.208-0.507-1.956-0.507
		c-1.195,0-2.226,0.381-3.092,1.137c-0.867,0.76-1.3,2.197-1.3,4.314v9.035H139.049L139.049,105.127z"/>
	<path d="M160.652,105.127v-14.36h-2.477v-2.181h2.477v-1.76c0-1.113,0.098-1.938,0.295-2.479c0.271-0.726,0.746-1.317,1.426-1.769
		c0.68-0.451,1.632-0.677,2.859-0.677c0.789,0,1.661,0.097,2.617,0.28l-0.42,2.445c-0.582-0.104-1.132-0.155-1.65-0.155
		c-0.852,0-1.455,0.183-1.808,0.545c-0.353,0.364-0.529,1.044-0.529,2.043v1.524h3.224v2.183h-3.224v14.36H160.652L160.652,105.127z
		"/>
	<path d="M171.972,105.127V82.293h2.804v22.834H171.972z"/>
	<path d="M193.156,105.127V102.7c-1.289,1.869-3.039,2.803-5.25,2.803c-0.976,0-1.887-0.186-2.733-0.56
		c-0.846-0.374-1.475-0.843-1.885-1.409s-0.699-1.26-0.865-2.08c-0.114-0.551-0.171-1.422-0.171-2.615V88.586h2.804v9.174
		c0,1.467,0.057,2.453,0.171,2.961c0.176,0.738,0.55,1.316,1.121,1.736c0.571,0.422,1.277,0.631,2.119,0.631
		c0.842,0,1.631-0.215,2.368-0.646c0.737-0.431,1.26-1.019,1.565-1.762c0.306-0.741,0.459-1.819,0.459-3.231v-8.863h2.804v16.543
		h-2.507V105.127z"/>
	<path d="M214.571,99.803l2.896,0.355c-0.457,1.693-1.304,3.008-2.539,3.94c-1.236,0.937-2.813,1.401-4.735,1.401
		c-2.419,0-4.338-0.746-5.756-2.233c-1.417-1.49-2.126-3.581-2.126-6.271c0-2.783,0.716-4.945,2.15-6.479
		c1.432-1.538,3.291-2.306,5.576-2.306c2.212,0,4.019,0.752,5.422,2.258c1.399,1.506,2.102,3.625,2.102,6.355
		c0,0.166-0.006,0.416-0.016,0.748h-12.337c0.104,1.816,0.618,3.209,1.541,4.174c0.924,0.967,2.077,1.449,3.459,1.449
		c1.028,0,1.905-0.271,2.633-0.813C213.567,101.849,214.145,100.985,214.571,99.803z M205.364,95.27h9.238
		c-0.126-1.395-0.479-2.438-1.059-3.133c-0.896-1.079-2.053-1.619-3.475-1.619c-1.288,0-2.371,0.432-3.248,1.292
		C205.944,92.672,205.458,93.827,205.364,95.27z"/>
	<path d="M224.177,105.127V88.586h2.525v2.352c1.215-1.816,2.97-2.727,5.264-2.727c0.997,0,1.915,0.181,2.75,0.539
		c0.836,0.356,1.463,0.828,1.878,1.408c0.416,0.584,0.706,1.272,0.872,2.07c0.104,0.521,0.155,1.43,0.155,2.729v10.17h-2.804V95.066
		c0-1.142-0.109-1.995-0.327-2.562c-0.22-0.566-0.605-1.021-1.16-1.356c-0.558-0.337-1.208-0.507-1.955-0.507
		c-1.194,0-2.226,0.381-3.093,1.137c-0.868,0.76-1.303,2.197-1.303,4.314v9.035H224.177L224.177,105.127z"/>
	<path d="M255.906,99.071l2.757,0.355c-0.303,1.9-1.072,3.389-2.313,4.464c-1.242,1.075-2.768,1.61-4.572,1.61
		c-2.264,0-4.084-0.74-5.461-2.219c-1.375-1.48-2.063-3.6-2.063-6.363c0-1.785,0.295-3.349,0.889-4.688
		c0.59-1.34,1.491-2.343,2.701-3.015c1.209-0.668,2.526-1.004,3.948-1.004c1.798,0,3.267,0.455,4.407,1.363
		c1.143,0.908,1.876,2.198,2.197,3.871l-2.727,0.42c-0.26-1.111-0.72-1.945-1.378-2.508c-0.66-0.561-1.456-0.841-2.392-0.841
		c-1.414,0-2.562,0.508-3.443,1.521c-0.882,1.012-1.323,2.613-1.323,4.805c0,2.222,0.427,3.838,1.277,4.845
		c0.853,1.009,1.964,1.513,3.334,1.513c1.101,0,2.019-0.339,2.756-1.013C255.241,101.51,255.708,100.473,255.906,99.071z"/>
	<path d="M275.576,99.803l2.897,0.355c-0.457,1.693-1.303,3.008-2.539,3.94c-1.236,0.937-2.813,1.401-4.734,1.401
		c-2.42,0-4.338-0.746-5.756-2.233c-1.416-1.49-2.127-3.581-2.127-6.271c0-2.783,0.717-4.945,2.149-6.479
		c1.435-1.538,3.292-2.306,5.576-2.306c2.211,0,4.021,0.752,5.421,2.258c1.402,1.506,2.104,3.625,2.104,6.355
		c0,0.166-0.006,0.416-0.017,0.748h-12.338c0.104,1.816,0.618,3.209,1.542,4.174c0.925,0.967,2.077,1.449,3.459,1.449
		c1.028,0,1.906-0.271,2.633-0.813C274.575,101.849,275.151,100.985,275.576,99.803z M266.371,95.27h9.237
		c-0.125-1.395-0.479-2.438-1.061-3.133c-0.895-1.079-2.051-1.619-3.474-1.619c-1.288,0-2.371,0.432-3.248,1.292
		C266.949,92.672,266.465,93.827,266.371,95.27z"/>
	<path d="M285.153,105.127V88.586h2.524v2.508c0.644-1.174,1.237-1.946,1.782-2.321c0.546-0.374,1.146-0.562,1.8-0.562
		c0.945,0,1.906,0.303,2.882,0.904l-0.966,2.602c-0.685-0.404-1.37-0.607-2.055-0.607c-0.613,0-1.163,0.186-1.651,0.553
		c-0.488,0.369-0.836,0.881-1.043,1.533c-0.313,0.998-0.468,2.09-0.468,3.271v8.66H285.153L285.153,105.127z"/>
	<path d="M311.411,105.127V82.293h7.867c1.775,0,3.131,0.106,4.064,0.326c1.309,0.303,2.424,0.846,3.35,1.637
		c1.203,1.018,2.104,2.318,2.701,3.902c0.598,1.584,0.896,3.393,0.896,5.428c0,1.733-0.201,3.271-0.606,4.609
		c-0.406,1.342-0.925,2.45-1.559,3.326c-0.634,0.878-1.328,1.568-2.081,2.07c-0.752,0.507-1.661,0.887-2.726,1.146
		c-1.064,0.262-2.289,0.389-3.67,0.389H311.411L311.411,105.127z M314.435,102.433h4.875c1.506,0,2.688-0.142,3.545-0.42
		c0.855-0.28,1.539-0.675,2.049-1.185c0.716-0.715,1.273-1.681,1.674-2.892c0.398-1.209,0.602-2.677,0.602-4.397
		c0-2.391-0.393-4.226-1.178-5.508c-0.785-1.281-1.736-2.141-2.857-2.578c-0.812-0.311-2.115-0.467-3.912-0.467h-4.797V102.433
		L314.435,102.433z"/>
	<path d="M337.251,105.127V88.586h2.523v2.508c0.644-1.174,1.238-1.946,1.783-2.321c0.547-0.374,1.146-0.562,1.799-0.562
		c0.945,0,1.906,0.303,2.884,0.904l-0.966,2.602c-0.687-0.404-1.371-0.607-2.058-0.607c-0.612,0-1.161,0.186-1.649,0.553
		c-0.487,0.369-0.836,0.881-1.045,1.533c-0.311,0.998-0.465,2.09-0.465,3.271v8.66H337.251L337.251,105.127z"/>
	<path d="M351.11,85.516v-3.225h2.806v3.225H351.11z M351.11,105.127V88.586h2.806v16.541H351.11z"/>
	<path d="M365.969,105.127l-6.293-16.541h2.959l3.554,9.906c0.383,1.071,0.735,2.182,1.059,3.336
		c0.249-0.875,0.597-1.922,1.045-3.147l3.674-10.095h2.883l-6.263,16.543h-2.616L365.969,105.127L365.969,105.127z"/>
	<path d="M391.838,99.803l2.899,0.355c-0.459,1.693-1.305,3.008-2.539,3.94c-1.236,0.937-2.813,1.401-4.734,1.401
		c-2.421,0-4.339-0.746-5.757-2.233c-1.417-1.49-2.126-3.581-2.126-6.271c0-2.783,0.716-4.945,2.148-6.479
		c1.435-1.538,3.293-2.306,5.576-2.306c2.213,0,4.021,0.752,5.42,2.258c1.402,1.506,2.104,3.625,2.104,6.355
		c0,0.166-0.006,0.416-0.017,0.748h-12.336c0.103,1.816,0.615,3.209,1.541,4.174c0.924,0.967,2.076,1.449,3.457,1.449
		c1.028,0,1.907-0.271,2.635-0.813C390.837,101.849,391.413,100.985,391.838,99.803z M382.633,95.27h9.237
		c-0.124-1.395-0.479-2.438-1.061-3.133c-0.894-1.079-2.05-1.619-3.474-1.619c-1.287,0-2.371,0.432-3.248,1.292
		C383.211,92.672,382.728,93.827,382.633,95.27z"/>
	<path d="M401.447,105.127V88.586h2.522v2.352c1.216-1.816,2.972-2.727,5.268-2.727c0.996,0,1.912,0.181,2.749,0.539
		c0.835,0.356,1.461,0.828,1.877,1.408c0.415,0.584,0.707,1.272,0.871,2.07c0.104,0.521,0.155,1.43,0.155,2.729v10.17h-2.804V95.066
		c0-1.142-0.109-1.995-0.328-2.562c-0.219-0.567-0.604-1.021-1.16-1.356c-0.555-0.336-1.207-0.507-1.955-0.507
		c-1.194,0-2.225,0.381-3.091,1.137c-0.869,0.76-1.302,2.197-1.302,4.314v9.035H401.447L401.447,105.127z"/>
</g>
<g>
	
		<linearGradient id="SVGID_3_" gradientUnits="userSpaceOnUse" x1="173.02" y1="394.2769" x2="173.02" y2="259.2941" gradientTransform="matrix(1 0 0 1 -30 -249.167)">
		<stop  offset="0" style="stop-color:#1C5FBC"/>
		<stop  offset="1" style="stop-color:#1C75BC"/>
	</linearGradient>
	<path fill="url(#SVGID_3_)" d="M136.102,53.467c0.223,4.668,3.112,6.168,7.502,6.168c3.112,0,6.335-1.112,6.335-4.057
		c0-3.501-5.668-4.168-11.393-5.78c-5.668-1.611-11.614-4.167-11.614-11.448c0-8.67,8.725-12.06,16.172-12.06
		c7.891,0,15.838,3.835,15.894,12.782h-10.336c0.166-3.612-3.224-4.78-6.392-4.78c-2.223,0-5.002,0.779-5.002,3.391
		c0,3.056,5.725,3.612,11.505,5.224c5.724,1.612,11.503,4.279,11.503,11.448c0,10.059-8.558,13.282-17.283,13.282
		c-9.115,0-17.172-4.001-17.229-14.171L136.102,53.467L136.102,53.467z"/>
	
		<linearGradient id="SVGID_4_" gradientUnits="userSpaceOnUse" x1="204.314" y1="394.2808" x2="204.314" y2="259.295" gradientTransform="matrix(1 0 0 1 -30 -249.167)">
		<stop  offset="0" style="stop-color:#1C5FBC"/>
		<stop  offset="1" style="stop-color:#1C75BC"/>
	</linearGradient>
	<path fill="url(#SVGID_4_)" d="M184.345,44.075h-5.835v13.116c0,2.278,1.333,2.778,3.389,2.778c0.777,0,1.611-0.11,2.445-0.11
		v6.946c-1.724,0.056-3.446,0.277-5.168,0.277c-8.059,0-10.115-2.334-10.115-10.171V44.075h-4.779v-6.114h4.779v-8.725h9.447v8.725
		h5.836L184.345,44.075L184.345,44.075z"/>
	
		<linearGradient id="SVGID_5_" gradientUnits="userSpaceOnUse" x1="231.2119" y1="394.2827" x2="231.2119" y2="259.295" gradientTransform="matrix(1 0 0 1 -30 -249.167)">
		<stop  offset="0" style="stop-color:#1C5FBC"/>
		<stop  offset="1" style="stop-color:#1C75BC"/>
	</linearGradient>
	<path fill="url(#SVGID_5_)" d="M191.126,37.961h9.17v5.057h0.111c1.389-3.667,4.612-5.613,8.669-5.613
		c0.722,0,1.5,0.056,2.223,0.223v8.614c-1.222-0.334-2.333-0.556-3.612-0.556c-4.668,0-7.114,3.225-7.114,6.837v14.282h-9.447
		V37.961z"/>
	
		<linearGradient id="SVGID_6_" gradientUnits="userSpaceOnUse" x1="259.8359" y1="394.2769" x2="259.8359" y2="259.296" gradientTransform="matrix(1 0 0 1 -30 -249.167)">
		<stop  offset="0" style="stop-color:#1C5FBC"/>
		<stop  offset="1" style="stop-color:#1C75BC"/>
	</linearGradient>
	<path fill="url(#SVGID_6_)" d="M216.305,46.854c0.167-3.778,1.944-6.224,4.501-7.725c2.556-1.444,5.892-2.001,9.169-2.001
		c6.836,0,13.447,1.5,13.447,9.67v12.615c0,2.445,0,5.113,1.112,7.391h-9.504c-0.333-0.89-0.444-1.778-0.556-2.722
		c-2.445,2.555-6.058,3.556-9.502,3.556c-5.503,0-9.836-2.778-9.836-8.725c0-9.392,10.225-8.67,16.782-10.004
		c1.611-0.333,2.501-0.89,2.501-2.667c0-2.167-2.612-3-4.558-3c-2.613,0-4.279,1.167-4.723,3.612H216.305L216.305,46.854z
		 M228.528,61.803c4.503,0,6.004-2.556,5.781-8.502c-1.334,0.833-3.779,1-5.838,1.556c-2.109,0.5-3.889,1.39-3.889,3.668
		C224.584,60.859,226.418,61.803,228.528,61.803z"/>
	
		<linearGradient id="SVGID_7_" gradientUnits="userSpaceOnUse" x1="289.2373" y1="394.2808" x2="289.2373" y2="259.295" gradientTransform="matrix(1 0 0 1 -30 -249.167)">
		<stop  offset="0" style="stop-color:#1C5FBC"/>
		<stop  offset="1" style="stop-color:#1C75BC"/>
	</linearGradient>
	<path fill="url(#SVGID_7_)" d="M269.269,44.075h-5.834v13.116c0,2.278,1.332,2.778,3.389,2.778c0.779,0,1.611-0.11,2.445-0.11
		v6.946c-1.723,0.056-3.445,0.277-5.168,0.277c-8.059,0-10.115-2.334-10.115-10.171V44.075h-4.778v-6.114h4.778v-8.725h9.447v8.725
		h5.834v6.114H269.269z"/>
	
		<linearGradient id="SVGID_8_" gradientUnits="userSpaceOnUse" x1="319.6533" y1="394.2769" x2="319.6533" y2="259.2962" gradientTransform="matrix(1 0 0 1 -30 -249.167)">
		<stop  offset="0" style="stop-color:#1C5FBC"/>
		<stop  offset="1" style="stop-color:#1C75BC"/>
	</linearGradient>
	<path fill="url(#SVGID_8_)" d="M283.776,54.69c0.166,3.945,2.443,6.557,6.447,6.557c2.277,0,4.5-1.055,5.389-3.167h8.838
		c-1.725,6.669-7.893,9.559-14.34,9.559c-9.393,0-15.782-5.668-15.782-15.338c0-8.836,7.058-15.172,15.562-15.172
		c10.336,0,15.506,7.78,15.063,17.562L283.776,54.69L283.776,54.69z M295.502,49.41c-0.168-3.223-2.446-5.89-5.614-5.89
		c-3.334,0-5.558,2.39-6.111,5.89H295.502z"/>
	
		<linearGradient id="SVGID_9_" gradientUnits="userSpaceOnUse" x1="355.0146" y1="394.2769" x2="355.0146" y2="259.2955" gradientTransform="matrix(1 0 0 1 -30 -249.167)">
		<stop  offset="0" style="stop-color:#1C5FBC"/>
		<stop  offset="1" style="stop-color:#1C75BC"/>
	</linearGradient>
	<path fill="url(#SVGID_9_)" d="M339.799,63.304c0,4.723-0.891,13.614-14.394,13.614c-6.727,0-13.061-1.498-14.172-9.225h9.447
		c0.223,1.278,0.723,2.057,1.61,2.5c0.833,0.445,2.001,0.611,3.444,0.611c4.502,0,4.945-3.167,4.945-6.723V61.36h-0.109
		c-1.723,2.667-4.612,4.223-7.67,4.223c-8.726,0-12.672-6.224-12.672-14.337c0-7.669,4.502-14.116,12.672-14.116
		c3.445,0,6.059,1.5,7.726,4.447h0.11v-3.612h9.06L339.799,63.304L339.799,63.304z M325.183,44.354
		c-4.168,0-5.502,3.667-5.502,7.224c0,3.39,1.557,6.78,5.446,6.78c4.001,0,5.724-3.112,5.724-6.724
		C330.851,47.966,329.405,44.354,325.183,44.354z"/>
	
		<linearGradient id="SVGID_10_" gradientUnits="userSpaceOnUse" x1="389.8643" y1="394.2769" x2="389.8643" y2="259.2946" gradientTransform="matrix(1 0 0 1 -30 -249.167)">
		<stop  offset="0" style="stop-color:#1C5FBC"/>
		<stop  offset="1" style="stop-color:#1C75BC"/>
	</linearGradient>
	<path fill="url(#SVGID_10_)" d="M363.81,69.362c-2.277,6.336-5.668,7.113-12.059,7.113h-4.445v-7.669h3.277
		c2.168,0,3.779-1.224,3.779-3.224c0-1.558-1.834-6.002-2.391-7.56l-7.445-20.063h10.004l5.445,18.784h0.109l5.447-18.784h9.67
		L363.81,69.362z"/>
	
		<linearGradient id="SVGID_11_" gradientUnits="userSpaceOnUse" x1="428.2119" y1="394.2749" x2="428.2119" y2="259.2968" gradientTransform="matrix(1 0 0 1 -30 -249.167)">
		<stop  offset="0" style="stop-color:#1C5FBC"/>
		<stop  offset="1" style="stop-color:#1C75BC"/>
	</linearGradient>
	<path fill="url(#SVGID_11_)" d="M380.54,27.125h20.229c7.002,0,13.892,3.167,13.892,11.17c0,4.279-2.055,8.336-6.224,9.947v0.111
		c4.225,1,5.446,5.724,5.779,9.504c0.111,1.667,0.277,7.502,1.668,8.947h-10.227c-0.891-1.335-1.058-5.225-1.166-6.335
		c-0.278-4.002-0.946-8.114-5.779-8.114h-7.837v14.449H380.54V27.125z M390.877,44.354h8.669c3.111,0,4.779-1.668,4.779-4.668
		c0-2.946-2.334-4.28-5.225-4.28h-8.225L390.877,44.354L390.877,44.354z"/>
</g>
<g>
	
		<linearGradient id="SVGID_12_" gradientUnits="userSpaceOnUse" x1="298.8789" y1="113.6206" x2="308.2568" y2="113.6206" gradientTransform="matrix(1 0 0 -1 116 140.833)">
		<stop  offset="0" style="stop-color:#1C5FBC"/>
		<stop  offset="1" style="stop-color:#1C75BC"/>
	</linearGradient>
	<path fill="url(#SVGID_12_)" d="M418.777,33.128V22.693h-3.898v-1.396h9.378v1.396h-3.914v10.435H418.777z"/>
	
		<linearGradient id="SVGID_13_" gradientUnits="userSpaceOnUse" x1="309.8145" y1="113.6206" x2="321.1035" y2="113.6206" gradientTransform="matrix(1 0 0 -1 116 140.833)">
		<stop  offset="0" style="stop-color:#1C5FBC"/>
		<stop  offset="1" style="stop-color:#1C75BC"/>
	</linearGradient>
	<path fill="url(#SVGID_13_)" d="M425.814,33.128V21.297h2.355l2.799,8.376c0.26,0.78,0.445,1.364,0.566,1.752
		c0.134-0.431,0.344-1.063,0.628-1.896l2.834-8.232h2.106v11.831h-1.512v-9.902l-3.437,9.902h-1.411l-3.424-10.072v10.072H425.814z"
		/>
</g>
</svg>
