<?xml version="1.0" encoding="utf-8"?>
<!-- Generator: Adobe Illustrator 16.0.0, SVG Export Plug-In . SVG Version: 6.00 Build 0)  -->
<!DOCTYPE svg PUBLIC "-//W3C//DTD SVG 1.1//EN" "http://www.w3.org/Graphics/SVG/1.1/DTD/svg11.dtd">
<svg version="1.1" id="Layer_1" xmlns="http://www.w3.org/2000/svg" xmlns:xlink="http://www.w3.org/1999/xlink" x="0px" y="0px"
	 width="73.75px" height="70px" viewBox="0 0 73.75 70" enable-background="new 0 0 73.75 70" xml:space="preserve">
<g>
	<g>
		<path d="M10.744,34.178l0.046,1.307l-1.689,1.124l1.764,1.004l0.046,1.308l-4.463,0.155l-0.042-1.229l2.563-0.09l-1.784-1.08
			l-0.003-0.026l1.693-1.195l-2.55,0.088l-0.041-1.211L10.744,34.178z"/>
		<path d="M11.521,41.603l0.297,1.155l-3.878,2.964l-0.332-1.285l0.689-0.514l-0.43-1.667l-0.853-0.109l-0.325-1.261L11.521,41.603z
			 M9.142,43.336l1.104-0.798l-1.354-0.172L9.142,43.336z"/>
		<path d="M12.622,45.401l0.932,1.896c0.301,0.613,0.348,1.113,0.204,1.52c-0.113,0.348-0.362,0.619-0.76,0.813l-0.011,0.005
			c-0.612,0.301-1.18,0.174-1.636-0.221l-0.929,1.643l-0.63-1.281l0.817-1.404l-0.005-0.012l-0.233-0.476L9.157,48.48l-0.545-1.11
			L12.622,45.401z M11.604,48.19c0.186,0.379,0.476,0.506,0.769,0.362l0.011-0.006c0.315-0.153,0.362-0.462,0.182-0.834
			l-0.357-0.728l-0.963,0.473L11.604,48.19z"/>
		<path d="M14.946,49.868l0.75,0.984l-1.44,1.1l2.371,0.123l0.892,1.168l-2.554-0.183l-0.966,2.935l-0.9-1.184l0.64-1.898
			l-0.675-0.055l-0.919,0.7l-0.75-0.985L14.946,49.868z"/>
		<path d="M18.152,53.854l2.67,2.401l-0.703,0.783l-1.76-1.584l-0.453,0.504l1.594,1.433l-0.651,0.728l-1.595-1.436L16.78,57.21
			l1.782,1.604l-0.703,0.782l-2.693-2.424L18.152,53.854z"/>
		<path d="M22.101,58.423l-1.141-0.702l0.569-0.924l3.333,2.059l-0.569,0.923l-1.141-0.705l-1.775,2.877l-1.053-0.648L22.101,58.423
			z"/>
		<path d="M28.088,60.188l1.182,0.392l-1.402,4.24l-1.182-0.393L28.088,60.188z"/>
		<path d="M30.531,61.011l1.139,0.188l1.429,2.627l0.385-2.328l1.209,0.199L33.964,66.1l-1.068-0.175l-1.483-2.729l-0.398,2.416
			l-1.207-0.199L30.531,61.011z"/>
		<path d="M35.938,61.739l3.57-0.094l0.027,1.085l-2.334,0.06l0.021,0.761l2.108-0.056l0.026,1.026l-2.109,0.056l0.041,1.594
			l-1.237,0.031L35.938,61.739z"/>
		<path d="M40.547,61.503l1.213-0.244l0.663,3.314l2.121-0.424l0.213,1.063l-3.333,0.667L40.547,61.503z"/>
		<path d="M45.6,62.952l-0.93-2.328l1.167-0.467l0.921,2.306c0.238,0.599,0.654,0.762,1.115,0.577
			c0.463-0.185,0.654-0.577,0.424-1.157l-0.931-2.336l1.167-0.466l0.917,2.299c0.534,1.34,0.006,2.232-1.175,2.701
			C47.098,64.552,46.117,64.249,45.6,62.952z"/>
		<path d="M49.575,58.507l3.021-1.942l0.569,0.886l-1.99,1.28L51.54,59.3l1.804-1.161l0.527,0.821l-1.803,1.16l0.384,0.596
			l2.017-1.298l0.569,0.886l-3.048,1.959L49.575,58.507z"/>
		<path d="M53.486,55.891l0.834-0.8l2.959,0.431l-1.633-1.702l0.883-0.85l3.094,3.223l-0.782,0.75l-3.071-0.445l1.695,1.768
			l-0.884,0.85L53.486,55.891z"/>
		<path d="M59.076,53.422l-0.012-0.007c-1.069-0.739-1.34-2.146-0.57-3.258c0.52-0.75,1.167-1.016,1.842-1.028l0.063,1.176
			c-0.406,0.029-0.74,0.154-0.983,0.507c-0.356,0.514-0.17,1.178,0.364,1.547l0.012,0.008c0.551,0.381,1.23,0.316,1.587-0.198
			c0.265-0.384,0.241-0.731,0.127-1.138l1.074-0.389c0.239,0.678,0.269,1.387-0.294,2.2C61.561,53.891,60.173,54.181,59.076,53.422z
			"/>
		<path d="M60.109,47.739l1.451-3.285l0.963,0.427l-0.957,2.164l0.619,0.272l0.865-1.961l0.893,0.396l-0.864,1.961l0.646,0.285
			l0.971-2.193l0.964,0.425l-1.466,3.313L60.109,47.739z"/>
		<path d="M61.92,43.388l0.477-2.059c0.152-0.664,0.435-1.084,0.799-1.309c0.309-0.195,0.675-0.248,1.103-0.148l0.015,0.002
			c0.664,0.154,1.023,0.609,1.127,1.205l1.758-0.688l-0.32,1.392l-1.521,0.572l-0.002,0.012l-0.119,0.517l1.316,0.306l-0.279,1.206
			L61.92,43.388z M64.471,41.868c0.096-0.408-0.049-0.691-0.365-0.766L64.092,41.1c-0.342-0.079-0.572,0.129-0.666,0.534
			l-0.183,0.789l1.044,0.24L64.471,41.868z"/>
	</g>
	<path fill="none" stroke="#000000" stroke-width="0.5" stroke-miterlimit="10" d="M67.561,22.511c0,0.003,0.002,0.008,0.004,0.011
		l-0.014,0.004 M67.123,21.787l-0.52-1.403C61.203,9.422,49.92,1.88,36.875,1.88c-12.923,0-24.121,7.445-29.581,18.241l-0.573,1.345
		L4.59,20.599l1.171,2.94l0.042,0.109l2.809,6.178l5.64-2.736l0.349-0.159l2.608-1.192l-1.688-0.687l0.552-1.336
		c4.018-7.344,11.843-12.378,20.804-12.378c8.958,0,16.755,4.979,20.771,12.322l0.539,1.375l-1.816,0.612l2.525,1.234l0.389,0.189
		l6.01,2.936l2.607-6.088l0.008-0.017l1.256-2.935L67.123,21.787z M69.373,28.215l-3.617,4.227l-5.779-2.82l-0.063-0.031
		c0.406,1.736,0.621,3.547,0.621,5.408c0,13.069-10.594,23.663-23.659,23.663c-13.068,0-23.662-10.594-23.662-23.663
		c0-1.807,0.201-3.566,0.587-5.257l-5.769,2.7l-3.58-4.485c-0.485,2.262-0.696,4.558-0.696,7.042
		c0,18.293,14.827,33.122,33.12,33.122c18.29,0,33.118-14.828,33.118-33.122C69.994,32.936,69.734,30.174,69.373,28.215z"/>
	<g>
		<path d="M64.414,38.215l-0.122,0.621l-0.503-0.099l0.357-1.817l0.502,0.099l-0.121,0.622l1.566,0.31l-0.111,0.574L64.414,38.215z"
			/>
		<path d="M64.234,36.467l0.121-0.606l0.897-0.335l-0.705-0.653l0.119-0.605l2.071,0.406l-0.112,0.571l-1.19-0.233l0.707,0.689
			l-0.002,0.012l-0.908,0.368l1.185,0.232l-0.11,0.563L64.234,36.467z"/>
	</g>
	<g>
		<g>
			<path fill="#C9C9C9" d="M36.951,19.064c0.063,0,0.127,0,0.19,0c0.088,0.005,0.175,0.017,0.255,0.031
				c0.565,0.102,0.974,0.354,1.332,0.667c0.408,0.357,0.727,0.798,0.994,1.288c0.004,0.004,0.01,0.021,0.016,0.026
				c0.011,0.009,0.008,0.006,0.02,0.007c0.075,0.012,0.152,0.012,0.225,0.02c0.227,0.023,0.433,0.053,0.634,0.099
				c0.795,0.18,1.436,0.518,1.856,1.077c0.284,0.375,0.471,0.854,0.442,1.51c-0.015,0.302-0.082,0.573-0.161,0.816
				c-0.084,0.247-0.184,0.467-0.298,0.682c-0.003,0.006-0.008,0.013-0.011,0.018c-0.006,0.019,0.013,0.038,0.023,0.061
				c0.211,0.403,0.396,0.858,0.44,1.411c0.054,0.68-0.146,1.172-0.419,1.544c-0.484,0.664-1.282,1.034-2.274,1.178
				c-0.143,0.021-0.292,0.027-0.448,0.046c-0.017,0.002-0.018,0-0.027,0.008c-0.006,0.005-0.006,0.012-0.012,0.021
				c-0.275,0.501-0.605,0.948-1.025,1.316c-0.205,0.18-0.441,0.34-0.711,0.461c-0.271,0.124-0.592,0.213-0.959,0.213
				c-0.192,0-0.357-0.028-0.518-0.067c-0.467-0.115-0.834-0.35-1.138-0.621c-0.396-0.354-0.698-0.756-0.972-1.228
				c-0.014-0.023-0.036-0.077-0.054-0.093c-0.013-0.012-0.02-0.008-0.041-0.01c-0.6-0.036-1.144-0.162-1.595-0.362
				c-0.454-0.202-0.828-0.477-1.107-0.849c-0.141-0.186-0.256-0.394-0.331-0.647c-0.074-0.249-0.123-0.544-0.1-0.87
				c0.043-0.58,0.212-1.008,0.424-1.413c0.013-0.027,0.049-0.081,0.043-0.1c-0.008-0.026-0.03-0.051-0.043-0.077
				c-0.044-0.082-0.082-0.168-0.119-0.251c-0.152-0.345-0.271-0.706-0.305-1.169c-0.023-0.326,0.023-0.625,0.1-0.873
				c0.076-0.253,0.195-0.458,0.335-0.647c0.278-0.374,0.657-0.647,1.116-0.849c0.428-0.186,0.928-0.303,1.489-0.35
				c0.039-0.003,0.085,0.002,0.116-0.007c0.019-0.005,0.019-0.012,0.026-0.029c0.268-0.487,0.594-0.936,0.998-1.29
				C35.776,19.4,36.234,19.127,36.951,19.064z M39.572,21.034c-0.26-0.489-0.568-0.934-0.957-1.291
				c-0.197-0.181-0.424-0.349-0.688-0.473c-0.259-0.123-0.578-0.219-0.957-0.2c-0.092,0.003-0.182,0.013-0.263,0.025
				c-0.079,0.014-0.152,0.032-0.227,0.054c-0.43,0.126-0.758,0.359-1.047,0.633c-0.369,0.352-0.666,0.782-0.915,1.251
				c-0.007,0.013-0.018,0.027-0.018,0.043c0.972-0.032,1.797,0.125,2.543,0.333c0.746-0.209,1.572-0.364,2.541-0.333
				C39.588,21.061,39.579,21.047,39.572,21.034z M33.83,22.956c0.011,0.001,0.023-0.013,0.036-0.022
				c0.827-0.596,1.778-1.069,2.841-1.424c-0.684-0.176-1.408-0.307-2.272-0.3C34.174,21.734,33.979,22.322,33.83,22.956z
				 M37.385,21.512c0.545,0.172,1.051,0.395,1.532,0.633c0.36,0.179,0.699,0.387,1.026,0.597c0.103,0.066,0.203,0.141,0.299,0.208
				c0.006,0.003,0.014,0.009,0.021,0.007c-0.152-0.634-0.346-1.225-0.606-1.746C38.793,21.204,38.063,21.332,37.385,21.512z
				 M33.543,23.178c0.021-0.018,0.061-0.043,0.066-0.058c0.008-0.016,0.01-0.042,0.016-0.066c0.142-0.595,0.318-1.132,0.554-1.627
				c0.027-0.06,0.064-0.13,0.092-0.191c0.014-0.032,0.002-0.02-0.021-0.02c-0.293,0.006-0.58,0.046-0.846,0.099
				c-0.787,0.158-1.419,0.482-1.818,1.021c-0.264,0.354-0.442,0.852-0.375,1.483c0.062,0.559,0.272,0.992,0.498,1.394
				C32.183,24.396,32.818,23.745,33.543,23.178z M39.814,21.222c0.281,0.547,0.496,1.159,0.651,1.831
				c0.007,0.023,0.009,0.052,0.017,0.068s0.045,0.038,0.066,0.056c0.727,0.566,1.361,1.231,1.836,2.036
				c0.225-0.402,0.436-0.841,0.498-1.398c0.034-0.305,0.006-0.609-0.068-0.853c-0.221-0.728-0.737-1.16-1.412-1.436
				c-0.453-0.184-0.99-0.286-1.588-0.311C39.811,21.215,39.814,21.22,39.814,21.222z M36.909,21.382
				c-0.06,0.098-0.118,0.22-0.179,0.326c-1.116,0.378-2.092,0.896-2.959,1.522c-0.027,0.156-0.058,0.31-0.08,0.471
				c-0.022,0.158-0.041,0.319-0.062,0.485c-0.09,0.819-0.064,1.792,0.037,2.57c0.021,0.16,0.051,0.316,0.072,0.474
				c0.002,0.015-0.026,0.054-0.036,0.07c-0.04,0.068-0.079,0.125-0.116,0.189c-0.741-0.575-1.396-1.24-1.881-2.07
				c-0.225,0.402-0.435,0.841-0.498,1.4c-0.072,0.633,0.123,1.14,0.384,1.485c0.542,0.72,1.491,1.051,2.688,1.112
				c-0.249-0.495-0.459-1.041-0.603-1.633c0.06,0.002,0.123-0.003,0.179,0.002c0.146,0.592,0.332,1.146,0.581,1.636
				c0.861,0.005,1.592-0.123,2.27-0.302c-1.014-0.333-1.922-0.785-2.71-1.337c0.078,0,0.17,0,0.249,0c0.026,0,0.076-0.006,0.09,0
				c0.053,0.028,0.103,0.063,0.151,0.095c0.771,0.466,1.609,0.857,2.557,1.147c0.002,0,0.004,0,0.007,0
				c0.974-0.305,1.841-0.699,2.628-1.191c0.034-0.021,0.059-0.046,0.094-0.048c0.107-0.006,0.236-0.005,0.342-0.013
				c-0.801,0.559-1.709,1.01-2.729,1.349c0.684,0.175,1.41,0.307,2.275,0.3c0.242-0.501,0.436-1.055,0.58-1.652
				c0.061-0.001,0.128-0.007,0.182-0.004c-0.145,0.583-0.348,1.123-0.588,1.605c-0.006,0.014-0.02,0.029-0.018,0.046
				c0.598-0.026,1.134-0.127,1.586-0.312c0.447-0.183,0.834-0.44,1.1-0.8c0.26-0.351,0.454-0.856,0.382-1.488
				c-0.063-0.557-0.272-1-0.5-1.398c-0.481,0.831-1.134,1.493-1.874,2.065c-0.053-0.085-0.109-0.165-0.16-0.249
				c0.115-0.606,0.168-1.296,0.168-2.015c0-0.716-0.084-1.385-0.197-1.985c-0.944-0.692-2.032-1.251-3.284-1.628
				C36.994,21.531,36.951,21.456,36.909,21.382z M33.554,23.401c0-0.001-0.002-0.002-0.005-0.001
				c-0.688,0.541-1.309,1.155-1.778,1.917c0.352,0.572,0.795,1.06,1.276,1.499c0.151,0.137,0.314,0.272,0.475,0.396
				c0.009,0.006,0.02,0.019,0.032,0.017C33.318,26.094,33.32,24.532,33.554,23.401z M40.543,23.401c0-0.002-0.003-0.001-0.003,0.002
				c0.108,0.571,0.177,1.236,0.176,1.913c0,0.677-0.065,1.342-0.176,1.913c0.69-0.532,1.312-1.155,1.78-1.915
				C41.85,24.555,41.236,23.938,40.543,23.401z M37.189,29.261c-0.047-0.013-0.097-0.031-0.144-0.039
				c-0.016-0.002-0.054,0.013-0.078,0.02c-0.732,0.201-1.522,0.339-2.465,0.312c0,0.016,0.011,0.03,0.018,0.043
				c0.124,0.234,0.258,0.456,0.404,0.663c0.317,0.441,0.693,0.828,1.199,1.081c0.254,0.128,0.552,0.221,0.92,0.219
				c0.369,0,0.663-0.091,0.92-0.219c0.257-0.125,0.478-0.288,0.67-0.47c0.377-0.359,0.681-0.793,0.938-1.271
				c0.008-0.015,0.018-0.034,0.016-0.045C38.678,29.577,37.898,29.455,37.189,29.261z"/>
			<path fill="#CC0917" d="M37.667,22.853c-0.503,0-1.007,0-1.511,0c-0.002-0.016,0.011-0.028,0.018-0.041
				c0.112-0.212,0.229-0.429,0.345-0.645c0.123-0.234,0.252-0.468,0.374-0.697C37.151,21.929,37.416,22.396,37.667,22.853z"/>
			<path fill="#1C75BC" d="M37.389,25.685c-0.289,0.005-0.578,0.011-0.87,0.013c0.002-0.877,0.009-1.751,0.014-2.626
				c0.207-0.003,0.397-0.011,0.605-0.011c0.065,0,0.146-0.001,0.211-0.006c0.019-0.001,0.012,0.004,0.014,0.034
				c0.01,0.208,0,0.413,0.009,0.617c0.008,0.229,0.005,0.445,0.005,0.661C37.375,24.81,37.391,25.247,37.389,25.685z"/>
			
				<linearGradient id="SVGID_1_" gradientUnits="userSpaceOnUse" x1="125.2012" y1="-223.6646" x2="125.2012" y2="-214.6349" gradientTransform="matrix(1 0 0 -1 -86 -190.167)">
				<stop  offset="0" style="stop-color:#1C5FBC"/>
				<stop  offset="1" style="stop-color:#1C75BC"/>
			</linearGradient>
			<path fill="url(#SVGID_1_)" d="M37.76,23.413c1.064,1.641,2.141,3.285,3.194,4.926c-0.353,0.012-0.714,0.032-1.079,0.04
				c-0.023,0-0.055,0.007-0.07,0.003c-0.02-0.006-0.049-0.069-0.068-0.098c-0.323-0.5-0.658-1.02-0.979-1.515
				c-0.439-0.003-0.876-0.009-1.313-0.014c0-0.24,0-0.481,0-0.72c0.279-0.003,0.557-0.008,0.838-0.009
				c-0.146-0.279-0.316-0.573-0.479-0.863c-0.011-0.02-0.025-0.042-0.029-0.058c-0.014-0.055-0.004-0.138-0.004-0.21
				c0-0.217-0.004-0.414-0.004-0.633c0-0.286-0.017-0.562-0.009-0.841C37.758,23.417,37.756,23.413,37.76,23.413z"/>
			
				<linearGradient id="SVGID_2_" gradientUnits="userSpaceOnUse" x1="121.2656" y1="-223.6641" x2="121.2656" y2="-214.6362" gradientTransform="matrix(1 0 0 -1 -86 -190.167)">
				<stop  offset="0" style="stop-color:#1C5FBC"/>
				<stop  offset="1" style="stop-color:#1C75BC"/>
			</linearGradient>
			<path fill="url(#SVGID_2_)" d="M36.111,23.432c0.014,0.47,0.004,0.965,0.016,1.447c0.002,0.07,0.013,0.152,0,0.208
				c-0.004,0.021-0.028,0.049-0.044,0.076c-0.435,0.792-0.88,1.569-1.314,2.357c0.514-0.015,1.029-0.027,1.548-0.039
				c0.009-0.179,0.009-0.365,0.016-0.544c0.351-0.003,0.695-0.009,1.044-0.013c0.006,0.477,0.013,0.952,0.015,1.431
				c-1.419,0.002-2.833,0.008-4.249,0.013c-0.005-0.014,0.007-0.027,0.013-0.038c0.733-1.216,1.479-2.435,2.21-3.659
				c0.123-0.206,0.247-0.413,0.372-0.617C35.861,23.848,35.988,23.641,36.111,23.432z"/>
		</g>
		<g>
			<g>
				<path fill="#0070B7" d="M55.25,34.778h-0.409v-0.33h1.194v0.33h-0.408l0.001,1.029H55.25V34.778z"/>
				<path fill="#0070B7" d="M56.331,34.449h0.397l0.326,0.525l0.324-0.526h0.396v1.36H57.4v-0.781l-0.348,0.533h-0.009l-0.345-0.529
					v0.777h-0.37v-1.359H56.331z"/>
			</g>
			<g>
				<path fill="#0070B7" d="M19.277,38.112l0.677-0.809c0.433,0.346,0.914,0.525,1.422,0.525c0.325,0,0.501-0.112,0.501-0.299
					v-0.015c0-0.182-0.145-0.282-0.737-0.42c-0.935-0.213-1.654-0.476-1.654-1.378v-0.014c0-0.813,0.646-1.402,1.697-1.402
					c0.746,0,1.327,0.202,1.805,0.583l-0.608,0.858c-0.4-0.28-0.839-0.433-1.228-0.433c-0.294,0-0.438,0.126-0.438,0.282v0.012
					c0,0.201,0.15,0.288,0.759,0.426c1.009,0.221,1.635,0.545,1.635,1.365v0.014c0,0.896-0.708,1.429-1.772,1.429
					C20.557,38.839,19.816,38.594,19.277,38.112z"/>
				<path fill="#0070B7" d="M24.193,37.71v-1.379h-0.4v-0.956h0.4v-0.859h1.189v0.859h0.789v0.956h-0.789v1.146
					c0,0.238,0.106,0.34,0.326,0.34c0.157,0,0.309-0.045,0.45-0.113v0.934c-0.213,0.119-0.494,0.195-0.826,0.195
					C24.62,38.833,24.193,38.519,24.193,37.71z"/>
				<path fill="#0070B7" d="M27.111,35.375h1.19v0.683c0.193-0.463,0.508-0.764,1.07-0.738v1.252h-0.1
					c-0.62,0-0.972,0.356-0.972,1.14v1.053h-1.19L27.111,35.375L27.111,35.375z"/>
				<path fill="#0070B7" d="M29.894,37.792V37.78c0-0.701,0.532-1.064,1.328-1.064c0.313,0,0.62,0.063,0.813,0.132V36.79
					c0-0.353-0.219-0.551-0.677-0.551c-0.356,0-0.632,0.067-0.934,0.188l-0.243-0.84c0.382-0.157,0.789-0.264,1.37-0.264
					c0.607,0,1.021,0.146,1.29,0.412c0.258,0.25,0.363,0.603,0.363,1.077v1.948h-1.177v-0.352c-0.232,0.259-0.552,0.428-0.996,0.428
					C30.389,38.839,29.894,38.469,29.894,37.792z M32.047,37.534v-0.156c-0.116-0.051-0.287-0.088-0.463-0.088
					c-0.344,0-0.545,0.171-0.545,0.42v0.014c0,0.23,0.176,0.369,0.42,0.369C31.804,38.093,32.047,37.874,32.047,37.534z"/>
				<path fill="#0070B7" d="M34.415,37.71v-1.379h-0.4v-0.956h0.4v-0.859h1.19v0.859h0.789v0.956h-0.789v1.146
					c0,0.238,0.105,0.34,0.325,0.34c0.155,0,0.308-0.045,0.449-0.113v0.934c-0.213,0.119-0.493,0.195-0.825,0.195
					C34.841,38.833,34.415,38.519,34.415,37.71z"/>
				<path fill="#0070B7" d="M37.103,37.085v-0.014c0-0.988,0.708-1.771,1.71-1.771c1.17,0,1.709,0.857,1.709,1.854
					c0,0.074,0,0.164-0.006,0.243h-2.268c0.094,0.37,0.363,0.558,0.732,0.558c0.281,0,0.508-0.106,0.752-0.344l0.658,0.545
					c-0.328,0.414-0.797,0.688-1.474,0.688C37.854,38.845,37.103,38.137,37.103,37.085z M39.406,36.79
					c-0.043-0.377-0.264-0.613-0.588-0.613c-0.313,0-0.527,0.244-0.59,0.613H39.406z"/>
				<path fill="#0070B7" d="M41.424,39.39l0.381-0.789c0.364,0.2,0.728,0.318,1.186,0.318c0.594,0,0.889-0.294,0.889-0.832v-0.133
					c-0.238,0.275-0.551,0.509-1.046,0.509c-0.832,0-1.503-0.603-1.503-1.572v-0.013c0-0.977,0.684-1.578,1.466-1.578
					c0.507,0,0.808,0.207,1.063,0.475v-0.398h1.189v2.574c0,0.619-0.137,1.051-0.438,1.353c-0.309,0.308-0.783,0.478-1.491,0.478
					C42.463,39.778,41.911,39.64,41.424,39.39z M43.878,36.891v-0.013c0-0.376-0.287-0.652-0.688-0.652
					c-0.406,0-0.695,0.282-0.695,0.658v0.013c0,0.375,0.289,0.651,0.695,0.651C43.591,37.548,43.878,37.266,43.878,36.891z"/>
				<path fill="#0070B7" d="M46.025,39.489l0.369-0.832c0.188,0.112,0.389,0.183,0.521,0.183c0.119,0,0.2-0.032,0.273-0.14
					l-1.326-3.324h1.246l0.677,2.041l0.639-2.041h1.224l-1.241,3.307c-0.294,0.788-0.613,1.102-1.29,1.102
					C46.695,39.782,46.34,39.665,46.025,39.489z"/>
				<path fill="#0070B7" d="M50.529,34.379h2.072c0.67,0,1.133,0.175,1.428,0.476c0.257,0.251,0.39,0.59,0.39,1.021v0.013
					c0,0.67-0.356,1.114-0.901,1.347l1.045,1.527H53.16l-0.883-1.328h-0.014h-0.52v1.328h-1.215V34.379z M52.545,36.483
					c0.415,0,0.652-0.199,0.652-0.52v-0.012c0-0.347-0.252-0.521-0.657-0.521h-0.796v1.053H52.545z"/>
			</g>
			<g>
				<path fill="#494949" d="M19.584,43.573v-2.768h0.365v2.768H19.584z"/>
				<path fill="#494949" d="M20.939,43.573v-2.004h0.305v0.284c0.148-0.22,0.36-0.331,0.639-0.331c0.121,0,0.232,0.022,0.334,0.065
					c0.102,0.044,0.178,0.101,0.228,0.171c0.052,0.07,0.086,0.154,0.105,0.251c0.014,0.063,0.02,0.174,0.02,0.331v1.232h-0.34v-1.22
					c0-0.139-0.014-0.241-0.039-0.312c-0.027-0.068-0.074-0.124-0.142-0.164c-0.066-0.041-0.146-0.063-0.236-0.063
					c-0.146,0-0.271,0.048-0.376,0.14s-0.157,0.267-0.157,0.521v1.096h-0.34V43.573z"/>
				<path fill="#494949" d="M23.558,43.573v-1.74h-0.3v-0.264h0.3v-0.214c0-0.136,0.014-0.235,0.036-0.302
					c0.033-0.087,0.091-0.16,0.174-0.213c0.083-0.057,0.196-0.083,0.347-0.083c0.096,0,0.201,0.012,0.317,0.032l-0.053,0.299
					c-0.069-0.014-0.136-0.021-0.198-0.021c-0.104,0-0.177,0.022-0.221,0.067c-0.042,0.045-0.063,0.126-0.063,0.247v0.186h0.391
					v0.264h-0.391v1.742H23.558L23.558,43.573z"/>
				<path fill="#494949" d="M24.932,43.573v-2.768h0.34v2.768H24.932z"/>
				<path fill="#494949" d="M27.498,43.573V43.28c-0.156,0.227-0.367,0.34-0.636,0.34c-0.118,0-0.229-0.022-0.331-0.068
					c-0.104-0.045-0.18-0.102-0.229-0.17c-0.05-0.069-0.084-0.153-0.104-0.253c-0.014-0.066-0.021-0.173-0.021-0.316v-1.243h0.341
					v1.112c0,0.179,0.007,0.298,0.021,0.358c0.021,0.09,0.067,0.158,0.136,0.211c0.07,0.051,0.155,0.076,0.258,0.076
					s0.197-0.025,0.286-0.077c0.091-0.054,0.154-0.125,0.19-0.216c0.036-0.09,0.056-0.221,0.056-0.393v-1.072h0.341v2.004H27.498
					L27.498,43.573z"/>
				<path fill="#494949" d="M30.094,42.929l0.354,0.043c-0.056,0.205-0.158,0.364-0.308,0.477c-0.15,0.114-0.343,0.172-0.574,0.172
					c-0.293,0-0.526-0.09-0.698-0.271c-0.172-0.181-0.257-0.434-0.257-0.76c0-0.337,0.086-0.602,0.26-0.785
					c0.174-0.188,0.398-0.279,0.676-0.279c0.269,0,0.487,0.09,0.658,0.272c0.169,0.184,0.254,0.438,0.254,0.772
					c0,0.02,0,0.049-0.002,0.09H28.96c0.014,0.22,0.075,0.389,0.188,0.506c0.111,0.117,0.252,0.175,0.42,0.175
					c0.125,0,0.229-0.033,0.317-0.099C29.974,43.176,30.043,43.071,30.094,42.929z M28.979,42.379h1.119
					c-0.015-0.169-0.058-0.296-0.127-0.382c-0.109-0.129-0.25-0.194-0.423-0.194c-0.155,0-0.286,0.052-0.394,0.155
					C29.049,42.063,28.99,42.202,28.979,42.379z"/>
				<path fill="#494949" d="M31.26,43.573v-2.004h0.308v0.284c0.146-0.22,0.358-0.331,0.638-0.331c0.12,0,0.231,0.022,0.333,0.065
					c0.103,0.044,0.178,0.101,0.229,0.171c0.05,0.07,0.086,0.154,0.104,0.251c0.012,0.063,0.019,0.174,0.019,0.331v1.232H32.55
					v-1.22c0-0.139-0.013-0.241-0.038-0.312c-0.026-0.068-0.073-0.124-0.142-0.164c-0.068-0.041-0.146-0.063-0.236-0.063
					c-0.146,0-0.271,0.048-0.376,0.14c-0.104,0.092-0.156,0.267-0.156,0.521v1.096H31.26V43.573z"/>
				<path fill="#494949" d="M35.105,42.839l0.335,0.044c-0.036,0.229-0.13,0.411-0.28,0.541s-0.336,0.194-0.555,0.194
					c-0.273,0-0.494-0.09-0.661-0.27s-0.251-0.436-0.251-0.771c0-0.215,0.036-0.405,0.106-0.567
					c0.072-0.162,0.183-0.284,0.328-0.366c0.146-0.079,0.308-0.121,0.479-0.121c0.217,0,0.396,0.055,0.534,0.165
					c0.139,0.111,0.227,0.267,0.266,0.47l-0.33,0.053c-0.032-0.137-0.088-0.235-0.168-0.305c-0.079-0.068-0.176-0.103-0.289-0.103
					c-0.172,0-0.311,0.062-0.418,0.185c-0.106,0.123-0.16,0.315-0.16,0.582c0,0.271,0.052,0.465,0.154,0.588
					c0.104,0.123,0.239,0.184,0.404,0.184c0.134,0,0.245-0.042,0.335-0.123C35.025,43.135,35.082,43.009,35.105,42.839z"/>
				<path fill="#494949" d="M37.491,42.929l0.351,0.043c-0.055,0.205-0.158,0.364-0.307,0.477c-0.15,0.114-0.342,0.172-0.574,0.172
					c-0.294,0-0.524-0.09-0.696-0.271c-0.173-0.181-0.26-0.434-0.26-0.76c0-0.337,0.087-0.602,0.262-0.785
					c0.174-0.188,0.397-0.279,0.676-0.279c0.268,0,0.485,0.09,0.657,0.272c0.17,0.184,0.256,0.438,0.256,0.772
					c0,0.02-0.002,0.049-0.004,0.09h-1.495c0.014,0.22,0.075,0.389,0.188,0.506c0.111,0.117,0.252,0.175,0.419,0.175
					c0.125,0,0.231-0.033,0.319-0.099C37.371,43.176,37.439,43.071,37.491,42.929z M36.375,42.379h1.119
					c-0.014-0.169-0.057-0.296-0.127-0.382c-0.109-0.129-0.25-0.194-0.422-0.194c-0.156,0-0.287,0.052-0.396,0.155
					C36.445,42.063,36.388,42.202,36.375,42.379z"/>
				<path fill="#494949" d="M38.652,43.573v-2.004h0.307v0.303c0.077-0.143,0.15-0.234,0.215-0.28
					c0.066-0.046,0.141-0.067,0.219-0.067c0.115,0,0.232,0.035,0.351,0.109l-0.117,0.314c-0.083-0.049-0.166-0.073-0.249-0.073
					c-0.074,0-0.143,0.021-0.2,0.067c-0.06,0.043-0.102,0.105-0.127,0.186c-0.036,0.122-0.057,0.254-0.057,0.396v1.049H38.652
					L38.652,43.573z"/>
				<path fill="#494949" d="M41.836,43.573v-2.768h0.953c0.216,0,0.38,0.014,0.492,0.039c0.16,0.037,0.295,0.104,0.406,0.198
					c0.146,0.124,0.254,0.28,0.328,0.473c0.071,0.193,0.108,0.412,0.108,0.659c0,0.21-0.024,0.396-0.074,0.559
					c-0.049,0.162-0.112,0.297-0.188,0.402s-0.16,0.189-0.252,0.252c-0.092,0.061-0.201,0.107-0.33,0.141
					c-0.131,0.03-0.277,0.045-0.446,0.045H41.836L41.836,43.573z M42.202,43.245h0.591c0.184,0,0.326-0.017,0.432-0.051
					c0.103-0.033,0.187-0.08,0.246-0.143c0.088-0.088,0.155-0.204,0.204-0.352c0.048-0.146,0.072-0.324,0.072-0.532
					c0-0.29-0.048-0.513-0.144-0.667c-0.095-0.156-0.209-0.262-0.347-0.313c-0.098-0.038-0.256-0.058-0.474-0.058h-0.582
					L42.202,43.245L42.202,43.245z"/>
				<path fill="#494949" d="M44.969,43.573v-2.004h0.307v0.303c0.076-0.143,0.149-0.234,0.216-0.28
					c0.067-0.046,0.139-0.067,0.219-0.067c0.114,0,0.229,0.035,0.349,0.109l-0.115,0.314c-0.084-0.049-0.168-0.073-0.25-0.073
					c-0.073,0-0.141,0.021-0.2,0.067c-0.06,0.043-0.103,0.105-0.126,0.186c-0.038,0.122-0.057,0.254-0.057,0.396v1.049H44.969
					L44.969,43.573z"/>
				<path fill="#494949" d="M46.648,41.196v-0.392h0.34v0.392H46.648z M46.648,43.573v-2.004h0.34v2.004H46.648z"/>
				<path fill="#494949" d="M48.45,43.573l-0.763-2.004h0.356l0.433,1.2c0.047,0.13,0.09,0.265,0.129,0.404
					c0.028-0.106,0.07-0.233,0.125-0.382l0.445-1.225h0.35l-0.76,2.006H48.45L48.45,43.573L48.45,43.573z"/>
				<path fill="#494949" d="M51.586,42.929l0.354,0.043c-0.057,0.205-0.16,0.364-0.31,0.477c-0.149,0.114-0.342,0.172-0.573,0.172
					c-0.293,0-0.527-0.09-0.699-0.271c-0.17-0.181-0.256-0.434-0.256-0.76c0-0.337,0.086-0.602,0.26-0.785
					c0.174-0.188,0.4-0.279,0.678-0.279c0.268,0,0.486,0.09,0.656,0.272c0.17,0.184,0.254,0.438,0.254,0.772
					c0,0.02,0,0.049-0.002,0.09h-1.495c0.013,0.22,0.075,0.389,0.187,0.506c0.112,0.117,0.254,0.175,0.42,0.175
					c0.125,0,0.23-0.033,0.32-0.099C51.465,43.176,51.534,43.071,51.586,42.929z M50.471,42.379h1.12
					c-0.016-0.169-0.059-0.296-0.129-0.382c-0.108-0.129-0.248-0.194-0.421-0.194c-0.157,0-0.288,0.052-0.395,0.155
					C50.54,42.063,50.482,42.202,50.471,42.379z"/>
				<path fill="#494949" d="M52.752,43.573v-2.004h0.305v0.284c0.148-0.22,0.361-0.331,0.639-0.331c0.121,0,0.232,0.022,0.334,0.065
					c0.103,0.044,0.178,0.101,0.228,0.171c0.052,0.07,0.087,0.154,0.104,0.251c0.015,0.063,0.021,0.174,0.021,0.331v1.232h-0.34
					v-1.22c0-0.139-0.013-0.241-0.039-0.312c-0.026-0.068-0.073-0.124-0.142-0.164c-0.066-0.041-0.146-0.063-0.236-0.063
					c-0.145,0-0.27,0.048-0.375,0.14s-0.157,0.267-0.157,0.521v1.096h-0.341V43.573z"/>
			</g>
		</g>
	</g>
	<polyline fill="none" points="60.5,31.22 61.434,31.22 65.5,31.22 	"/>
	<path fill="#FF0000" stroke="#000000" stroke-miterlimit="10" d="M62.842,21.776"/>
	<path fill="none" stroke="#000000" stroke-miterlimit="10" d="M65.945,38.112"/>
	<path fill="none" stroke="#000000" stroke-miterlimit="10" d="M8.162,38.112"/>
	<path fill="none" stroke="#000000" stroke-miterlimit="10" d="M8.674,32.448"/>
	<polyline fill="none" points="60.5,31.22 61.314,31.22 65.5,31.22 	"/>
	<path fill="#FF0000" stroke="#000000" stroke-miterlimit="10" d="M62.727,21.776"/>
	<g>
		<path d="M9.036,22.393l1.514-3.19l0.955,0.434l-0.997,2.102l0.613,0.28l0.903-1.904l0.887,0.403l-0.904,1.903l0.643,0.292
			l1.012-2.13l0.955,0.434l-1.527,3.218L9.036,22.393z"/>
		<path d="M13.784,18.19l-2.642-0.055l0.816-1.141l1.484,0.07l-0.574-1.345l0.798-1.116l0.948,2.402l2.752,0.053l-0.816,1.142
			l-1.594-0.069l0.609,1.445l-0.798,1.116L13.784,18.19z"/>
		<path d="M14.575,13.608l2.54-2.489l0.746,0.73l-1.674,1.638l0.479,0.468l1.517-1.484l0.691,0.675l-1.518,1.485l0.502,0.491
			l1.697-1.663l0.745,0.729l-2.563,2.51L14.575,13.608z"/>
		<path d="M19.396,12.08l-0.008-0.01c-0.749-1.042-0.516-2.424,0.592-3.187c0.747-0.514,1.447-0.537,2.088-0.321L21.72,9.664
			c-0.393-0.111-0.75-0.109-1.101,0.131c-0.512,0.352-0.567,1.024-0.192,1.545l0.007,0.011c0.386,0.536,1.047,0.708,1.56,0.355
			c0.381-0.262,0.481-0.59,0.513-1.002l1.146,0.006c-0.011,0.703-0.229,1.365-1.039,1.921C21.567,13.352,20.164,13.147,19.396,12.08
			z"/>
		<path d="M23.823,9.46l-1.038-2.236l1.146-0.508l1.027,2.212c0.267,0.575,0.689,0.715,1.144,0.514
			c0.453-0.201,0.628-0.594,0.369-1.151l-1.04-2.241l1.146-0.509l1.023,2.207c0.597,1.286,0.107,2.182-1.049,2.696
			C25.395,10.957,24.4,10.706,23.823,9.46z"/>
		<path d="M29.406,5.828l-1.301,0.321l-0.267-1.03l3.802-0.938l0.266,1.03l-1.3,0.321l0.829,3.211l-1.202,0.296L29.406,5.828z"/>
		<path d="M32.875,4.041l1.236-0.146l0.536,4.342l-1.236,0.146L32.875,4.041z"/>
		<path d="M35.263,3.72l1.386,0.023l0.968,2.784l1.062-2.751l1.361,0.022L38.15,8.171l-1.149-0.018L35.263,3.72z"/>
		<path d="M41.308,3.985l3.526,0.68L44.63,5.676l-2.323-0.448l-0.131,0.649l2.105,0.406l-0.189,0.938l-2.105-0.407l-0.138,0.681
			l2.355,0.454L44,8.961l-3.558-0.686L41.308,3.985z"/>
		<path d="M48.387,5.819l1.733,0.797c1.021,0.471,1.434,1.288,1.012,2.164l-0.006,0.012c-0.447,0.933-1.418,1.087-2.424,0.624
			l-0.554-0.254l-0.544,1.13l-1.121-0.516L48.387,5.819z M49.093,8.547c0.397,0.184,0.74,0.092,0.888-0.219l0.006-0.011
			c0.163-0.339,0.008-0.632-0.396-0.817l-0.525-0.242l-0.503,1.045L49.093,8.547z"/>
		<path d="M51.577,9.764l0.007-0.01c0.756-1.016,2.205-1.245,3.319-0.452c1.116,0.793,1.34,2.193,0.587,3.21l-0.008,0.01
			c-0.756,1.017-2.204,1.246-3.319,0.453C51.047,12.182,50.824,10.78,51.577,9.764z M54.45,11.805l0.008-0.01
			c0.38-0.51,0.332-1.223-0.222-1.616C53.689,9.79,53,9.964,52.621,10.475l-0.008,0.01c-0.379,0.51-0.332,1.223,0.217,1.612
			C53.382,12.491,54.071,12.316,54.45,11.805z"/>
		<path d="M57.877,11.776l0.855,0.876l-2.448,2.286l1.494,1.531l-0.784,0.733l-2.352-2.408L57.877,11.776z"/>
		<path d="M61.031,15.176l0.707,0.995l-2.779,1.891l1.234,1.739l-0.89,0.606l-1.943-2.734L61.031,15.176z"/>
		<path d="M60.046,20.337l1.04,0.259c-0.124,0.538-0.078,1.049,0.145,1.505c0.145,0.292,0.325,0.402,0.497,0.321l0.011-0.006
			c0.168-0.078,0.197-0.25,0.061-0.846c-0.217-0.931-0.292-1.692,0.536-2.081l0.012-0.006c0.75-0.352,1.575-0.026,2.038,0.92
			c0.33,0.67,0.402,1.28,0.262,1.874l-1.057-0.176c0.081-0.481,0.026-0.94-0.145-1.291c-0.13-0.265-0.309-0.339-0.452-0.272
			l-0.013,0.004c-0.184,0.087-0.197,0.26-0.057,0.866c0.243,1.001,0.221,1.705-0.534,2.059l-0.011,0.006
			c-0.823,0.386-1.624-0.02-2.095-0.977C59.941,21.799,59.841,21.03,60.046,20.337z"/>
	</g>
</g>
</svg>
