<?xml version="1.0" encoding="utf-8"?>
<!-- Generator: Adobe Illustrator 16.0.0, SVG Export Plug-In . SVG Version: 6.00 Build 0)  -->
<!DOCTYPE svg PUBLIC "-//W3C//DTD SVG 1.1//EN" "http://www.w3.org/Graphics/SVG/1.1/DTD/svg11.dtd">
<svg version="1.1" id="Layer_1" xmlns="http://www.w3.org/2000/svg" xmlns:xlink="http://www.w3.org/1999/xlink" x="0px" y="0px"
	 width="73.75px" height="70px" viewBox="0 0 73.75 70" enable-background="new 0 0 73.75 70" xml:space="preserve">
<path fill="none" stroke="#000000" stroke-miterlimit="10" d="M94.904-3.709"/>
<path fill="none" stroke="#000000" stroke-miterlimit="10" d="M95.417-9.374"/>
<g>
	<g>
		<path d="M11.744,34.178l0.046,1.308l-1.689,1.124l1.764,1.004l0.046,1.308l-4.463,0.155l-0.042-1.229l2.563-0.091l-1.784-1.08
			L8.182,36.65l1.693-1.194l-2.55,0.089l-0.041-1.212L11.744,34.178z"/>
		<path d="M12.521,41.604l0.297,1.154L8.94,45.723l-0.332-1.285l0.689-0.515l-0.43-1.667l-0.853-0.109l-0.325-1.261L12.521,41.604z
			 M10.142,43.336l1.104-0.798l-1.354-0.172L10.142,43.336z"/>
		<path d="M13.622,45.4l0.932,1.896c0.301,0.613,0.348,1.113,0.204,1.52c-0.113,0.349-0.362,0.619-0.76,0.813l-0.011,0.005
			c-0.612,0.301-1.18,0.174-1.636-0.221l-0.929,1.643l-0.63-1.281l0.817-1.403l-0.005-0.013l-0.233-0.476l-1.215,0.597l-0.545-1.11
			L13.622,45.4z M12.604,48.189c0.186,0.379,0.476,0.506,0.769,0.362l0.011-0.006c0.315-0.153,0.362-0.462,0.182-0.834l-0.357-0.728
			l-0.963,0.473L12.604,48.189z"/>
		<path d="M15.946,49.868l0.75,0.983l-1.44,1.101l2.371,0.123l0.892,1.168l-2.554-0.183l-0.966,2.935l-0.9-1.185l0.64-1.897
			l-0.675-0.056l-0.919,0.701l-0.75-0.985L15.946,49.868z"/>
		<path d="M19.152,53.854l2.67,2.401l-0.703,0.783l-1.76-1.584l-0.453,0.504l1.594,1.433l-0.651,0.729l-1.595-1.436L17.78,57.21
			l1.782,1.604l-0.703,0.781l-2.693-2.424L19.152,53.854z"/>
		<path d="M23.1,58.423l-1.14-0.702l0.569-0.924l3.332,2.059l-0.568,0.924l-1.141-0.705l-1.775,2.877l-1.053-0.648L23.1,58.423z"/>
		<path d="M29.088,60.188l1.182,0.393l-1.402,4.24l-1.182-0.394L29.088,60.188z"/>
		<path d="M31.531,61.011l1.139,0.188l1.428,2.627l0.385-2.328l1.209,0.199L34.964,66.1l-1.069-0.175l-1.482-2.729l-0.398,2.416
			l-1.207-0.198L31.531,61.011z"/>
		<path d="M36.938,61.739l3.57-0.095l0.027,1.086l-2.334,0.06l0.021,0.761l2.107-0.056l0.025,1.026l-2.108,0.056l0.041,1.594
			l-1.237,0.031L36.938,61.739z"/>
		<path d="M41.547,61.503l1.213-0.244l0.663,3.314l2.121-0.425l0.213,1.063l-3.333,0.667L41.547,61.503z"/>
		<path d="M46.6,62.952l-0.93-2.328l1.167-0.467l0.921,2.306c0.238,0.6,0.654,0.762,1.115,0.577
			c0.463-0.185,0.654-0.577,0.424-1.157l-0.931-2.336l1.167-0.466l0.917,2.299c0.534,1.34,0.006,2.231-1.175,2.701
			C48.098,64.552,47.117,64.249,46.6,62.952z"/>
		<path d="M50.575,58.507l3.021-1.942l0.569,0.887l-1.99,1.279L52.54,59.3l1.804-1.161l0.527,0.821l-1.803,1.16l0.384,0.596
			l2.017-1.298l0.569,0.887l-3.048,1.959L50.575,58.507z"/>
		<path d="M54.486,55.891l0.834-0.8l2.959,0.431l-1.633-1.701l0.883-0.851l3.094,3.224l-0.782,0.75l-3.071-0.445l1.695,1.768
			l-0.884,0.851L54.486,55.891z"/>
		<path d="M60.076,53.422l-0.012-0.007c-1.069-0.739-1.34-2.146-0.57-3.258c0.52-0.75,1.167-1.017,1.842-1.028l0.063,1.176
			c-0.405,0.029-0.739,0.154-0.982,0.508c-0.355,0.514-0.17,1.178,0.363,1.547l0.013,0.008c0.551,0.381,1.229,0.316,1.587-0.198
			c0.266-0.384,0.241-0.731,0.127-1.138l1.074-0.389c0.238,0.678,0.27,1.387-0.294,2.199C62.561,53.891,61.173,54.182,60.076,53.422
			z"/>
		<path d="M61.109,47.739l1.451-3.285l0.963,0.427l-0.957,2.164l0.619,0.271l0.864-1.961l0.894,0.396l-0.864,1.961l0.646,0.285
			l0.971-2.193l0.965,0.426l-1.467,3.313L61.109,47.739z"/>
		<path d="M62.92,43.389l0.477-2.06c0.152-0.664,0.436-1.084,0.799-1.31c0.31-0.194,0.676-0.248,1.104-0.147l0.016,0.002
			c0.664,0.153,1.022,0.608,1.127,1.205l1.758-0.688l-0.32,1.393l-1.521,0.572l-0.002,0.012l-0.119,0.517l1.316,0.306l-0.279,1.207
			L62.92,43.389z M65.471,41.868c0.096-0.408-0.049-0.691-0.365-0.767L65.092,41.1c-0.342-0.078-0.572,0.129-0.666,0.534
			l-0.183,0.789l1.044,0.24L65.471,41.868z"/>
	</g>
	<path fill="none" stroke="#000000" stroke-width="0.5" stroke-miterlimit="10" d="M68.561,22.511c0,0.003,0.002,0.008,0.004,0.011
		l-0.014,0.004 M68.123,21.787l-0.52-1.403C62.203,9.422,50.92,1.88,37.875,1.88c-12.924,0-24.121,7.445-29.581,18.241l-0.573,1.345
		L5.59,20.599l1.171,2.94l0.042,0.109l2.809,6.178l5.64-2.736l0.349-0.159l2.608-1.192l-1.688-0.688l0.552-1.336
		c4.018-7.344,11.842-12.378,20.803-12.378c8.959,0,16.756,4.979,20.771,12.322l0.539,1.375l-1.815,0.612l2.524,1.234l0.39,0.189
		l6.01,2.936l2.606-6.088l0.009-0.017l1.256-2.935L68.123,21.787z M70.373,28.215l-3.617,4.227l-5.779-2.82l-0.063-0.031
		c0.406,1.736,0.621,3.547,0.621,5.408c0,13.067-10.594,23.662-23.66,23.662c-13.067,0-23.661-10.595-23.661-23.662
		c0-1.807,0.201-3.566,0.587-5.257l-5.769,2.7l-3.58-4.485c-0.485,2.262-0.696,4.558-0.696,7.042
		c0,18.293,14.827,33.121,33.119,33.121c18.291,0,33.119-14.828,33.119-33.121C70.994,32.936,70.734,30.174,70.373,28.215z"/>
	<g>
		<path d="M65.414,38.215l-0.122,0.621l-0.503-0.1l0.357-1.816l0.502,0.1l-0.121,0.621l1.565,0.311l-0.11,0.574L65.414,38.215z"/>
		<path d="M65.234,36.467l0.121-0.605l0.896-0.334l-0.705-0.654l0.119-0.604l2.07,0.406l-0.111,0.571l-1.189-0.233l0.707,0.688
			l-0.002,0.013l-0.908,0.368l1.185,0.232l-0.11,0.563L65.234,36.467z"/>
	</g>
	<g>
		<g>
			<path fill="#C9C9C9" d="M37.621,16.064c0.063,0,0.127,0,0.189,0c0.088,0.005,0.176,0.017,0.256,0.031
				c0.564,0.103,0.974,0.354,1.332,0.667c0.408,0.357,0.727,0.798,0.994,1.288c0.004,0.004,0.01,0.021,0.016,0.026
				c0.011,0.009,0.008,0.006,0.02,0.007c0.075,0.012,0.152,0.012,0.225,0.02c0.228,0.023,0.434,0.053,0.635,0.099
				c0.795,0.18,1.436,0.518,1.855,1.077c0.284,0.375,0.471,0.854,0.442,1.51c-0.015,0.302-0.082,0.573-0.161,0.816
				c-0.084,0.247-0.184,0.467-0.298,0.682c-0.003,0.006-0.008,0.013-0.011,0.018c-0.006,0.019,0.013,0.038,0.023,0.061
				c0.211,0.403,0.396,0.858,0.439,1.411c0.054,0.68-0.146,1.172-0.419,1.544c-0.484,0.664-1.282,1.034-2.274,1.178
				c-0.143,0.021-0.292,0.027-0.447,0.046c-0.018,0.002-0.019,0-0.027,0.008c-0.006,0.005-0.006,0.012-0.012,0.021
				c-0.275,0.501-0.605,0.948-1.025,1.316c-0.205,0.18-0.441,0.34-0.711,0.461c-0.271,0.124-0.592,0.213-0.959,0.213
				c-0.192,0-0.357-0.028-0.518-0.067c-0.467-0.115-0.834-0.35-1.138-0.621c-0.397-0.354-0.698-0.756-0.972-1.228
				c-0.014-0.023-0.036-0.077-0.055-0.093c-0.012-0.012-0.019-0.008-0.041-0.01c-0.599-0.036-1.143-0.162-1.594-0.362
				c-0.455-0.202-0.828-0.477-1.107-0.849c-0.141-0.186-0.256-0.394-0.332-0.647c-0.073-0.249-0.123-0.544-0.1-0.87
				c0.043-0.58,0.213-1.008,0.424-1.413c0.014-0.027,0.049-0.081,0.043-0.1c-0.008-0.026-0.029-0.051-0.043-0.077
				c-0.043-0.082-0.082-0.168-0.119-0.251C32,21.631,31.88,21.27,31.846,20.807c-0.023-0.326,0.024-0.625,0.1-0.873
				c0.076-0.253,0.195-0.458,0.336-0.647c0.277-0.374,0.656-0.647,1.115-0.849c0.429-0.186,0.929-0.303,1.49-0.35
				c0.039-0.003,0.084,0.002,0.116-0.007c0.019-0.005,0.019-0.012,0.026-0.029c0.268-0.487,0.594-0.936,0.998-1.29
				C36.445,16.4,36.904,16.127,37.621,16.064z M40.242,18.034c-0.26-0.489-0.568-0.934-0.957-1.291
				c-0.197-0.181-0.424-0.349-0.688-0.473c-0.26-0.123-0.578-0.219-0.957-0.2c-0.093,0.003-0.183,0.013-0.264,0.025
				c-0.079,0.014-0.153,0.032-0.228,0.054c-0.429,0.126-0.758,0.359-1.047,0.633c-0.369,0.352-0.666,0.782-0.914,1.251
				c-0.008,0.013-0.018,0.027-0.018,0.043c0.971-0.032,1.797,0.125,2.543,0.333c0.746-0.209,1.572-0.364,2.541-0.333
				C40.258,18.061,40.249,18.047,40.242,18.034z M34.5,19.956c0.011,0.001,0.023-0.013,0.036-0.022
				c0.827-0.596,1.778-1.069,2.841-1.424c-0.684-0.176-1.408-0.307-2.273-0.3C34.844,18.734,34.648,19.322,34.5,19.956z
				 M38.055,18.512c0.545,0.172,1.051,0.395,1.532,0.633c0.36,0.179,0.699,0.387,1.026,0.597c0.103,0.066,0.203,0.141,0.299,0.208
				c0.006,0.003,0.014,0.009,0.021,0.007c-0.152-0.634-0.347-1.225-0.606-1.746C39.463,18.204,38.732,18.332,38.055,18.512z
				 M34.213,20.178c0.021-0.018,0.061-0.043,0.066-0.058c0.008-0.016,0.01-0.042,0.016-0.066c0.141-0.595,0.318-1.132,0.553-1.627
				c0.028-0.06,0.065-0.13,0.092-0.191c0.015-0.032,0.002-0.02-0.02-0.02c-0.293,0.006-0.58,0.046-0.846,0.099
				c-0.787,0.158-1.42,0.482-1.818,1.021c-0.264,0.354-0.443,0.852-0.375,1.483c0.061,0.559,0.271,0.992,0.498,1.394
				C32.852,21.396,33.488,20.745,34.213,20.178z M40.484,18.222c0.281,0.547,0.496,1.159,0.65,1.831
				c0.008,0.023,0.01,0.052,0.018,0.068s0.045,0.038,0.065,0.056c0.728,0.566,1.361,1.231,1.837,2.036
				c0.225-0.402,0.436-0.841,0.497-1.398c0.034-0.305,0.007-0.609-0.067-0.853c-0.221-0.728-0.737-1.16-1.412-1.436
				c-0.453-0.184-0.99-0.286-1.588-0.311C40.48,18.215,40.484,18.22,40.484,18.222z M37.579,18.382
				c-0.06,0.098-0.118,0.22-0.179,0.326c-1.117,0.378-2.092,0.896-2.959,1.522c-0.027,0.156-0.058,0.31-0.08,0.471
				c-0.022,0.158-0.041,0.319-0.062,0.485c-0.09,0.819-0.065,1.792,0.037,2.57c0.021,0.16,0.051,0.316,0.071,0.474
				c0.003,0.015-0.025,0.054-0.035,0.07c-0.04,0.068-0.079,0.125-0.116,0.189c-0.741-0.575-1.396-1.24-1.881-2.07
				c-0.226,0.402-0.435,0.841-0.498,1.4c-0.072,0.633,0.123,1.14,0.384,1.485c0.542,0.72,1.491,1.051,2.688,1.112
				c-0.25-0.495-0.459-1.041-0.603-1.633c0.06,0.002,0.123-0.003,0.179,0.002c0.146,0.592,0.332,1.146,0.58,1.636
				c0.862,0.005,1.592-0.123,2.271-0.302c-1.015-0.333-1.922-0.785-2.71-1.337c0.078,0,0.17,0,0.249,0c0.026,0,0.075-0.006,0.09,0
				c0.052,0.028,0.103,0.063,0.151,0.095c0.771,0.466,1.609,0.857,2.557,1.147c0.002,0,0.004,0,0.008,0
				c0.973-0.305,1.84-0.699,2.627-1.191c0.034-0.021,0.06-0.046,0.094-0.048c0.107-0.006,0.236-0.005,0.343-0.013
				c-0.802,0.559-1.709,1.01-2.729,1.349c0.684,0.175,1.41,0.307,2.275,0.3c0.242-0.501,0.436-1.055,0.58-1.652
				c0.061-0.001,0.128-0.007,0.182-0.004c-0.145,0.583-0.348,1.123-0.588,1.605c-0.006,0.014-0.02,0.029-0.018,0.046
				c0.598-0.026,1.134-0.127,1.586-0.312c0.447-0.183,0.834-0.44,1.1-0.8c0.26-0.351,0.454-0.856,0.383-1.488
				c-0.063-0.557-0.272-1-0.5-1.398c-0.481,0.831-1.135,1.493-1.875,2.065c-0.053-0.085-0.109-0.165-0.16-0.249
				c0.115-0.606,0.168-1.296,0.168-2.015c0-0.716-0.084-1.385-0.196-1.985c-0.944-0.692-2.032-1.251-3.284-1.628
				C37.664,18.531,37.621,18.456,37.579,18.382z M34.223,20.401c0-0.001-0.001-0.002-0.004-0.001
				c-0.689,0.541-1.309,1.155-1.779,1.917c0.353,0.572,0.795,1.06,1.277,1.499c0.151,0.137,0.314,0.272,0.475,0.396
				c0.008,0.006,0.02,0.019,0.031,0.017C33.988,23.094,33.99,21.532,34.223,20.401z M41.213,20.401c0-0.002-0.003-0.001-0.003,0.002
				c0.108,0.571,0.177,1.236,0.177,1.913c0,0.677-0.066,1.342-0.177,1.913c0.69-0.532,1.312-1.155,1.78-1.915
				C42.52,21.555,41.906,20.938,41.213,20.401z M37.859,26.261c-0.047-0.013-0.098-0.031-0.145-0.039
				c-0.017-0.002-0.054,0.013-0.078,0.02c-0.733,0.201-1.521,0.339-2.465,0.312c0,0.016,0.011,0.03,0.017,0.043
				c0.125,0.234,0.258,0.456,0.405,0.663c0.317,0.441,0.693,0.828,1.199,1.081c0.254,0.128,0.552,0.221,0.92,0.219
				c0.369,0,0.663-0.091,0.92-0.219c0.258-0.125,0.479-0.288,0.67-0.47c0.377-0.359,0.682-0.793,0.938-1.271
				c0.008-0.015,0.018-0.034,0.016-0.045C39.348,26.577,38.568,26.455,37.859,26.261z"/>
			<path fill="#CC0917" d="M38.337,19.853c-0.503,0-1.007,0-1.511,0c-0.002-0.016,0.011-0.028,0.018-0.041
				c0.112-0.212,0.229-0.429,0.344-0.645c0.123-0.234,0.251-0.468,0.375-0.697C37.82,18.929,38.086,19.396,38.337,19.853z"/>
			<path fill="#1C75BC" d="M38.059,22.685c-0.289,0.005-0.578,0.011-0.871,0.013c0.002-0.877,0.01-1.751,0.015-2.626
				c0.206-0.003,0.396-0.011,0.604-0.011c0.066,0,0.146-0.001,0.211-0.006c0.021-0.001,0.012,0.004,0.015,0.034
				c0.011,0.208,0,0.413,0.01,0.617c0.008,0.229,0.005,0.445,0.005,0.661C38.045,21.81,38.061,22.247,38.059,22.685z"/>
			
				<linearGradient id="SVGID_1_" gradientUnits="userSpaceOnUse" x1="9.8701" y1="844.165" x2="9.8701" y2="835.1354" gradientTransform="matrix(1 0 0 1 30 -813.667)">
				<stop  offset="0" style="stop-color:#1C5FBC"/>
				<stop  offset="1" style="stop-color:#1C75BC"/>
			</linearGradient>
			<path fill="url(#SVGID_1_)" d="M38.43,20.413c1.064,1.641,2.141,3.285,3.194,4.926c-0.353,0.012-0.714,0.032-1.079,0.04
				c-0.023,0-0.055,0.007-0.07,0.003c-0.02-0.006-0.049-0.069-0.067-0.098c-0.323-0.5-0.658-1.02-0.979-1.515
				c-0.439-0.003-0.876-0.009-1.313-0.014c0-0.24,0-0.481,0-0.72c0.279-0.003,0.557-0.008,0.838-0.009
				c-0.146-0.279-0.316-0.573-0.479-0.863c-0.012-0.02-0.025-0.042-0.029-0.058c-0.014-0.055-0.004-0.138-0.004-0.21
				c0-0.217-0.004-0.414-0.004-0.633c0-0.286-0.018-0.562-0.01-0.841C38.428,20.417,38.426,20.413,38.43,20.413z"/>
			
				<linearGradient id="SVGID_2_" gradientUnits="userSpaceOnUse" x1="5.937" y1="844.1641" x2="5.937" y2="835.1362" gradientTransform="matrix(1 0 0 1 30 -813.667)">
				<stop  offset="0" style="stop-color:#1C5FBC"/>
				<stop  offset="1" style="stop-color:#1C75BC"/>
			</linearGradient>
			<path fill="url(#SVGID_2_)" d="M36.781,20.432c0.014,0.47,0.004,0.965,0.016,1.447c0.002,0.07,0.012,0.152,0,0.208
				c-0.004,0.021-0.029,0.049-0.044,0.076c-0.435,0.792-0.88,1.569-1.315,2.357c0.515-0.015,1.03-0.027,1.549-0.039
				c0.009-0.179,0.009-0.365,0.016-0.544c0.35-0.003,0.695-0.009,1.044-0.013c0.006,0.477,0.014,0.952,0.016,1.431
				c-1.42,0.002-2.834,0.008-4.25,0.013c-0.004-0.014,0.008-0.027,0.014-0.038c0.732-1.216,1.479-2.435,2.209-3.659
				c0.123-0.206,0.248-0.413,0.373-0.617C36.531,20.848,36.658,20.641,36.781,20.432z"/>
		</g>
		<g>
			<g>
				<path fill="#0070B7" d="M55.438,31.778h-0.408v-0.33h1.193v0.33h-0.408l0.002,1.029h-0.379V31.778z"/>
				<path fill="#0070B7" d="M56.52,31.448h0.397l0.326,0.525l0.323-0.525h0.396v1.359h-0.375v-0.781l-0.348,0.533h-0.01
					l-0.344-0.529v0.777h-0.371v-1.359H56.52z"/>
			</g>
			<g>
				<path fill="#0070B7" d="M19.466,35.112l0.677-0.809c0.433,0.346,0.914,0.525,1.422,0.525c0.325,0,0.501-0.112,0.501-0.299
					v-0.015c0-0.182-0.145-0.282-0.737-0.42c-0.935-0.213-1.654-0.476-1.654-1.378v-0.014c0-0.813,0.646-1.402,1.697-1.402
					c0.745,0,1.327,0.202,1.804,0.583l-0.607,0.858c-0.4-0.28-0.839-0.433-1.228-0.433c-0.294,0-0.438,0.126-0.438,0.282v0.012
					c0,0.201,0.15,0.288,0.758,0.426c1.01,0.221,1.635,0.545,1.635,1.365v0.014c0,0.896-0.707,1.429-1.771,1.429
					C20.745,35.839,20.005,35.594,19.466,35.112z"/>
				<path fill="#0070B7" d="M24.382,34.71v-1.379h-0.4v-0.956h0.4v-0.859h1.189v0.859h0.789v0.956h-0.789v1.146
					c0,0.238,0.105,0.34,0.326,0.34c0.157,0,0.309-0.045,0.45-0.113v0.935c-0.214,0.118-0.494,0.194-0.826,0.194
					C24.809,35.833,24.382,35.52,24.382,34.71z"/>
				<path fill="#0070B7" d="M27.3,32.375h1.19v0.683c0.193-0.463,0.507-0.764,1.07-0.738v1.252h-0.1
					c-0.619,0-0.971,0.355-0.971,1.14v1.054h-1.191v-3.39L27.3,32.375L27.3,32.375z"/>
				<path fill="#0070B7" d="M30.081,34.792V34.78c0-0.701,0.533-1.064,1.328-1.064c0.313,0,0.621,0.063,0.814,0.132V33.79
					c0-0.353-0.219-0.551-0.678-0.551c-0.355,0-0.631,0.067-0.933,0.188l-0.243-0.84c0.381-0.157,0.789-0.264,1.37-0.264
					c0.607,0,1.021,0.146,1.29,0.412c0.258,0.25,0.363,0.603,0.363,1.077v1.948h-1.178v-0.352c-0.231,0.259-0.551,0.428-0.995,0.428
					C30.577,35.839,30.081,35.469,30.081,34.792z M32.235,34.534v-0.156c-0.117-0.051-0.287-0.088-0.463-0.088
					c-0.344,0-0.545,0.171-0.545,0.42v0.014c0,0.23,0.176,0.369,0.42,0.369C31.991,35.093,32.235,34.874,32.235,34.534z"/>
				<path fill="#0070B7" d="M34.604,34.71v-1.379h-0.401v-0.956h0.401v-0.859h1.19v0.859h0.789v0.956h-0.789v1.146
					c0,0.238,0.105,0.34,0.324,0.34c0.156,0,0.309-0.045,0.45-0.113v0.935c-0.213,0.118-0.493,0.194-0.825,0.194
					C35.029,35.833,34.604,35.52,34.604,34.71z"/>
				<path fill="#0070B7" d="M37.29,34.085v-0.014c0-0.988,0.709-1.771,1.711-1.771c1.17,0,1.709,0.857,1.709,1.854
					c0,0.074,0,0.164-0.006,0.243h-2.269c0.094,0.37,0.363,0.558,0.732,0.558c0.281,0,0.508-0.106,0.752-0.344l0.658,0.545
					c-0.328,0.414-0.797,0.688-1.475,0.688C38.042,35.845,37.29,35.137,37.29,34.085z M39.596,33.79
					c-0.044-0.377-0.265-0.613-0.589-0.613c-0.313,0-0.526,0.244-0.59,0.613H39.596z"/>
				<path fill="#0070B7" d="M41.611,36.391l0.382-0.789c0.364,0.199,0.728,0.317,1.187,0.317c0.594,0,0.889-0.294,0.889-0.832
					v-0.133c-0.238,0.275-0.551,0.509-1.047,0.509c-0.832,0-1.502-0.603-1.502-1.572v-0.013c0-0.977,0.684-1.578,1.465-1.578
					c0.508,0,0.809,0.207,1.063,0.475v-0.398h1.188v2.574c0,0.619-0.137,1.051-0.438,1.354c-0.309,0.307-0.783,0.478-1.49,0.478
					C42.65,36.777,42.1,36.641,41.611,36.391z M44.066,33.891v-0.013c0-0.376-0.287-0.652-0.688-0.652
					c-0.405,0-0.694,0.282-0.694,0.658v0.013c0,0.375,0.289,0.651,0.694,0.651C43.779,34.548,44.066,34.266,44.066,33.891z"/>
				<path fill="#0070B7" d="M46.214,36.489l0.369-0.832c0.188,0.112,0.39,0.183,0.521,0.183c0.119,0,0.201-0.031,0.273-0.14
					l-1.326-3.324h1.246l0.678,2.041l0.639-2.041h1.224l-1.241,3.308c-0.294,0.787-0.613,1.102-1.289,1.102
					C46.884,36.782,46.527,36.665,46.214,36.489z"/>
				<path fill="#0070B7" d="M50.718,31.379h2.072c0.67,0,1.133,0.175,1.428,0.476c0.257,0.251,0.39,0.59,0.39,1.021v0.013
					c0,0.67-0.355,1.114-0.9,1.347l1.045,1.528H53.35l-0.883-1.329h-0.014h-0.52v1.329h-1.216V31.379L50.718,31.379z M52.732,33.483
					c0.416,0,0.652-0.199,0.652-0.52v-0.012c0-0.347-0.252-0.521-0.656-0.521h-0.797v1.053H52.732z"/>
			</g>
			<g>
				<path fill="#494949" d="M19.772,40.573v-2.769h0.365v2.769H19.772z"/>
				<path fill="#494949" d="M21.128,40.573v-2.005h0.305v0.285c0.148-0.221,0.359-0.332,0.639-0.332
					c0.121,0,0.232,0.022,0.334,0.065c0.102,0.044,0.178,0.101,0.227,0.171c0.053,0.07,0.086,0.154,0.106,0.251
					c0.013,0.063,0.019,0.175,0.019,0.331v1.232h-0.34v-1.221c0-0.139-0.013-0.24-0.039-0.312c-0.026-0.067-0.073-0.124-0.141-0.164
					c-0.066-0.041-0.146-0.063-0.236-0.063c-0.146,0-0.271,0.049-0.377,0.141c-0.104,0.092-0.156,0.267-0.156,0.521v1.096h-0.34
					L21.128,40.573L21.128,40.573z"/>
				<path fill="#494949" d="M23.745,40.573v-1.74h-0.299v-0.265h0.299v-0.213c0-0.137,0.014-0.235,0.037-0.303
					c0.033-0.087,0.09-0.16,0.174-0.213c0.082-0.057,0.196-0.083,0.346-0.083c0.097,0,0.201,0.013,0.318,0.032l-0.053,0.299
					c-0.07-0.014-0.136-0.021-0.199-0.021c-0.104,0-0.176,0.022-0.22,0.067c-0.042,0.046-0.063,0.126-0.063,0.247v0.186h0.392v0.265
					h-0.392v1.742H23.745L23.745,40.573z"/>
				<path fill="#494949" d="M25.12,40.573v-2.769h0.34v2.769H25.12z"/>
				<path fill="#494949" d="M27.687,40.573V40.28c-0.156,0.227-0.367,0.34-0.637,0.34c-0.117,0-0.229-0.022-0.33-0.068
					c-0.104-0.045-0.18-0.102-0.229-0.17c-0.05-0.069-0.084-0.153-0.104-0.253c-0.015-0.066-0.021-0.173-0.021-0.316V38.57h0.341
					v1.111c0,0.18,0.006,0.299,0.021,0.358c0.021,0.09,0.067,0.158,0.136,0.211c0.07,0.051,0.155,0.076,0.258,0.076
					s0.197-0.025,0.286-0.077c0.091-0.055,0.154-0.125,0.19-0.216c0.035-0.091,0.056-0.222,0.056-0.394v-1.072h0.341v2.005H27.687
					L27.687,40.573z"/>
				<path fill="#494949" d="M30.282,39.93l0.354,0.043c-0.057,0.204-0.158,0.363-0.309,0.477c-0.15,0.113-0.342,0.172-0.574,0.172
					c-0.293,0-0.525-0.09-0.697-0.271c-0.172-0.181-0.258-0.434-0.258-0.76c0-0.337,0.086-0.602,0.261-0.785
					c0.174-0.188,0.397-0.279,0.676-0.279c0.269,0,0.487,0.091,0.658,0.272c0.169,0.185,0.254,0.438,0.254,0.772
					c0,0.02,0,0.049-0.002,0.09h-1.496c0.013,0.22,0.075,0.389,0.187,0.506c0.112,0.117,0.252,0.175,0.42,0.175
					c0.125,0,0.23-0.032,0.318-0.099C30.162,40.176,30.231,40.07,30.282,39.93z M29.167,39.379h1.119
					c-0.014-0.169-0.057-0.296-0.127-0.382c-0.109-0.129-0.25-0.194-0.422-0.194c-0.156,0-0.287,0.053-0.395,0.155
					C29.237,39.063,29.179,39.202,29.167,39.379z"/>
				<path fill="#494949" d="M31.448,40.573v-2.005h0.307v0.285c0.146-0.221,0.359-0.332,0.639-0.332c0.12,0,0.23,0.022,0.333,0.065
					c0.103,0.044,0.178,0.101,0.229,0.171c0.049,0.07,0.086,0.154,0.104,0.251c0.012,0.063,0.019,0.175,0.019,0.331v1.232h-0.341
					v-1.221c0-0.139-0.013-0.24-0.038-0.312c-0.027-0.067-0.074-0.124-0.142-0.164c-0.068-0.041-0.146-0.063-0.236-0.063
					c-0.146,0-0.271,0.049-0.376,0.141c-0.104,0.092-0.156,0.267-0.156,0.521v1.096h-0.342V40.573z"/>
				<path fill="#494949" d="M35.294,39.839l0.334,0.044c-0.035,0.229-0.129,0.411-0.279,0.541c-0.15,0.131-0.336,0.194-0.555,0.194
					c-0.273,0-0.494-0.091-0.662-0.271c-0.166-0.18-0.25-0.436-0.25-0.771c0-0.216,0.035-0.405,0.106-0.567
					c0.072-0.162,0.183-0.283,0.328-0.365c0.146-0.08,0.308-0.121,0.479-0.121c0.217,0,0.396,0.055,0.533,0.164
					c0.139,0.111,0.228,0.268,0.267,0.471l-0.33,0.053c-0.032-0.137-0.089-0.234-0.168-0.305c-0.079-0.068-0.177-0.104-0.289-0.104
					c-0.172,0-0.312,0.063-0.418,0.186s-0.16,0.314-0.16,0.582c0,0.271,0.052,0.465,0.153,0.588c0.104,0.123,0.24,0.184,0.404,0.184
					c0.135,0,0.246-0.042,0.336-0.123C35.214,40.135,35.271,40.009,35.294,39.839z"/>
				<path fill="#494949" d="M37.68,39.93l0.352,0.043c-0.055,0.204-0.158,0.363-0.307,0.477c-0.15,0.113-0.343,0.172-0.575,0.172
					c-0.294,0-0.525-0.09-0.697-0.271c-0.172-0.181-0.259-0.434-0.259-0.76c0-0.337,0.087-0.602,0.261-0.785
					c0.174-0.188,0.398-0.279,0.676-0.279c0.27,0,0.486,0.091,0.658,0.272c0.17,0.185,0.256,0.438,0.256,0.772
					c0,0.02-0.002,0.049-0.004,0.09h-1.496c0.015,0.22,0.076,0.389,0.188,0.506c0.11,0.117,0.252,0.175,0.419,0.175
					c0.125,0,0.23-0.032,0.319-0.099C37.561,40.176,37.628,40.07,37.68,39.93z M36.563,39.379h1.119
					c-0.014-0.169-0.057-0.296-0.127-0.382c-0.109-0.129-0.25-0.194-0.422-0.194c-0.156,0-0.287,0.053-0.396,0.155
					C36.634,39.063,36.575,39.202,36.563,39.379z"/>
				<path fill="#494949" d="M38.841,40.573v-2.005h0.308v0.304c0.076-0.144,0.149-0.233,0.215-0.28
					c0.066-0.046,0.141-0.066,0.219-0.066c0.115,0,0.232,0.035,0.352,0.108l-0.117,0.314c-0.084-0.05-0.166-0.073-0.25-0.073
					c-0.073,0-0.143,0.021-0.199,0.066c-0.061,0.043-0.102,0.105-0.127,0.187c-0.036,0.122-0.057,0.254-0.057,0.396v1.05H38.841
					L38.841,40.573z"/>
				<path fill="#494949" d="M42.023,40.573v-2.769h0.953c0.217,0,0.381,0.014,0.492,0.039c0.16,0.037,0.295,0.104,0.406,0.198
					c0.146,0.124,0.254,0.28,0.328,0.474c0.07,0.192,0.107,0.411,0.107,0.658c0,0.21-0.023,0.396-0.074,0.559
					c-0.049,0.162-0.111,0.298-0.188,0.402c-0.076,0.105-0.16,0.189-0.252,0.252c-0.092,0.062-0.201,0.107-0.33,0.141
					c-0.131,0.031-0.277,0.046-0.445,0.046H42.023L42.023,40.573z M42.391,40.245h0.592c0.184,0,0.326-0.017,0.432-0.052
					c0.104-0.032,0.188-0.079,0.246-0.143c0.088-0.088,0.154-0.203,0.203-0.352c0.049-0.146,0.072-0.324,0.072-0.532
					c0-0.29-0.047-0.513-0.144-0.667c-0.095-0.156-0.209-0.262-0.347-0.313c-0.098-0.039-0.256-0.059-0.475-0.059h-0.58V40.245
					L42.391,40.245z"/>
				<path fill="#494949" d="M45.157,40.573v-2.005h0.307v0.304c0.076-0.144,0.149-0.233,0.216-0.28
					c0.067-0.046,0.139-0.066,0.219-0.066c0.115,0,0.229,0.035,0.35,0.108l-0.115,0.314c-0.084-0.05-0.168-0.073-0.25-0.073
					c-0.072,0-0.141,0.021-0.199,0.066c-0.061,0.043-0.104,0.105-0.127,0.187C45.52,39.25,45.5,39.382,45.5,39.523v1.05H45.157
					L45.157,40.573z"/>
				<path fill="#494949" d="M46.837,38.195v-0.391h0.34v0.391H46.837z M46.837,40.573v-2.005h0.34v2.005H46.837z"/>
				<path fill="#494949" d="M48.639,40.573l-0.763-2.005h0.356l0.433,1.201c0.047,0.129,0.09,0.265,0.129,0.403
					c0.028-0.106,0.069-0.233,0.125-0.382l0.444-1.225h0.351l-0.76,2.006L48.639,40.573L48.639,40.573L48.639,40.573z"/>
				<path fill="#494949" d="M51.773,39.93l0.354,0.043c-0.058,0.204-0.16,0.363-0.31,0.477s-0.342,0.172-0.573,0.172
					c-0.293,0-0.527-0.09-0.699-0.271c-0.17-0.181-0.256-0.434-0.256-0.76c0-0.337,0.086-0.602,0.26-0.785
					c0.175-0.188,0.4-0.279,0.679-0.279c0.268,0,0.485,0.091,0.655,0.272c0.171,0.185,0.255,0.438,0.255,0.772
					c0,0.02,0,0.049-0.003,0.09h-1.495c0.014,0.22,0.075,0.389,0.188,0.506c0.111,0.117,0.254,0.175,0.42,0.175
					c0.125,0,0.23-0.032,0.32-0.099C51.652,40.176,51.723,40.07,51.773,39.93z M50.659,39.379h1.12
					c-0.016-0.169-0.059-0.296-0.129-0.382c-0.108-0.129-0.248-0.194-0.422-0.194c-0.156,0-0.287,0.053-0.395,0.155
					C50.729,39.063,50.671,39.202,50.659,39.379z"/>
				<path fill="#494949" d="M52.939,40.573v-2.005h0.306v0.285c0.147-0.221,0.36-0.332,0.639-0.332c0.121,0,0.232,0.022,0.334,0.065
					c0.103,0.044,0.179,0.101,0.228,0.171c0.053,0.07,0.088,0.154,0.104,0.251c0.015,0.063,0.021,0.175,0.021,0.331v1.232h-0.34
					v-1.221c0-0.139-0.013-0.24-0.039-0.312c-0.025-0.067-0.072-0.124-0.142-0.164c-0.065-0.041-0.146-0.063-0.235-0.063
					c-0.146,0-0.271,0.049-0.375,0.141c-0.105,0.092-0.157,0.267-0.157,0.521v1.096h-0.343V40.573z"/>
			</g>
		</g>
	</g>
	<polyline fill="none" points="61.5,31.22 62.434,31.22 66.5,31.22 	"/>
	<path fill="#FF0000" stroke="#000000" stroke-miterlimit="10" d="M63.842,21.776"/>
	<path fill="none" stroke="#000000" stroke-miterlimit="10" d="M66.945,38.111"/>
	<path fill="none" stroke="#000000" stroke-miterlimit="10" d="M9.162,38.111"/>
	<path fill="none" stroke="#000000" stroke-miterlimit="10" d="M9.674,32.448"/>
	<polyline fill="none" points="61.5,31.22 62.314,31.22 66.5,31.22 	"/>
	<path fill="#FF0000" stroke="#000000" stroke-miterlimit="10" d="M63.727,21.776"/>
	<g>
		<path d="M10.036,22.393l1.514-3.19l0.955,0.434l-0.997,2.102l0.613,0.28l0.903-1.904l0.887,0.403l-0.904,1.903l0.643,0.292
			l1.012-2.13l0.955,0.434l-1.527,3.218L10.036,22.393z"/>
		<path d="M14.784,18.19l-2.642-0.055l0.816-1.141l1.484,0.07l-0.574-1.345l0.798-1.116l0.948,2.402l2.752,0.053L17.55,18.2
			l-1.594-0.069l0.609,1.445l-0.798,1.116L14.784,18.19z"/>
		<path d="M15.575,13.608l2.54-2.489l0.746,0.73l-1.674,1.638l0.479,0.468l1.517-1.484l0.691,0.675l-1.518,1.485l0.502,0.491
			l1.697-1.663l0.745,0.729l-2.563,2.51L15.575,13.608z"/>
		<path d="M20.396,12.08l-0.008-0.01c-0.749-1.042-0.516-2.424,0.592-3.187c0.747-0.514,1.447-0.537,2.088-0.321L22.72,9.664
			c-0.393-0.111-0.75-0.109-1.101,0.131c-0.512,0.352-0.567,1.024-0.192,1.545l0.007,0.011c0.386,0.536,1.047,0.708,1.559,0.355
			c0.382-0.262,0.482-0.59,0.514-1.002l1.145,0.006c-0.01,0.703-0.229,1.365-1.038,1.921C22.566,13.352,21.164,13.147,20.396,12.08z
			"/>
		<path d="M24.822,9.46l-1.037-2.236l1.145-0.508l1.027,2.212c0.268,0.575,0.69,0.715,1.145,0.514
			c0.453-0.201,0.628-0.594,0.369-1.151l-1.04-2.241l1.146-0.509l1.024,2.207c0.597,1.286,0.107,2.182-1.05,2.696
			C26.395,10.957,25.4,10.706,24.822,9.46z"/>
		<path d="M30.406,5.828l-1.301,0.321l-0.267-1.03l3.802-0.938l0.266,1.03l-1.301,0.321l0.83,3.211l-1.202,0.296L30.406,5.828z"/>
		<path d="M33.875,4.041l1.236-0.146l0.535,4.342l-1.235,0.146L33.875,4.041z"/>
		<path d="M36.263,3.72l1.385,0.023l0.969,2.784l1.063-2.751l1.36,0.022l-1.89,4.373l-1.149-0.018L36.263,3.72z"/>
		<path d="M42.309,3.985l3.525,0.68L45.63,5.676l-2.323-0.448l-0.131,0.649l2.105,0.406l-0.189,0.938l-2.105-0.407L42.85,7.495
			l2.354,0.454L45,8.961l-3.559-0.686L42.309,3.985z"/>
		<path d="M49.387,5.819l1.733,0.797c1.021,0.471,1.435,1.288,1.012,2.164l-0.006,0.012c-0.446,0.933-1.418,1.087-2.424,0.624
			l-0.554-0.254l-0.545,1.13l-1.121-0.516L49.387,5.819z M50.093,8.547c0.397,0.184,0.74,0.092,0.888-0.219l0.006-0.011
			c0.164-0.339,0.009-0.632-0.396-0.817l-0.524-0.242l-0.504,1.045L50.093,8.547z"/>
		<path d="M52.577,9.764l0.007-0.01c0.756-1.016,2.205-1.245,3.318-0.452c1.117,0.793,1.341,2.193,0.588,3.21l-0.008,0.01
			c-0.756,1.017-2.205,1.246-3.319,0.453C52.047,12.182,51.824,10.78,52.577,9.764z M55.45,11.805l0.008-0.01
			c0.38-0.51,0.332-1.223-0.222-1.616C54.689,9.79,54,9.964,53.621,10.475l-0.008,0.01c-0.379,0.51-0.332,1.223,0.217,1.612
			C54.382,12.491,55.07,12.316,55.45,11.805z"/>
		<path d="M58.877,11.776l0.855,0.876l-2.448,2.286l1.493,1.531l-0.783,0.733l-2.352-2.408L58.877,11.776z"/>
		<path d="M62.031,15.176l0.707,0.995l-2.779,1.891l1.234,1.739l-0.891,0.606l-1.943-2.734L62.031,15.176z"/>
		<path d="M61.046,20.337l1.04,0.259c-0.124,0.538-0.078,1.049,0.145,1.505c0.146,0.292,0.326,0.402,0.498,0.321l0.011-0.006
			c0.168-0.078,0.196-0.25,0.061-0.846c-0.217-0.931-0.292-1.692,0.536-2.081l0.012-0.006c0.75-0.352,1.575-0.026,2.039,0.92
			c0.329,0.67,0.401,1.28,0.262,1.874l-1.058-0.176c0.081-0.481,0.026-0.94-0.146-1.291c-0.129-0.265-0.309-0.339-0.451-0.272
			l-0.014,0.004c-0.184,0.087-0.196,0.26-0.057,0.866c0.243,1.001,0.221,1.705-0.533,2.059l-0.012,0.006
			c-0.822,0.386-1.624-0.02-2.095-0.977C60.941,21.799,60.841,21.03,61.046,20.337z"/>
	</g>
	<g>
		<g>
			<path d="M28.277,47.375h-1.05v-0.852h3.069v0.852h-1.05v2.646h-0.97L28.277,47.375L28.277,47.375z"/>
			<path d="M30.701,48.282v-0.011c0-1.006,0.81-1.818,1.891-1.818c1.081,0,1.88,0.806,1.88,1.813v0.008c0,1.004-0.81,1.82-1.89,1.82
				C31.501,50.094,30.701,49.288,30.701,48.282z M33.481,48.282v-0.011c0-0.504-0.364-0.944-0.9-0.944
				c-0.529,0-0.884,0.431-0.884,0.938v0.008c0,0.506,0.365,0.946,0.894,0.946C33.126,49.22,33.481,48.789,33.481,48.282z"/>
			<path d="M35.227,46.523h1.5c0.886,0,1.455,0.455,1.455,1.229v0.011c0,0.826-0.637,1.26-1.506,1.26h-0.479v1h-0.971v-3.498h0.001
				V46.523z M36.656,48.266c0.345,0,0.555-0.183,0.555-0.455V47.8c0-0.302-0.21-0.459-0.561-0.459h-0.454v0.925H36.656z"/>
			<path d="M40.26,49.537l0.555-0.646c0.285,0.237,0.557,0.379,0.851,0.379c0.319,0,0.515-0.16,0.515-0.412v-0.01
				c0-0.25-0.209-0.404-0.515-0.404c-0.215,0-0.396,0.076-0.56,0.177l-0.573-0.321l0.099-1.773h2.342v0.801h-1.578l-0.027,0.531
				c0.16-0.074,0.326-0.127,0.56-0.127c0.63,0,1.199,0.353,1.199,1.109v0.012c0,0.778-0.594,1.244-1.444,1.244
				C41.061,50.094,40.625,49.878,40.26,49.537z"/>
			<path d="M43.736,47.425v-0.011c0-0.516,0.359-0.939,0.906-0.939s0.899,0.426,0.899,0.935v0.011c0,0.516-0.364,0.939-0.903,0.939
				C44.098,48.357,43.736,47.939,43.736,47.425z M46.82,46.523h0.679l-2.7,3.498h-0.675L46.82,46.523z M44.932,47.425v-0.011
				c0-0.221-0.123-0.391-0.293-0.391c-0.177,0-0.291,0.164-0.291,0.385v0.011c0,0.228,0.131,0.392,0.297,0.392
				C44.813,47.809,44.932,47.646,44.932,47.425z M46.079,49.139v-0.011c0-0.515,0.354-0.938,0.903-0.938
				c0.545,0,0.898,0.42,0.898,0.935v0.01c0,0.513-0.363,0.94-0.904,0.94C46.438,50.073,46.079,49.648,46.079,49.139z M47.273,49.139
				v-0.011c0-0.224-0.127-0.388-0.295-0.388c-0.182,0-0.291,0.158-0.291,0.383v0.01c0,0.221,0.131,0.391,0.295,0.391
				C47.152,49.523,47.273,49.357,47.273,49.139z"/>
		</g>
	</g>
</g>
</svg>
