<?xml version="1.0" encoding="utf-8"?>
<!-- Generator: Adobe Illustrator 16.0.0, SVG Export Plug-In . SVG Version: 6.00 Build 0)  -->
<!DOCTYPE svg PUBLIC "-//W3C//DTD SVG 1.1//EN" "http://www.w3.org/Graphics/SVG/1.1/DTD/svg11.dtd">
<svg version="1.1" id="Layer_1" xmlns="http://www.w3.org/2000/svg" xmlns:xlink="http://www.w3.org/1999/xlink" x="0px" y="0px"
	 width="25px" height="25px" viewBox="0 0 25 25" enable-background="new 0 0 25 25" xml:space="preserve">
<g>
	<g>
		<path fill="#FE433E" d="M3.561,13.486c-0.953-0.55-0.953-1.45,0-2l7.207-4.161c0.953-0.55,2.511-1.45,3.464-2l7.207-4.159
			c0.953-0.55,1.732-0.1,1.732,1v8.32c0,1.1,0,2.9,0,4v8.321c0,1.1-0.779,1.55-1.732,1l-7.207-4.16c-0.953-0.55-2.511-1.45-3.464-2
			L3.561,13.486z"/>
	</g>
	<g>
		<path fill="#FFFFFF" d="M11.298,12.415c0-2.721,2.206-4.925,4.928-4.925c2.721,0,4.926,2.204,4.926,4.925
			c0,2.723-2.205,4.928-4.926,4.928C13.504,17.343,11.298,15.138,11.298,12.415z"/>
		<g>
			<g>
				<g>
					<path fill="#FE433E" d="M16.226,17.818c2.94,0,5.334-2.391,5.334-5.332c0-2.94-2.394-5.333-5.334-5.333
						c-2.941,0-5.335,2.393-5.335,5.333C10.891,15.428,13.284,17.818,16.226,17.818z M16.226,8.329c2.291,0,4.156,1.864,4.156,4.157
						c0,2.292-1.865,4.156-4.156,4.156c-2.293,0-4.158-1.864-4.158-4.156C12.067,10.193,13.933,8.329,16.226,8.329z"/>
				</g>
			</g>
			<g>
				<path fill="#FE433E" d="M13.391,13.515v-2.023h6.061v2.023H13.391z"/>
			</g>
		</g>
	</g>
</g>
</svg>
