<?xml version="1.0" encoding="utf-8"?>
<!-- Generator: Adobe Illustrator 16.0.0, SVG Export Plug-In . SVG Version: 6.00 Build 0)  -->
<!DOCTYPE svg PUBLIC "-//W3C//DTD SVG 1.1//EN" "http://www.w3.org/Graphics/SVG/1.1/DTD/svg11.dtd">
<svg version="1.1" id="Layer_1" xmlns="http://www.w3.org/2000/svg" xmlns:xlink="http://www.w3.org/1999/xlink" x="0px" y="0px"
	 width="25px" height="25px" viewBox="0 0 25 25" enable-background="new 0 0 25 25" xml:space="preserve">
<g>
	<path d="M5.036,18.084c-0.549,0-1.042,0-1.532,0c-0.286,0.001-0.575,0.005-0.861,0.002c-0.929-0.005-1.593-0.731-1.634-1.805
		c-0.014-0.371,0.012-0.741,0.023-1.112c0.04-1.311,0-2.617-0.177-3.914c-0.028-0.21-0.042-0.436,0.125-0.56
		c0.115-0.084,0.283-0.13,0.414-0.105c0.192,0.035,0.29,0.228,0.307,0.451c0.069,0.839,0.133,1.678,0.199,2.52
		c0.004,0.078,0.007,0.153,0.05,0.235c0.056-0.438,0.107-0.88,0.171-1.316c0.073-0.496,0.126-1.002,0.246-1.483
		c0.254-1.021,0.901-1.631,1.74-1.708c0.905-0.082,1.628,0.395,2.029,1.382c0.342,0.841,0.659,1.697,0.976,2.553
		c0.066,0.181,0.149,0.263,0.328,0.272c0.423,0.027,0.845,0.083,1.268,0.126c0.094,0.01,0.188,0.014,0.314,0.022
		C8.956,13.422,8.9,13.23,8.844,13.041c-0.082-0.281-0.03-0.468,0.149-0.534c0.172-0.062,0.311,0.045,0.389,0.304
		c0.047,0.156,0.094,0.315,0.141,0.47c0.075,0.246,0.138,0.457,0.384,0.611c0.449,0.276,0.373,1.235-0.097,1.476
		c-0.168,0.088-0.371,0.115-0.558,0.118c-0.901,0.011-1.804-0.003-2.707,0.006c-0.464,0.005-0.783-0.233-0.987-0.699
		c-0.296-0.665-0.585-1.334-0.879-2.003c-0.029-0.069-0.064-0.134-0.112-0.233c-0.676,0.823-1.07,1.732-0.97,2.866
		C3.699,16.546,4.277,17.342,5.036,18.084z"/>
	<path d="M20.829,18.074c0.782-0.818,1.44-1.686,1.434-2.954c-0.004-0.993-0.366-1.822-0.989-2.554
		c-0.038,0.086-0.073,0.148-0.103,0.214c-0.24,0.565-0.507,1.121-0.717,1.699c-0.267,0.73-0.701,1.063-1.395,0.992
		c-0.336-0.036-0.68-0.007-1.019-0.007c-0.505,0-1.01,0.009-1.516-0.003c-0.635-0.015-0.955-0.485-0.811-1.167
		c0.07-0.324,0.244-0.529,0.534-0.565c0.742-0.098,1.483-0.189,2.224-0.269c0.154-0.018,0.224-0.081,0.28-0.241
		c0.301-0.829,0.597-1.661,0.919-2.479c0.277-0.708,0.716-1.237,1.4-1.407c1.115-0.277,2.07,0.371,2.398,1.654
		c0.164,0.655,0.249,1.338,0.369,2.009c0.021,0.106,0.039,0.212,0.057,0.316c0.016,0,0.029,0,0.043,0
		c0.022-0.349,0.037-0.699,0.07-1.049c0.038-0.416,0.079-0.83,0.133-1.243c0.036-0.32,0.249-0.504,0.501-0.459
		c0.238,0.041,0.393,0.28,0.35,0.593c-0.217,1.604-0.225,3.217-0.155,4.836c0.038,0.955-0.331,1.66-0.994,1.96
		c-0.133,0.062-0.273,0.115-0.417,0.119C22.573,18.081,21.72,18.074,20.829,18.074z"/>
	<path d="M17.574,22.521c-0.254,0-0.509,0-0.789,0c0-0.097,0-0.183,0-0.266c0-0.568,0.002-1.135-0.001-1.702
		c-0.005-0.545-0.32-0.916-0.783-0.917c-2.024-0.005-4.052-0.005-6.076,0c-0.473,0.001-0.786,0.366-0.789,0.905
		c-0.005,0.57-0.001,1.137-0.001,1.702c0,0.088,0,0.173,0,0.276c-0.269,0-0.519,0-0.784,0c-0.005-0.069-0.014-0.136-0.014-0.203
		c-0.001-0.606-0.001-1.216,0-1.821c0-0.58,0.188-1.057,0.581-1.425c0.054-0.05,0.109-0.131,0.12-0.203
		c0.241-1.561,1.119-2.315,2.357-2.401c1.109-0.079,2.232-0.075,3.34,0.029c1.191,0.112,1.876,0.921,2.143,2.267
		c0.025,0.124,0.1,0.253,0.184,0.341c0.313,0.328,0.521,0.722,0.529,1.213c0.018,0.707,0.007,1.415,0.007,2.126
		C17.598,22.462,17.586,22.485,17.574,22.521z"/>
	<path fill="#CF0005" d="M7.52,12.575C7.412,12.291,7.299,12,7.169,11.663c0.462-0.169,0.899-0.342,1.345-0.485
		c0.362-0.116,0.731-0.2,1.099-0.285c0.118-0.027,0.157-0.085,0.165-0.215c0.044-0.676,0.078-1.353,0.153-2.025
		c0.035-0.313,0.132-0.627,0.244-0.917c0.167-0.437,0.48-0.72,0.865-0.882c0.215-0.091,0.448-0.125,0.669-0.195
		c0.199-0.063,0.349,0.015,0.498,0.167c0.199,0.204,0.422,0.375,0.625,0.574c0.107,0.104,0.18,0.088,0.282-0.006
		c0.259-0.233,0.522-0.456,0.791-0.676c0.052-0.042,0.121-0.089,0.182-0.089c0.641,0.008,1.401,0.422,1.682,1.1
		c0.201,0.486,0.273,1.002,0.306,1.532c0.028,0.471,0.064,0.942,0.084,1.415c0.008,0.155,0.059,0.205,0.185,0.245
		c0.72,0.221,1.436,0.458,2.152,0.691c0.05,0.016,0.098,0.049,0.168,0.086c-0.108,0.302-0.218,0.596-0.323,0.881
		c-0.521-0.173-1.023-0.351-1.532-0.504c-0.316-0.096-0.64-0.17-0.965-0.228c-0.147-0.028-0.222-0.102-0.289-0.249
		c-0.805-1.801-2.797-2.375-4.235-1.225c-0.4,0.32-0.712,0.731-0.941,1.23c-0.036,0.08-0.108,0.173-0.178,0.191
		c-0.445,0.119-0.898,0.202-1.343,0.332C8.413,12.252,7.979,12.419,7.52,12.575z"/>
	<path d="M12.973,10.549c1.252,0.002,2.247,1.157,2.245,2.607c-0.002,1.423-1.015,2.57-2.26,2.563
		c-1.241-0.006-2.242-1.166-2.237-2.593C10.725,11.7,11.731,10.548,12.973,10.549z"/>
	<path d="M5.246,8.855c-1.049,0.004-1.894-0.961-1.9-2.168C3.342,5.456,4.184,4.487,5.26,4.49c1.043,0.002,1.879,0.977,1.878,2.19
		C7.136,7.886,6.297,8.852,5.246,8.855z"/>
	<path d="M20.604,8.855c-1.05,0.004-1.898-0.958-1.903-2.163c-0.005-1.225,0.835-2.205,1.888-2.203
		c1.066,0.001,1.907,0.965,1.906,2.185C22.492,7.885,21.655,8.852,20.604,8.855z"/>
	<path fill="#CF0005" d="M12.933,6.064c-0.939,0.046-1.656-0.963-1.622-1.949c0.037-1.047,0.786-1.867,1.716-1.841
		c0.896,0.023,1.623,0.914,1.605,1.949C14.614,5.127,13.98,6.125,12.933,6.064z"/>
	<path d="M8.569,17.945c-0.125,0.282-0.235,0.544-0.359,0.793c-0.024,0.048-0.122,0.09-0.161,0.072
		c-0.605-0.288-1.212-0.572-1.806-0.885c-0.239-0.125-0.458-0.308-0.674-0.481c-0.442-0.351-0.784-0.824-1.026-1.36
		c-0.29-0.644-0.306-1.325-0.003-2.025c0.041,0.069,0.074,0.115,0.096,0.166c0.267,0.575,0.495,1.182,0.809,1.719
		c0.208,0.354,0.504,0.687,0.826,0.891c0.601,0.377,1.248,0.658,1.881,0.969C8.272,17.866,8.409,17.895,8.569,17.945z"/>
	<path d="M21.312,14.078c0.206,0.533,0.265,1.042,0.122,1.583c-0.288,1.068-0.964,1.734-1.778,2.223
		c-0.556,0.334-1.145,0.588-1.718,0.884c-0.135,0.068-0.209,0.026-0.267-0.132c-0.086-0.229-0.191-0.448-0.299-0.698
		c0.095-0.045,0.167-0.086,0.239-0.109c0.725-0.252,1.423-0.579,2.054-1.06c0.355-0.275,0.676-0.613,0.875-1.094
		C20.761,15.141,21.038,14.633,21.312,14.078z"/>
</g>
</svg>
